G04 #@! TF.GenerationSoftware,KiCad,Pcbnew,(5.1.10)-1*
G04 #@! TF.CreationDate,2022-07-23T11:38:32-04:00*
G04 #@! TF.ProjectId,Hardware,48617264-7761-4726-952e-6b696361645f,rev?*
G04 #@! TF.SameCoordinates,Original*
G04 #@! TF.FileFunction,Copper,L1,Top*
G04 #@! TF.FilePolarity,Positive*
%FSLAX46Y46*%
G04 Gerber Fmt 4.6, Leading zero omitted, Abs format (unit mm)*
G04 Created by KiCad (PCBNEW (5.1.10)-1) date 2022-07-23 11:38:32*
%MOMM*%
%LPD*%
G01*
G04 APERTURE LIST*
G04 #@! TA.AperFunction,SMDPad,CuDef*
%ADD10R,2.000000X1.500000*%
G04 #@! TD*
G04 #@! TA.AperFunction,SMDPad,CuDef*
%ADD11R,2.000000X3.800000*%
G04 #@! TD*
G04 #@! TA.AperFunction,ComponentPad*
%ADD12O,1.700000X1.700000*%
G04 #@! TD*
G04 #@! TA.AperFunction,ComponentPad*
%ADD13R,1.700000X1.700000*%
G04 #@! TD*
G04 #@! TA.AperFunction,SMDPad,CuDef*
%ADD14R,2.000000X0.900000*%
G04 #@! TD*
G04 #@! TA.AperFunction,SMDPad,CuDef*
%ADD15R,0.900000X2.000000*%
G04 #@! TD*
G04 #@! TA.AperFunction,SMDPad,CuDef*
%ADD16R,5.000000X5.000000*%
G04 #@! TD*
G04 #@! TA.AperFunction,ViaPad*
%ADD17C,0.800000*%
G04 #@! TD*
G04 #@! TA.AperFunction,Conductor*
%ADD18C,0.250000*%
G04 #@! TD*
G04 #@! TA.AperFunction,Conductor*
%ADD19C,0.254000*%
G04 #@! TD*
G04 #@! TA.AperFunction,Conductor*
%ADD20C,0.100000*%
G04 #@! TD*
G04 APERTURE END LIST*
D10*
G04 #@! TO.P,U2,1*
G04 #@! TO.N,GND*
X88875000Y-103265000D03*
G04 #@! TO.P,U2,3*
G04 #@! TO.N,/BATT_POS*
X88875000Y-98665000D03*
G04 #@! TO.P,U2,2*
G04 #@! TO.N,/VDD33*
X88875000Y-100965000D03*
D11*
X82575000Y-100965000D03*
G04 #@! TD*
G04 #@! TO.P,C3,2*
G04 #@! TO.N,GND*
G04 #@! TA.AperFunction,SMDPad,CuDef*
G36*
G01*
X91600000Y-103320000D02*
X92550000Y-103320000D01*
G75*
G02*
X92800000Y-103570000I0J-250000D01*
G01*
X92800000Y-104070000D01*
G75*
G02*
X92550000Y-104320000I-250000J0D01*
G01*
X91600000Y-104320000D01*
G75*
G02*
X91350000Y-104070000I0J250000D01*
G01*
X91350000Y-103570000D01*
G75*
G02*
X91600000Y-103320000I250000J0D01*
G01*
G37*
G04 #@! TD.AperFunction*
G04 #@! TO.P,C3,1*
G04 #@! TO.N,/VDD33*
G04 #@! TA.AperFunction,SMDPad,CuDef*
G36*
G01*
X91600000Y-101420000D02*
X92550000Y-101420000D01*
G75*
G02*
X92800000Y-101670000I0J-250000D01*
G01*
X92800000Y-102170000D01*
G75*
G02*
X92550000Y-102420000I-250000J0D01*
G01*
X91600000Y-102420000D01*
G75*
G02*
X91350000Y-102170000I0J250000D01*
G01*
X91350000Y-101670000D01*
G75*
G02*
X91600000Y-101420000I250000J0D01*
G01*
G37*
G04 #@! TD.AperFunction*
G04 #@! TD*
G04 #@! TO.P,R4,2*
G04 #@! TO.N,/MTCK*
G04 #@! TA.AperFunction,SMDPad,CuDef*
G36*
G01*
X107638002Y-121012000D02*
X106737998Y-121012000D01*
G75*
G02*
X106488000Y-120762002I0J249998D01*
G01*
X106488000Y-120236998D01*
G75*
G02*
X106737998Y-119987000I249998J0D01*
G01*
X107638002Y-119987000D01*
G75*
G02*
X107888000Y-120236998I0J-249998D01*
G01*
X107888000Y-120762002D01*
G75*
G02*
X107638002Y-121012000I-249998J0D01*
G01*
G37*
G04 #@! TD.AperFunction*
G04 #@! TO.P,R4,1*
G04 #@! TO.N,Net-(J2-Pad3)*
G04 #@! TA.AperFunction,SMDPad,CuDef*
G36*
G01*
X107638002Y-122837000D02*
X106737998Y-122837000D01*
G75*
G02*
X106488000Y-122587002I0J249998D01*
G01*
X106488000Y-122061998D01*
G75*
G02*
X106737998Y-121812000I249998J0D01*
G01*
X107638002Y-121812000D01*
G75*
G02*
X107888000Y-122061998I0J-249998D01*
G01*
X107888000Y-122587002D01*
G75*
G02*
X107638002Y-122837000I-249998J0D01*
G01*
G37*
G04 #@! TD.AperFunction*
G04 #@! TD*
G04 #@! TO.P,R3,2*
G04 #@! TO.N,/MTDI*
G04 #@! TA.AperFunction,SMDPad,CuDef*
G36*
G01*
X93872000Y-114750002D02*
X93872000Y-113849998D01*
G75*
G02*
X94121998Y-113600000I249998J0D01*
G01*
X94647002Y-113600000D01*
G75*
G02*
X94897000Y-113849998I0J-249998D01*
G01*
X94897000Y-114750002D01*
G75*
G02*
X94647002Y-115000000I-249998J0D01*
G01*
X94121998Y-115000000D01*
G75*
G02*
X93872000Y-114750002I0J249998D01*
G01*
G37*
G04 #@! TD.AperFunction*
G04 #@! TO.P,R3,1*
G04 #@! TO.N,Net-(J2-Pad2)*
G04 #@! TA.AperFunction,SMDPad,CuDef*
G36*
G01*
X92047000Y-114750002D02*
X92047000Y-113849998D01*
G75*
G02*
X92296998Y-113600000I249998J0D01*
G01*
X92822002Y-113600000D01*
G75*
G02*
X93072000Y-113849998I0J-249998D01*
G01*
X93072000Y-114750002D01*
G75*
G02*
X92822002Y-115000000I-249998J0D01*
G01*
X92296998Y-115000000D01*
G75*
G02*
X92047000Y-114750002I0J249998D01*
G01*
G37*
G04 #@! TD.AperFunction*
G04 #@! TD*
D12*
G04 #@! TO.P,J7,3*
G04 #@! TO.N,GND*
X87884000Y-108712000D03*
G04 #@! TO.P,J7,2*
G04 #@! TO.N,/BATT_POS*
X87884000Y-111252000D03*
D13*
G04 #@! TO.P,J7,1*
G04 #@! TO.N,/MTMS*
X87884000Y-113792000D03*
G04 #@! TD*
G04 #@! TO.P,R2,2*
G04 #@! TO.N,/MTMS*
G04 #@! TA.AperFunction,SMDPad,CuDef*
G36*
G01*
X93872000Y-112210002D02*
X93872000Y-111309998D01*
G75*
G02*
X94121998Y-111060000I249998J0D01*
G01*
X94647002Y-111060000D01*
G75*
G02*
X94897000Y-111309998I0J-249998D01*
G01*
X94897000Y-112210002D01*
G75*
G02*
X94647002Y-112460000I-249998J0D01*
G01*
X94121998Y-112460000D01*
G75*
G02*
X93872000Y-112210002I0J249998D01*
G01*
G37*
G04 #@! TD.AperFunction*
G04 #@! TO.P,R2,1*
G04 #@! TO.N,Net-(J2-Pad1)*
G04 #@! TA.AperFunction,SMDPad,CuDef*
G36*
G01*
X92047000Y-112210002D02*
X92047000Y-111309998D01*
G75*
G02*
X92296998Y-111060000I249998J0D01*
G01*
X92822002Y-111060000D01*
G75*
G02*
X93072000Y-111309998I0J-249998D01*
G01*
X93072000Y-112210002D01*
G75*
G02*
X92822002Y-112460000I-249998J0D01*
G01*
X92296998Y-112460000D01*
G75*
G02*
X92047000Y-112210002I0J249998D01*
G01*
G37*
G04 #@! TD.AperFunction*
G04 #@! TD*
G04 #@! TO.P,J1,1*
G04 #@! TO.N,/PIR_INPUT*
X133985000Y-111760000D03*
D12*
G04 #@! TO.P,J1,2*
G04 #@! TO.N,GND*
X133985000Y-114300000D03*
G04 #@! TD*
G04 #@! TO.P,C2,2*
G04 #@! TO.N,GND*
G04 #@! TA.AperFunction,SMDPad,CuDef*
G36*
G01*
X100843668Y-98229000D02*
X99893668Y-98229000D01*
G75*
G02*
X99643668Y-97979000I0J250000D01*
G01*
X99643668Y-97479000D01*
G75*
G02*
X99893668Y-97229000I250000J0D01*
G01*
X100843668Y-97229000D01*
G75*
G02*
X101093668Y-97479000I0J-250000D01*
G01*
X101093668Y-97979000D01*
G75*
G02*
X100843668Y-98229000I-250000J0D01*
G01*
G37*
G04 #@! TD.AperFunction*
G04 #@! TO.P,C2,1*
G04 #@! TO.N,/VDD33*
G04 #@! TA.AperFunction,SMDPad,CuDef*
G36*
G01*
X100843668Y-100129000D02*
X99893668Y-100129000D01*
G75*
G02*
X99643668Y-99879000I0J250000D01*
G01*
X99643668Y-99379000D01*
G75*
G02*
X99893668Y-99129000I250000J0D01*
G01*
X100843668Y-99129000D01*
G75*
G02*
X101093668Y-99379000I0J-250000D01*
G01*
X101093668Y-99879000D01*
G75*
G02*
X100843668Y-100129000I-250000J0D01*
G01*
G37*
G04 #@! TD.AperFunction*
G04 #@! TD*
G04 #@! TO.P,R1,2*
G04 #@! TO.N,/EN*
G04 #@! TA.AperFunction,SMDPad,CuDef*
G36*
G01*
X131045000Y-106864998D02*
X131045000Y-107765002D01*
G75*
G02*
X130795002Y-108015000I-249998J0D01*
G01*
X130269998Y-108015000D01*
G75*
G02*
X130020000Y-107765002I0J249998D01*
G01*
X130020000Y-106864998D01*
G75*
G02*
X130269998Y-106615000I249998J0D01*
G01*
X130795002Y-106615000D01*
G75*
G02*
X131045000Y-106864998I0J-249998D01*
G01*
G37*
G04 #@! TD.AperFunction*
G04 #@! TO.P,R1,1*
G04 #@! TO.N,/VDD33*
G04 #@! TA.AperFunction,SMDPad,CuDef*
G36*
G01*
X132870000Y-106864998D02*
X132870000Y-107765002D01*
G75*
G02*
X132620002Y-108015000I-249998J0D01*
G01*
X132094998Y-108015000D01*
G75*
G02*
X131845000Y-107765002I0J249998D01*
G01*
X131845000Y-106864998D01*
G75*
G02*
X132094998Y-106615000I249998J0D01*
G01*
X132620002Y-106615000D01*
G75*
G02*
X132870000Y-106864998I0J-249998D01*
G01*
G37*
G04 #@! TD.AperFunction*
G04 #@! TD*
G04 #@! TO.P,C1,1*
G04 #@! TO.N,/EN*
G04 #@! TA.AperFunction,SMDPad,CuDef*
G36*
G01*
X129995000Y-103345000D02*
X129995000Y-102395000D01*
G75*
G02*
X130245000Y-102145000I250000J0D01*
G01*
X130745000Y-102145000D01*
G75*
G02*
X130995000Y-102395000I0J-250000D01*
G01*
X130995000Y-103345000D01*
G75*
G02*
X130745000Y-103595000I-250000J0D01*
G01*
X130245000Y-103595000D01*
G75*
G02*
X129995000Y-103345000I0J250000D01*
G01*
G37*
G04 #@! TD.AperFunction*
G04 #@! TO.P,C1,2*
G04 #@! TO.N,GND*
G04 #@! TA.AperFunction,SMDPad,CuDef*
G36*
G01*
X131895000Y-103345000D02*
X131895000Y-102395000D01*
G75*
G02*
X132145000Y-102145000I250000J0D01*
G01*
X132645000Y-102145000D01*
G75*
G02*
X132895000Y-102395000I0J-250000D01*
G01*
X132895000Y-103345000D01*
G75*
G02*
X132645000Y-103595000I-250000J0D01*
G01*
X132145000Y-103595000D01*
G75*
G02*
X131895000Y-103345000I0J250000D01*
G01*
G37*
G04 #@! TD.AperFunction*
G04 #@! TD*
D13*
G04 #@! TO.P,J3,1*
G04 #@! TO.N,GND*
X127000000Y-100965000D03*
D12*
G04 #@! TO.P,J3,2*
G04 #@! TO.N,/EN*
X127000000Y-103505000D03*
G04 #@! TO.P,J3,3*
G04 #@! TO.N,N/C*
X127000000Y-106045000D03*
G04 #@! TO.P,J3,4*
G04 #@! TO.N,/RXD*
X127000000Y-108585000D03*
G04 #@! TO.P,J3,5*
G04 #@! TO.N,/TXD*
X127000000Y-111125000D03*
G04 #@! TO.P,J3,6*
G04 #@! TO.N,N/C*
X127000000Y-113665000D03*
G04 #@! TD*
G04 #@! TO.P,D1,2*
G04 #@! TO.N,/IO33*
G04 #@! TA.AperFunction,SMDPad,CuDef*
G36*
G01*
X99052500Y-107715001D02*
X99052500Y-106914999D01*
G75*
G02*
X99302499Y-106665000I249999J0D01*
G01*
X100127501Y-106665000D01*
G75*
G02*
X100377500Y-106914999I0J-249999D01*
G01*
X100377500Y-107715001D01*
G75*
G02*
X100127501Y-107965000I-249999J0D01*
G01*
X99302499Y-107965000D01*
G75*
G02*
X99052500Y-107715001I0J249999D01*
G01*
G37*
G04 #@! TD.AperFunction*
G04 #@! TO.P,D1,1*
G04 #@! TO.N,GND*
G04 #@! TA.AperFunction,SMDPad,CuDef*
G36*
G01*
X97127500Y-107715001D02*
X97127500Y-106914999D01*
G75*
G02*
X97377499Y-106665000I249999J0D01*
G01*
X98202501Y-106665000D01*
G75*
G02*
X98452500Y-106914999I0J-249999D01*
G01*
X98452500Y-107715001D01*
G75*
G02*
X98202501Y-107965000I-249999J0D01*
G01*
X97377499Y-107965000D01*
G75*
G02*
X97127500Y-107715001I0J249999D01*
G01*
G37*
G04 #@! TD.AperFunction*
G04 #@! TD*
G04 #@! TO.P,R5,2*
G04 #@! TO.N,/MTDO*
G04 #@! TA.AperFunction,SMDPad,CuDef*
G36*
G01*
X116265002Y-121012000D02*
X115364998Y-121012000D01*
G75*
G02*
X115115000Y-120762002I0J249998D01*
G01*
X115115000Y-120236998D01*
G75*
G02*
X115364998Y-119987000I249998J0D01*
G01*
X116265002Y-119987000D01*
G75*
G02*
X116515000Y-120236998I0J-249998D01*
G01*
X116515000Y-120762002D01*
G75*
G02*
X116265002Y-121012000I-249998J0D01*
G01*
G37*
G04 #@! TD.AperFunction*
G04 #@! TO.P,R5,1*
G04 #@! TO.N,Net-(J2-Pad4)*
G04 #@! TA.AperFunction,SMDPad,CuDef*
G36*
G01*
X116265002Y-122837000D02*
X115364998Y-122837000D01*
G75*
G02*
X115115000Y-122587002I0J249998D01*
G01*
X115115000Y-122061998D01*
G75*
G02*
X115364998Y-121812000I249998J0D01*
G01*
X116265002Y-121812000D01*
G75*
G02*
X116515000Y-122061998I0J-249998D01*
G01*
X116515000Y-122587002D01*
G75*
G02*
X116265002Y-122837000I-249998J0D01*
G01*
G37*
G04 #@! TD.AperFunction*
G04 #@! TD*
D13*
G04 #@! TO.P,J4,1*
G04 #@! TO.N,/BATT_POS*
X95885000Y-101600000D03*
D12*
G04 #@! TO.P,J4,2*
G04 #@! TO.N,GND*
X95885000Y-99060000D03*
G04 #@! TD*
D13*
G04 #@! TO.P,J2,1*
G04 #@! TO.N,Net-(J2-Pad1)*
X94526100Y-120738900D03*
D12*
G04 #@! TO.P,J2,2*
G04 #@! TO.N,Net-(J2-Pad2)*
X97066100Y-120738900D03*
G04 #@! TO.P,J2,3*
G04 #@! TO.N,Net-(J2-Pad3)*
X99606100Y-120738900D03*
G04 #@! TO.P,J2,4*
G04 #@! TO.N,Net-(J2-Pad4)*
X102146100Y-120738900D03*
G04 #@! TD*
D14*
G04 #@! TO.P,U1,38*
G04 #@! TO.N,GND*
X119870000Y-97155000D03*
G04 #@! TO.P,U1,37*
G04 #@! TO.N,N/C*
X119870000Y-98425000D03*
G04 #@! TO.P,U1,36*
X119870000Y-99695000D03*
G04 #@! TO.P,U1,35*
G04 #@! TO.N,/TXD*
X119870000Y-100965000D03*
G04 #@! TO.P,U1,34*
G04 #@! TO.N,/RXD*
X119870000Y-102235000D03*
G04 #@! TO.P,U1,33*
G04 #@! TO.N,N/C*
X119870000Y-103505000D03*
G04 #@! TO.P,U1,32*
X119870000Y-104775000D03*
G04 #@! TO.P,U1,31*
X119870000Y-106045000D03*
G04 #@! TO.P,U1,30*
X119870000Y-107315000D03*
G04 #@! TO.P,U1,29*
X119870000Y-108585000D03*
G04 #@! TO.P,U1,28*
X119870000Y-109855000D03*
G04 #@! TO.P,U1,27*
X119870000Y-111125000D03*
G04 #@! TO.P,U1,26*
X119870000Y-112395000D03*
G04 #@! TO.P,U1,25*
G04 #@! TO.N,/PIR_INPUT*
X119870000Y-113665000D03*
D15*
G04 #@! TO.P,U1,24*
G04 #@! TO.N,N/C*
X117085000Y-114665000D03*
G04 #@! TO.P,U1,23*
G04 #@! TO.N,/MTDO*
X115815000Y-114665000D03*
G04 #@! TO.P,U1,22*
G04 #@! TO.N,N/C*
X114545000Y-114665000D03*
G04 #@! TO.P,U1,21*
X113275000Y-114665000D03*
G04 #@! TO.P,U1,20*
X112005000Y-114665000D03*
G04 #@! TO.P,U1,19*
X110735000Y-114665000D03*
G04 #@! TO.P,U1,18*
X109465000Y-114665000D03*
G04 #@! TO.P,U1,17*
X108195000Y-114665000D03*
G04 #@! TO.P,U1,16*
G04 #@! TO.N,/MTCK*
X106925000Y-114665000D03*
G04 #@! TO.P,U1,15*
G04 #@! TO.N,GND*
X105655000Y-114665000D03*
D14*
G04 #@! TO.P,U1,14*
G04 #@! TO.N,/MTDI*
X102870000Y-113665000D03*
G04 #@! TO.P,U1,13*
G04 #@! TO.N,/MTMS*
X102870000Y-112395000D03*
G04 #@! TO.P,U1,12*
G04 #@! TO.N,N/C*
X102870000Y-111125000D03*
G04 #@! TO.P,U1,11*
X102870000Y-109855000D03*
G04 #@! TO.P,U1,10*
X102870000Y-108585000D03*
G04 #@! TO.P,U1,9*
G04 #@! TO.N,/IO33*
X102870000Y-107315000D03*
G04 #@! TO.P,U1,8*
G04 #@! TO.N,N/C*
X102870000Y-106045000D03*
G04 #@! TO.P,U1,7*
X102870000Y-104775000D03*
G04 #@! TO.P,U1,6*
X102870000Y-103505000D03*
G04 #@! TO.P,U1,5*
X102870000Y-102235000D03*
G04 #@! TO.P,U1,4*
X102870000Y-100965000D03*
G04 #@! TO.P,U1,3*
G04 #@! TO.N,/EN*
X102870000Y-99695000D03*
G04 #@! TO.P,U1,2*
G04 #@! TO.N,/VDD33*
X102870000Y-98425000D03*
G04 #@! TO.P,U1,1*
G04 #@! TO.N,GND*
X102870000Y-97155000D03*
D16*
G04 #@! TO.P,U1,39*
X110370000Y-104655000D03*
G04 #@! TD*
D17*
G04 #@! TO.N,GND*
X109855000Y-105410000D03*
X95885000Y-107315000D03*
X129540000Y-100330000D03*
X105689400Y-112585500D03*
X117894100Y-97383600D03*
X98425000Y-97790000D03*
X92075000Y-105410000D03*
G04 #@! TO.N,/TXD*
X123825000Y-103505000D03*
X123825000Y-107315000D03*
G04 #@! TO.N,/EN*
X105410000Y-101600000D03*
G04 #@! TD*
D18*
G04 #@! TO.N,GND*
X109855000Y-105410000D02*
X109855000Y-104775000D01*
X109855000Y-104775000D02*
X110490000Y-104140000D01*
X97790000Y-107315000D02*
X96520000Y-107315000D01*
X96520000Y-107315000D02*
X95885000Y-107315000D01*
X100391000Y-97729000D02*
X100330000Y-97790000D01*
X132395000Y-102870000D02*
X129855000Y-100330000D01*
X129855000Y-100330000D02*
X129540000Y-100330000D01*
X105655000Y-114665000D02*
X105655000Y-112970200D01*
X105689400Y-112935800D02*
X105689400Y-112585500D01*
X105655000Y-112970200D02*
X105689400Y-112935800D01*
X102870000Y-97155000D02*
X103174800Y-97155000D01*
X119870000Y-97155000D02*
X118122700Y-97155000D01*
X118122700Y-97155000D02*
X117894100Y-97383600D01*
X101620000Y-97155000D02*
X100985000Y-97790000D01*
X102870000Y-97155000D02*
X101620000Y-97155000D01*
X100985000Y-97790000D02*
X100330000Y-97790000D01*
X98486000Y-97729000D02*
X98425000Y-97790000D01*
X100368668Y-97729000D02*
X98486000Y-97729000D01*
X92075000Y-103820000D02*
X92075000Y-104140000D01*
X88875000Y-103265000D02*
X91835000Y-103265000D01*
X91835000Y-103265000D02*
X92075000Y-103505000D01*
X92075000Y-103820000D02*
X92075000Y-105410000D01*
G04 #@! TO.N,/VDD33*
X100796478Y-99695000D02*
X100330000Y-99695000D01*
X101620000Y-98425000D02*
X100965000Y-99080000D01*
X102870000Y-98425000D02*
X101620000Y-98425000D01*
X100965000Y-99080000D02*
X100965000Y-99695000D01*
G04 #@! TO.N,Net-(J2-Pad1)*
X92559500Y-111760000D02*
X90932000Y-113387500D01*
X90932000Y-113387500D02*
X90932000Y-116840000D01*
X90932000Y-116840000D02*
X92456000Y-118364000D01*
X92456000Y-118364000D02*
X93472000Y-118364000D01*
X93472000Y-118364000D02*
X94488000Y-119380000D01*
X94488000Y-119380000D02*
X94488000Y-120904000D01*
G04 #@! TO.N,Net-(J2-Pad2)*
X92559500Y-114300000D02*
X92559500Y-116435500D01*
X92559500Y-116435500D02*
X93472000Y-117348000D01*
X93472000Y-117348000D02*
X96012000Y-117348000D01*
X96012000Y-117348000D02*
X97028000Y-118364000D01*
X97028000Y-118364000D02*
X97028000Y-120904000D01*
X97028000Y-120904000D02*
X97028000Y-121412000D01*
G04 #@! TO.N,Net-(J2-Pad3)*
X99606100Y-120738900D02*
X101092000Y-119253000D01*
X101092000Y-119253000D02*
X104013000Y-119253000D01*
X104013000Y-119253000D02*
X104648000Y-119888000D01*
X104648000Y-119888000D02*
X104648000Y-121412000D01*
X104648000Y-121412000D02*
X105664000Y-122428000D01*
X105664000Y-122428000D02*
X107188000Y-122428000D01*
G04 #@! TO.N,Net-(J2-Pad4)*
X102146100Y-120738900D02*
X102146100Y-122974100D01*
X102146100Y-122974100D02*
X103124000Y-123952000D01*
X103124000Y-123952000D02*
X114300000Y-123952000D01*
X114300000Y-123952000D02*
X115824000Y-122428000D01*
G04 #@! TO.N,/TXD*
X119870000Y-100965000D02*
X121120000Y-100965000D01*
X121285000Y-100965000D02*
X123825000Y-103505000D01*
X121120000Y-100965000D02*
X121285000Y-100965000D01*
X123825000Y-107315000D02*
X123825000Y-107950000D01*
X123825000Y-107950000D02*
X127000000Y-111125000D01*
G04 #@! TO.N,/RXD*
X120635002Y-102235000D02*
X120015000Y-102235000D01*
X121120000Y-102235000D02*
X124460000Y-105575000D01*
X119870000Y-102235000D02*
X121120000Y-102235000D01*
X124460000Y-105575000D02*
X124460000Y-106045000D01*
X124460000Y-106045000D02*
X127000000Y-108585000D01*
G04 #@! TO.N,/IO33*
X99715000Y-107315000D02*
X102870000Y-107315000D01*
G04 #@! TO.N,/MTMS*
X94384500Y-111760000D02*
X100004880Y-111760000D01*
X100004880Y-111760000D02*
X100665280Y-112420400D01*
X100665280Y-112420400D02*
X102575360Y-112420400D01*
X94384500Y-111760000D02*
X94384500Y-111656500D01*
X90765999Y-110402001D02*
X91948000Y-109220000D01*
X90765999Y-110402001D02*
X90765999Y-111164001D01*
X90765999Y-111164001D02*
X88265000Y-113665000D01*
X94384500Y-111760000D02*
X94384500Y-110894500D01*
X92710000Y-109220000D02*
X91948000Y-109220000D01*
X94384500Y-110894500D02*
X92710000Y-109220000D01*
G04 #@! TO.N,/MTDI*
X94384500Y-114300000D02*
X100076000Y-114300000D01*
X100076000Y-114300000D02*
X100584000Y-113792000D01*
X100584000Y-113792000D02*
X102616000Y-113792000D01*
G04 #@! TO.N,/MTCK*
X107188000Y-120499500D02*
X107188000Y-115316000D01*
X107188000Y-115316000D02*
X106680000Y-114808000D01*
X106680000Y-114808000D02*
X106680000Y-115316000D01*
G04 #@! TO.N,/MTDO*
X115815000Y-120499500D02*
X115815000Y-115325000D01*
X115815000Y-115325000D02*
X115824000Y-115316000D01*
G04 #@! TO.N,/EN*
X127320000Y-103825000D02*
X127000000Y-103505000D01*
X105410000Y-100985000D02*
X105410000Y-101600000D01*
X104120000Y-99695000D02*
X105410000Y-100985000D01*
X102870000Y-99695000D02*
X104120000Y-99695000D01*
X130532500Y-107315000D02*
X130532500Y-103147500D01*
X130532500Y-103147500D02*
X130175000Y-103505000D01*
X130175000Y-103505000D02*
X127000000Y-103505000D01*
G04 #@! TO.N,/BATT_POS*
X88875000Y-98665000D02*
X91045000Y-98665000D01*
X91045000Y-98665000D02*
X92710000Y-100330000D01*
X92710000Y-100330000D02*
X94615000Y-100330000D01*
X94615000Y-100330000D02*
X95885000Y-101600000D01*
G04 #@! TO.N,/PIR_INPUT*
X129540000Y-113665000D02*
X131445000Y-111760000D01*
X131445000Y-111760000D02*
X133985000Y-111760000D01*
X129540000Y-113665000D02*
X129540000Y-114935000D01*
X129540000Y-114935000D02*
X128270000Y-116205000D01*
X128270000Y-116205000D02*
X124460000Y-116205000D01*
X124460000Y-116205000D02*
X121920000Y-113665000D01*
X121920000Y-113665000D02*
X120015000Y-113665000D01*
G04 #@! TO.N,/BATT_POS*
X87884000Y-111252000D02*
X85217000Y-108585000D01*
X85217000Y-108585000D02*
X85217000Y-100838000D01*
X85217000Y-100838000D02*
X86995000Y-99060000D01*
X86995000Y-99060000D02*
X88900000Y-99060000D01*
G04 #@! TD*
D19*
G04 #@! TO.N,/VDD33*
X97507795Y-97299744D02*
X97429774Y-97488102D01*
X97390000Y-97688061D01*
X97390000Y-97891939D01*
X97429774Y-98091898D01*
X97507795Y-98280256D01*
X97621063Y-98449774D01*
X97765226Y-98593937D01*
X97934744Y-98707205D01*
X98123102Y-98785226D01*
X98323061Y-98825000D01*
X98526939Y-98825000D01*
X98726898Y-98785226D01*
X98915256Y-98707205D01*
X99084774Y-98593937D01*
X99178279Y-98500432D01*
X99265706Y-98606962D01*
X99272262Y-98612342D01*
X99192483Y-98677815D01*
X99113131Y-98774506D01*
X99054166Y-98884820D01*
X99017856Y-99004518D01*
X99005596Y-99129000D01*
X99008668Y-99343250D01*
X99167418Y-99502000D01*
X100241668Y-99502000D01*
X100241668Y-99482000D01*
X100495668Y-99482000D01*
X100495668Y-99502000D01*
X100515668Y-99502000D01*
X100515668Y-99756000D01*
X100495668Y-99756000D01*
X100495668Y-100605250D01*
X100654418Y-100764000D01*
X101093668Y-100767072D01*
X101218150Y-100754812D01*
X101231928Y-100750632D01*
X101231928Y-101415000D01*
X101244188Y-101539482D01*
X101262546Y-101599999D01*
X101244188Y-101660518D01*
X101231928Y-101785000D01*
X101231928Y-102685000D01*
X101244188Y-102809482D01*
X101262546Y-102869999D01*
X101244188Y-102930518D01*
X101231928Y-103055000D01*
X101231928Y-103955000D01*
X101244188Y-104079482D01*
X101262546Y-104140000D01*
X101244188Y-104200518D01*
X101231928Y-104325000D01*
X101231928Y-105225000D01*
X101244188Y-105349482D01*
X101262546Y-105410000D01*
X101244188Y-105470518D01*
X101231928Y-105595000D01*
X101231928Y-106495000D01*
X101237837Y-106555000D01*
X100937202Y-106555000D01*
X100865905Y-106421613D01*
X100755462Y-106287038D01*
X100620887Y-106176595D01*
X100467351Y-106094528D01*
X100300755Y-106043992D01*
X100127501Y-106026928D01*
X99302499Y-106026928D01*
X99129245Y-106043992D01*
X98962649Y-106094528D01*
X98809113Y-106176595D01*
X98752500Y-106223056D01*
X98695887Y-106176595D01*
X98542351Y-106094528D01*
X98375755Y-106043992D01*
X98202501Y-106026928D01*
X97377499Y-106026928D01*
X97204245Y-106043992D01*
X97037649Y-106094528D01*
X96884113Y-106176595D01*
X96749538Y-106287038D01*
X96639095Y-106421613D01*
X96575083Y-106541372D01*
X96544774Y-106511063D01*
X96375256Y-106397795D01*
X96186898Y-106319774D01*
X95986939Y-106280000D01*
X95783061Y-106280000D01*
X95583102Y-106319774D01*
X95394744Y-106397795D01*
X95225226Y-106511063D01*
X95081063Y-106655226D01*
X94967795Y-106824744D01*
X94889774Y-107013102D01*
X94850000Y-107213061D01*
X94850000Y-107416939D01*
X94889774Y-107616898D01*
X94967795Y-107805256D01*
X95081063Y-107974774D01*
X95225226Y-108118937D01*
X95394744Y-108232205D01*
X95583102Y-108310226D01*
X95783061Y-108350000D01*
X95986939Y-108350000D01*
X96186898Y-108310226D01*
X96375256Y-108232205D01*
X96544774Y-108118937D01*
X96575083Y-108088628D01*
X96639095Y-108208387D01*
X96749538Y-108342962D01*
X96884113Y-108453405D01*
X97037649Y-108535472D01*
X97204245Y-108586008D01*
X97377499Y-108603072D01*
X98202501Y-108603072D01*
X98375755Y-108586008D01*
X98542351Y-108535472D01*
X98695887Y-108453405D01*
X98752500Y-108406944D01*
X98809113Y-108453405D01*
X98962649Y-108535472D01*
X99129245Y-108586008D01*
X99302499Y-108603072D01*
X100127501Y-108603072D01*
X100300755Y-108586008D01*
X100467351Y-108535472D01*
X100620887Y-108453405D01*
X100755462Y-108342962D01*
X100865905Y-108208387D01*
X100937202Y-108075000D01*
X101237837Y-108075000D01*
X101231928Y-108135000D01*
X101231928Y-109035000D01*
X101244188Y-109159482D01*
X101262546Y-109220000D01*
X101244188Y-109280518D01*
X101231928Y-109405000D01*
X101231928Y-110305000D01*
X101244188Y-110429482D01*
X101262546Y-110490000D01*
X101244188Y-110550518D01*
X101231928Y-110675000D01*
X101231928Y-111575000D01*
X101240339Y-111660400D01*
X100980082Y-111660400D01*
X100568683Y-111249002D01*
X100544881Y-111219999D01*
X100429156Y-111125026D01*
X100297127Y-111054454D01*
X100153866Y-111010997D01*
X100042213Y-111000000D01*
X100042202Y-111000000D01*
X100004880Y-110996324D01*
X99967558Y-111000000D01*
X95476527Y-111000000D01*
X95467472Y-110970148D01*
X95385405Y-110816613D01*
X95274962Y-110682038D01*
X95140387Y-110571595D01*
X95046968Y-110521661D01*
X95019474Y-110470224D01*
X94948299Y-110383497D01*
X94924501Y-110354499D01*
X94895503Y-110330701D01*
X93273804Y-108709003D01*
X93250001Y-108679999D01*
X93134276Y-108585026D01*
X93002247Y-108514454D01*
X92858986Y-108470997D01*
X92747333Y-108460000D01*
X92747322Y-108460000D01*
X92710000Y-108456324D01*
X92672678Y-108460000D01*
X91985323Y-108460000D01*
X91948000Y-108456324D01*
X91910677Y-108460000D01*
X91910667Y-108460000D01*
X91799014Y-108470997D01*
X91655753Y-108514454D01*
X91523724Y-108585026D01*
X91407999Y-108679999D01*
X91384201Y-108708997D01*
X90255002Y-109838197D01*
X90225998Y-109862000D01*
X90173848Y-109925546D01*
X90131025Y-109977725D01*
X90104158Y-110027990D01*
X90060453Y-110109755D01*
X90016996Y-110253016D01*
X90005999Y-110364669D01*
X90005999Y-110364679D01*
X90002323Y-110402001D01*
X90005999Y-110439323D01*
X90005999Y-110849199D01*
X89347164Y-111508034D01*
X89369000Y-111398260D01*
X89369000Y-111105740D01*
X89311932Y-110818842D01*
X89199990Y-110548589D01*
X89037475Y-110305368D01*
X88830632Y-110098525D01*
X88656240Y-109982000D01*
X88830632Y-109865475D01*
X89037475Y-109658632D01*
X89199990Y-109415411D01*
X89311932Y-109145158D01*
X89369000Y-108858260D01*
X89369000Y-108565740D01*
X89311932Y-108278842D01*
X89199990Y-108008589D01*
X89037475Y-107765368D01*
X88830632Y-107558525D01*
X88587411Y-107396010D01*
X88317158Y-107284068D01*
X88030260Y-107227000D01*
X87737740Y-107227000D01*
X87450842Y-107284068D01*
X87180589Y-107396010D01*
X86937368Y-107558525D01*
X86730525Y-107765368D01*
X86568010Y-108008589D01*
X86456068Y-108278842D01*
X86399000Y-108565740D01*
X86399000Y-108692199D01*
X85977000Y-108270199D01*
X85977000Y-101715000D01*
X87236928Y-101715000D01*
X87249188Y-101839482D01*
X87285498Y-101959180D01*
X87344463Y-102069494D01*
X87381809Y-102115000D01*
X87344463Y-102160506D01*
X87285498Y-102270820D01*
X87249188Y-102390518D01*
X87236928Y-102515000D01*
X87236928Y-104015000D01*
X87249188Y-104139482D01*
X87285498Y-104259180D01*
X87344463Y-104369494D01*
X87423815Y-104466185D01*
X87520506Y-104545537D01*
X87630820Y-104604502D01*
X87750518Y-104640812D01*
X87875000Y-104653072D01*
X89875000Y-104653072D01*
X89999482Y-104640812D01*
X90119180Y-104604502D01*
X90229494Y-104545537D01*
X90326185Y-104466185D01*
X90405537Y-104369494D01*
X90464502Y-104259180D01*
X90500812Y-104139482D01*
X90512087Y-104025000D01*
X90711928Y-104025000D01*
X90711928Y-104070000D01*
X90728992Y-104243254D01*
X90779528Y-104409850D01*
X90861595Y-104563386D01*
X90972038Y-104697962D01*
X91106614Y-104808405D01*
X91199143Y-104857863D01*
X91157795Y-104919744D01*
X91079774Y-105108102D01*
X91040000Y-105308061D01*
X91040000Y-105511939D01*
X91079774Y-105711898D01*
X91157795Y-105900256D01*
X91271063Y-106069774D01*
X91415226Y-106213937D01*
X91584744Y-106327205D01*
X91773102Y-106405226D01*
X91973061Y-106445000D01*
X92176939Y-106445000D01*
X92376898Y-106405226D01*
X92565256Y-106327205D01*
X92734774Y-106213937D01*
X92878937Y-106069774D01*
X92992205Y-105900256D01*
X93070226Y-105711898D01*
X93110000Y-105511939D01*
X93110000Y-105308061D01*
X93070226Y-105108102D01*
X92992205Y-104919744D01*
X92950857Y-104857863D01*
X93043386Y-104808405D01*
X93177962Y-104697962D01*
X93288405Y-104563386D01*
X93370472Y-104409850D01*
X93421008Y-104243254D01*
X93438072Y-104070000D01*
X93438072Y-103570000D01*
X93421008Y-103396746D01*
X93370472Y-103230150D01*
X93288405Y-103076614D01*
X93177962Y-102942038D01*
X93171406Y-102936658D01*
X93251185Y-102871185D01*
X93330537Y-102774494D01*
X93389502Y-102664180D01*
X93425812Y-102544482D01*
X93438072Y-102420000D01*
X93435000Y-102205750D01*
X93276250Y-102047000D01*
X92202000Y-102047000D01*
X92202000Y-102067000D01*
X91948000Y-102067000D01*
X91948000Y-102047000D01*
X90873750Y-102047000D01*
X90715000Y-102205750D01*
X90711928Y-102420000D01*
X90720299Y-102505000D01*
X90512087Y-102505000D01*
X90500812Y-102390518D01*
X90464502Y-102270820D01*
X90405537Y-102160506D01*
X90368191Y-102115000D01*
X90405537Y-102069494D01*
X90464502Y-101959180D01*
X90500812Y-101839482D01*
X90513072Y-101715000D01*
X90511120Y-101420000D01*
X90711928Y-101420000D01*
X90715000Y-101634250D01*
X90873750Y-101793000D01*
X91948000Y-101793000D01*
X91948000Y-100943750D01*
X91789250Y-100785000D01*
X91350000Y-100781928D01*
X91225518Y-100794188D01*
X91105820Y-100830498D01*
X90995506Y-100889463D01*
X90898815Y-100968815D01*
X90819463Y-101065506D01*
X90760498Y-101175820D01*
X90724188Y-101295518D01*
X90711928Y-101420000D01*
X90511120Y-101420000D01*
X90510000Y-101250750D01*
X90351250Y-101092000D01*
X89002000Y-101092000D01*
X89002000Y-101112000D01*
X88748000Y-101112000D01*
X88748000Y-101092000D01*
X87398750Y-101092000D01*
X87240000Y-101250750D01*
X87236928Y-101715000D01*
X85977000Y-101715000D01*
X85977000Y-101152801D01*
X87309802Y-99820000D01*
X87377705Y-99820000D01*
X87344463Y-99860506D01*
X87285498Y-99970820D01*
X87249188Y-100090518D01*
X87236928Y-100215000D01*
X87240000Y-100679250D01*
X87398750Y-100838000D01*
X88748000Y-100838000D01*
X88748000Y-100818000D01*
X89002000Y-100818000D01*
X89002000Y-100838000D01*
X90351250Y-100838000D01*
X90510000Y-100679250D01*
X90513072Y-100215000D01*
X90500812Y-100090518D01*
X90464502Y-99970820D01*
X90405537Y-99860506D01*
X90368191Y-99815000D01*
X90405537Y-99769494D01*
X90464502Y-99659180D01*
X90500812Y-99539482D01*
X90512087Y-99425000D01*
X90730199Y-99425000D01*
X92146200Y-100841002D01*
X92169999Y-100870001D01*
X92228082Y-100917668D01*
X92202000Y-100943750D01*
X92202000Y-101793000D01*
X93276250Y-101793000D01*
X93435000Y-101634250D01*
X93438072Y-101420000D01*
X93425812Y-101295518D01*
X93389502Y-101175820D01*
X93343630Y-101090000D01*
X94300199Y-101090000D01*
X94396928Y-101186729D01*
X94396928Y-102450000D01*
X94409188Y-102574482D01*
X94445498Y-102694180D01*
X94504463Y-102804494D01*
X94583815Y-102901185D01*
X94680506Y-102980537D01*
X94790820Y-103039502D01*
X94910518Y-103075812D01*
X95035000Y-103088072D01*
X96735000Y-103088072D01*
X96859482Y-103075812D01*
X96979180Y-103039502D01*
X97089494Y-102980537D01*
X97186185Y-102901185D01*
X97265537Y-102804494D01*
X97324502Y-102694180D01*
X97360812Y-102574482D01*
X97373072Y-102450000D01*
X97373072Y-100750000D01*
X97360812Y-100625518D01*
X97324502Y-100505820D01*
X97265537Y-100395506D01*
X97186185Y-100298815D01*
X97089494Y-100219463D01*
X96979180Y-100160498D01*
X96906620Y-100138487D01*
X96916107Y-100129000D01*
X99005596Y-100129000D01*
X99017856Y-100253482D01*
X99054166Y-100373180D01*
X99113131Y-100483494D01*
X99192483Y-100580185D01*
X99289174Y-100659537D01*
X99399488Y-100718502D01*
X99519186Y-100754812D01*
X99643668Y-100767072D01*
X100082918Y-100764000D01*
X100241668Y-100605250D01*
X100241668Y-99756000D01*
X99167418Y-99756000D01*
X99008668Y-99914750D01*
X99005596Y-100129000D01*
X96916107Y-100129000D01*
X97038475Y-100006632D01*
X97200990Y-99763411D01*
X97312932Y-99493158D01*
X97370000Y-99206260D01*
X97370000Y-98913740D01*
X97312932Y-98626842D01*
X97200990Y-98356589D01*
X97038475Y-98113368D01*
X96831632Y-97906525D01*
X96588411Y-97744010D01*
X96318158Y-97632068D01*
X96031260Y-97575000D01*
X95738740Y-97575000D01*
X95451842Y-97632068D01*
X95181589Y-97744010D01*
X94938368Y-97906525D01*
X94731525Y-98113368D01*
X94569010Y-98356589D01*
X94457068Y-98626842D01*
X94400000Y-98913740D01*
X94400000Y-99206260D01*
X94457068Y-99493158D01*
X94488897Y-99570000D01*
X93024802Y-99570000D01*
X91608804Y-98154003D01*
X91585001Y-98124999D01*
X91469276Y-98030026D01*
X91337247Y-97959454D01*
X91193986Y-97915997D01*
X91082333Y-97905000D01*
X91082322Y-97905000D01*
X91045000Y-97901324D01*
X91007678Y-97905000D01*
X90512087Y-97905000D01*
X90500812Y-97790518D01*
X90464502Y-97670820D01*
X90405537Y-97560506D01*
X90326185Y-97463815D01*
X90229494Y-97384463D01*
X90119180Y-97325498D01*
X89999482Y-97289188D01*
X89875000Y-97276928D01*
X87875000Y-97276928D01*
X87750518Y-97289188D01*
X87630820Y-97325498D01*
X87520506Y-97384463D01*
X87423815Y-97463815D01*
X87344463Y-97560506D01*
X87285498Y-97670820D01*
X87249188Y-97790518D01*
X87236928Y-97915000D01*
X87236928Y-98300000D01*
X87032325Y-98300000D01*
X86995000Y-98296324D01*
X86957675Y-98300000D01*
X86957667Y-98300000D01*
X86846014Y-98310997D01*
X86702753Y-98354454D01*
X86570724Y-98425026D01*
X86454999Y-98519999D01*
X86431201Y-98548997D01*
X84705998Y-100274201D01*
X84677000Y-100297999D01*
X84653202Y-100326997D01*
X84653201Y-100326998D01*
X84582026Y-100413724D01*
X84511454Y-100545754D01*
X84488251Y-100622247D01*
X84467998Y-100689014D01*
X84457001Y-100800667D01*
X84453324Y-100838000D01*
X84457001Y-100875332D01*
X84457000Y-108547678D01*
X84453324Y-108585000D01*
X84457000Y-108622322D01*
X84457000Y-108622332D01*
X84467997Y-108733985D01*
X84505695Y-108858260D01*
X84511454Y-108877246D01*
X84582026Y-109009276D01*
X84615863Y-109050506D01*
X84676999Y-109125001D01*
X84706003Y-109148804D01*
X86442790Y-110885592D01*
X86399000Y-111105740D01*
X86399000Y-111398260D01*
X86456068Y-111685158D01*
X86568010Y-111955411D01*
X86730525Y-112198632D01*
X86862380Y-112330487D01*
X86789820Y-112352498D01*
X86679506Y-112411463D01*
X86582815Y-112490815D01*
X86503463Y-112587506D01*
X86444498Y-112697820D01*
X86408188Y-112817518D01*
X86395928Y-112942000D01*
X86395928Y-114642000D01*
X86408188Y-114766482D01*
X86444498Y-114886180D01*
X86503463Y-114996494D01*
X86582815Y-115093185D01*
X86679506Y-115172537D01*
X86789820Y-115231502D01*
X86909518Y-115267812D01*
X87034000Y-115280072D01*
X88734000Y-115280072D01*
X88858482Y-115267812D01*
X88978180Y-115231502D01*
X89088494Y-115172537D01*
X89185185Y-115093185D01*
X89264537Y-114996494D01*
X89323502Y-114886180D01*
X89359812Y-114766482D01*
X89372072Y-114642000D01*
X89372072Y-113632729D01*
X91277002Y-111727800D01*
X91306000Y-111704002D01*
X91400973Y-111588277D01*
X91408928Y-111573394D01*
X91408928Y-111835770D01*
X90421003Y-112823696D01*
X90391999Y-112847499D01*
X90344810Y-112905000D01*
X90297026Y-112963224D01*
X90237014Y-113075498D01*
X90226454Y-113095254D01*
X90182997Y-113238515D01*
X90172000Y-113350168D01*
X90172000Y-113350178D01*
X90168324Y-113387500D01*
X90172000Y-113424823D01*
X90172001Y-116802668D01*
X90168324Y-116840000D01*
X90172001Y-116877333D01*
X90179553Y-116954003D01*
X90182998Y-116988985D01*
X90226454Y-117132246D01*
X90297026Y-117264276D01*
X90365737Y-117348000D01*
X90392000Y-117380001D01*
X90420998Y-117403799D01*
X91892205Y-118875008D01*
X91915999Y-118904001D01*
X91944992Y-118927795D01*
X91944996Y-118927799D01*
X92015685Y-118985811D01*
X92031724Y-118998974D01*
X92163753Y-119069546D01*
X92307014Y-119113003D01*
X92418667Y-119124000D01*
X92418676Y-119124000D01*
X92455999Y-119127676D01*
X92493322Y-119124000D01*
X93157199Y-119124000D01*
X93367194Y-119333995D01*
X93321606Y-119358363D01*
X93224915Y-119437715D01*
X93145563Y-119534406D01*
X93086598Y-119644720D01*
X93050288Y-119764418D01*
X93038028Y-119888900D01*
X93038028Y-121588900D01*
X93050288Y-121713382D01*
X93086598Y-121833080D01*
X93145563Y-121943394D01*
X93224915Y-122040085D01*
X93321606Y-122119437D01*
X93431920Y-122178402D01*
X93551618Y-122214712D01*
X93676100Y-122226972D01*
X95376100Y-122226972D01*
X95500582Y-122214712D01*
X95620280Y-122178402D01*
X95730594Y-122119437D01*
X95827285Y-122040085D01*
X95906637Y-121943394D01*
X95965602Y-121833080D01*
X95987613Y-121760520D01*
X96119468Y-121892375D01*
X96362689Y-122054890D01*
X96632942Y-122166832D01*
X96919840Y-122223900D01*
X97212360Y-122223900D01*
X97499258Y-122166832D01*
X97769511Y-122054890D01*
X98012732Y-121892375D01*
X98219575Y-121685532D01*
X98336100Y-121511140D01*
X98452625Y-121685532D01*
X98659468Y-121892375D01*
X98902689Y-122054890D01*
X99172942Y-122166832D01*
X99459840Y-122223900D01*
X99752360Y-122223900D01*
X100039258Y-122166832D01*
X100309511Y-122054890D01*
X100552732Y-121892375D01*
X100759575Y-121685532D01*
X100876100Y-121511140D01*
X100992625Y-121685532D01*
X101199468Y-121892375D01*
X101386101Y-122017079D01*
X101386101Y-122936768D01*
X101382424Y-122974100D01*
X101386101Y-123011433D01*
X101392893Y-123080387D01*
X101397098Y-123123085D01*
X101440554Y-123266346D01*
X101511126Y-123398376D01*
X101582301Y-123485102D01*
X101606100Y-123514101D01*
X101635098Y-123537899D01*
X102560205Y-124463008D01*
X102583999Y-124492001D01*
X102612992Y-124515795D01*
X102612996Y-124515799D01*
X102683685Y-124573811D01*
X102699724Y-124586974D01*
X102831753Y-124657546D01*
X102975014Y-124701003D01*
X103086667Y-124712000D01*
X103086676Y-124712000D01*
X103123999Y-124715676D01*
X103161322Y-124712000D01*
X114262678Y-124712000D01*
X114300000Y-124715676D01*
X114337322Y-124712000D01*
X114337333Y-124712000D01*
X114448986Y-124701003D01*
X114592247Y-124657546D01*
X114724276Y-124586974D01*
X114840001Y-124492001D01*
X114863803Y-124462998D01*
X115851730Y-123475072D01*
X116265002Y-123475072D01*
X116438256Y-123458008D01*
X116604852Y-123407472D01*
X116758387Y-123325405D01*
X116892962Y-123214962D01*
X117003405Y-123080387D01*
X117085472Y-122926852D01*
X117136008Y-122760256D01*
X117153072Y-122587002D01*
X117153072Y-122061998D01*
X117136008Y-121888744D01*
X117095147Y-121754042D01*
X132935000Y-121754042D01*
X132935000Y-122085958D01*
X132999754Y-122411496D01*
X133126772Y-122718147D01*
X133311175Y-122994125D01*
X133545875Y-123228825D01*
X133821853Y-123413228D01*
X134128504Y-123540246D01*
X134454042Y-123605000D01*
X134785958Y-123605000D01*
X135111496Y-123540246D01*
X135418147Y-123413228D01*
X135694125Y-123228825D01*
X135928825Y-122994125D01*
X136113228Y-122718147D01*
X136240246Y-122411496D01*
X136305000Y-122085958D01*
X136305000Y-121754042D01*
X136240246Y-121428504D01*
X136113228Y-121121853D01*
X135928825Y-120845875D01*
X135694125Y-120611175D01*
X135418147Y-120426772D01*
X135111496Y-120299754D01*
X134785958Y-120235000D01*
X134454042Y-120235000D01*
X134128504Y-120299754D01*
X133821853Y-120426772D01*
X133545875Y-120611175D01*
X133311175Y-120845875D01*
X133126772Y-121121853D01*
X132999754Y-121428504D01*
X132935000Y-121754042D01*
X117095147Y-121754042D01*
X117085472Y-121722148D01*
X117003405Y-121568613D01*
X116892962Y-121434038D01*
X116866109Y-121412000D01*
X116892962Y-121389962D01*
X117003405Y-121255387D01*
X117085472Y-121101852D01*
X117136008Y-120935256D01*
X117153072Y-120762002D01*
X117153072Y-120236998D01*
X117136008Y-120063744D01*
X117085472Y-119897148D01*
X117003405Y-119743613D01*
X116892962Y-119609038D01*
X116758387Y-119498595D01*
X116604852Y-119416528D01*
X116575000Y-119407473D01*
X116575000Y-116297163D01*
X116635000Y-116303072D01*
X117535000Y-116303072D01*
X117659482Y-116290812D01*
X117779180Y-116254502D01*
X117889494Y-116195537D01*
X117986185Y-116116185D01*
X118065537Y-116019494D01*
X118124502Y-115909180D01*
X118160812Y-115789482D01*
X118173072Y-115665000D01*
X118173072Y-113665000D01*
X118160812Y-113540518D01*
X118124502Y-113420820D01*
X118065537Y-113310506D01*
X117986185Y-113213815D01*
X117916956Y-113157000D01*
X118110000Y-113157000D01*
X118134776Y-113154560D01*
X118158601Y-113147333D01*
X118180557Y-113135597D01*
X118199803Y-113119803D01*
X118215597Y-113100557D01*
X118227333Y-113078601D01*
X118234560Y-113054776D01*
X118237000Y-113030000D01*
X118237000Y-112896499D01*
X118244188Y-112969482D01*
X118262546Y-113030000D01*
X118244188Y-113090518D01*
X118231928Y-113215000D01*
X118231928Y-114115000D01*
X118244188Y-114239482D01*
X118280498Y-114359180D01*
X118339463Y-114469494D01*
X118418815Y-114566185D01*
X118515506Y-114645537D01*
X118625820Y-114704502D01*
X118745518Y-114740812D01*
X118870000Y-114753072D01*
X120870000Y-114753072D01*
X120994482Y-114740812D01*
X121114180Y-114704502D01*
X121224494Y-114645537D01*
X121321185Y-114566185D01*
X121400537Y-114469494D01*
X121424320Y-114425000D01*
X121605199Y-114425000D01*
X123896205Y-116716008D01*
X123919999Y-116745001D01*
X123948992Y-116768795D01*
X123948996Y-116768799D01*
X123967764Y-116784201D01*
X124035724Y-116839974D01*
X124167753Y-116910546D01*
X124311014Y-116954003D01*
X124422667Y-116965000D01*
X124422676Y-116965000D01*
X124459999Y-116968676D01*
X124497322Y-116965000D01*
X128232678Y-116965000D01*
X128270000Y-116968676D01*
X128307322Y-116965000D01*
X128307333Y-116965000D01*
X128418986Y-116954003D01*
X128562247Y-116910546D01*
X128694276Y-116839974D01*
X128810001Y-116745001D01*
X128833804Y-116715997D01*
X130051003Y-115498799D01*
X130080001Y-115475001D01*
X130174974Y-115359276D01*
X130245546Y-115227247D01*
X130289003Y-115083986D01*
X130300000Y-114972333D01*
X130300000Y-114972324D01*
X130303676Y-114935001D01*
X130300000Y-114897678D01*
X130300000Y-113979801D01*
X131759802Y-112520000D01*
X132496928Y-112520000D01*
X132496928Y-112610000D01*
X132509188Y-112734482D01*
X132545498Y-112854180D01*
X132604463Y-112964494D01*
X132683815Y-113061185D01*
X132780506Y-113140537D01*
X132890820Y-113199502D01*
X132963380Y-113221513D01*
X132831525Y-113353368D01*
X132669010Y-113596589D01*
X132557068Y-113866842D01*
X132500000Y-114153740D01*
X132500000Y-114446260D01*
X132557068Y-114733158D01*
X132669010Y-115003411D01*
X132831525Y-115246632D01*
X133038368Y-115453475D01*
X133281589Y-115615990D01*
X133551842Y-115727932D01*
X133838740Y-115785000D01*
X134131260Y-115785000D01*
X134418158Y-115727932D01*
X134688411Y-115615990D01*
X134931632Y-115453475D01*
X135138475Y-115246632D01*
X135300990Y-115003411D01*
X135412932Y-114733158D01*
X135470000Y-114446260D01*
X135470000Y-114153740D01*
X135412932Y-113866842D01*
X135300990Y-113596589D01*
X135138475Y-113353368D01*
X135006620Y-113221513D01*
X135079180Y-113199502D01*
X135189494Y-113140537D01*
X135286185Y-113061185D01*
X135365537Y-112964494D01*
X135424502Y-112854180D01*
X135460812Y-112734482D01*
X135473072Y-112610000D01*
X135473072Y-110910000D01*
X135460812Y-110785518D01*
X135424502Y-110665820D01*
X135365537Y-110555506D01*
X135286185Y-110458815D01*
X135189494Y-110379463D01*
X135079180Y-110320498D01*
X134959482Y-110284188D01*
X134835000Y-110271928D01*
X133135000Y-110271928D01*
X133010518Y-110284188D01*
X132890820Y-110320498D01*
X132780506Y-110379463D01*
X132683815Y-110458815D01*
X132604463Y-110555506D01*
X132545498Y-110665820D01*
X132509188Y-110785518D01*
X132496928Y-110910000D01*
X132496928Y-111000000D01*
X131482323Y-111000000D01*
X131445000Y-110996324D01*
X131407677Y-111000000D01*
X131407667Y-111000000D01*
X131296014Y-111010997D01*
X131152753Y-111054454D01*
X131020724Y-111125026D01*
X130904999Y-111219999D01*
X130881201Y-111248997D01*
X129029003Y-113101196D01*
X128999999Y-113124999D01*
X128973715Y-113157027D01*
X128905026Y-113240724D01*
X128846527Y-113350167D01*
X128834454Y-113372754D01*
X128790997Y-113516015D01*
X128780000Y-113627668D01*
X128780000Y-113627678D01*
X128776324Y-113665000D01*
X128780000Y-113702323D01*
X128780001Y-114620197D01*
X127955199Y-115445000D01*
X124774803Y-115445000D01*
X122483804Y-113154003D01*
X122460001Y-113124999D01*
X122344276Y-113030026D01*
X122212247Y-112959454D01*
X122068986Y-112915997D01*
X121957333Y-112905000D01*
X121957322Y-112905000D01*
X121920000Y-112901324D01*
X121882678Y-112905000D01*
X121502163Y-112905000D01*
X121508072Y-112845000D01*
X121508072Y-111945000D01*
X121495812Y-111820518D01*
X121477454Y-111760000D01*
X121495812Y-111699482D01*
X121508072Y-111575000D01*
X121508072Y-110675000D01*
X121495812Y-110550518D01*
X121477454Y-110490000D01*
X121495812Y-110429482D01*
X121508072Y-110305000D01*
X121508072Y-109405000D01*
X121495812Y-109280518D01*
X121477454Y-109220000D01*
X121495812Y-109159482D01*
X121508072Y-109035000D01*
X121508072Y-108135000D01*
X121495812Y-108010518D01*
X121477454Y-107950000D01*
X121495812Y-107889482D01*
X121508072Y-107765000D01*
X121508072Y-106865000D01*
X121495812Y-106740518D01*
X121477454Y-106680000D01*
X121495812Y-106619482D01*
X121508072Y-106495000D01*
X121508072Y-105595000D01*
X121495812Y-105470518D01*
X121477454Y-105410000D01*
X121495812Y-105349482D01*
X121508072Y-105225000D01*
X121508072Y-104325000D01*
X121495812Y-104200518D01*
X121477454Y-104140000D01*
X121495812Y-104079482D01*
X121508072Y-103955000D01*
X121508072Y-103697873D01*
X123700000Y-105889802D01*
X123700000Y-106007678D01*
X123696324Y-106045000D01*
X123700000Y-106082322D01*
X123700000Y-106082333D01*
X123710997Y-106193986D01*
X123737089Y-106280000D01*
X123723061Y-106280000D01*
X123523102Y-106319774D01*
X123334744Y-106397795D01*
X123165226Y-106511063D01*
X123021063Y-106655226D01*
X122907795Y-106824744D01*
X122829774Y-107013102D01*
X122790000Y-107213061D01*
X122790000Y-107416939D01*
X122829774Y-107616898D01*
X122907795Y-107805256D01*
X123021063Y-107974774D01*
X123068428Y-108022139D01*
X123075997Y-108098986D01*
X123119454Y-108242247D01*
X123128505Y-108259180D01*
X123190026Y-108374276D01*
X123242931Y-108438740D01*
X123285000Y-108490001D01*
X123313998Y-108513799D01*
X125558790Y-110758592D01*
X125515000Y-110978740D01*
X125515000Y-111271260D01*
X125572068Y-111558158D01*
X125684010Y-111828411D01*
X125846525Y-112071632D01*
X126053368Y-112278475D01*
X126227760Y-112395000D01*
X126053368Y-112511525D01*
X125846525Y-112718368D01*
X125684010Y-112961589D01*
X125572068Y-113231842D01*
X125515000Y-113518740D01*
X125515000Y-113811260D01*
X125572068Y-114098158D01*
X125684010Y-114368411D01*
X125846525Y-114611632D01*
X126053368Y-114818475D01*
X126296589Y-114980990D01*
X126566842Y-115092932D01*
X126853740Y-115150000D01*
X127146260Y-115150000D01*
X127433158Y-115092932D01*
X127703411Y-114980990D01*
X127946632Y-114818475D01*
X128153475Y-114611632D01*
X128315990Y-114368411D01*
X128427932Y-114098158D01*
X128485000Y-113811260D01*
X128485000Y-113518740D01*
X128427932Y-113231842D01*
X128315990Y-112961589D01*
X128153475Y-112718368D01*
X127946632Y-112511525D01*
X127772240Y-112395000D01*
X127946632Y-112278475D01*
X128153475Y-112071632D01*
X128315990Y-111828411D01*
X128427932Y-111558158D01*
X128485000Y-111271260D01*
X128485000Y-110978740D01*
X128427932Y-110691842D01*
X128315990Y-110421589D01*
X128153475Y-110178368D01*
X127946632Y-109971525D01*
X127772240Y-109855000D01*
X127946632Y-109738475D01*
X128153475Y-109531632D01*
X128315990Y-109288411D01*
X128427932Y-109018158D01*
X128485000Y-108731260D01*
X128485000Y-108438740D01*
X128427932Y-108151842D01*
X128315990Y-107881589D01*
X128153475Y-107638368D01*
X127946632Y-107431525D01*
X127772240Y-107315000D01*
X127946632Y-107198475D01*
X128153475Y-106991632D01*
X128315990Y-106748411D01*
X128427932Y-106478158D01*
X128485000Y-106191260D01*
X128485000Y-105898740D01*
X128427932Y-105611842D01*
X128315990Y-105341589D01*
X128153475Y-105098368D01*
X127946632Y-104891525D01*
X127772240Y-104775000D01*
X127946632Y-104658475D01*
X128153475Y-104451632D01*
X128278178Y-104265000D01*
X129772501Y-104265000D01*
X129772500Y-106129970D01*
X129642038Y-106237038D01*
X129531595Y-106371613D01*
X129449528Y-106525148D01*
X129398992Y-106691744D01*
X129381928Y-106864998D01*
X129381928Y-107765002D01*
X129398992Y-107938256D01*
X129449528Y-108104852D01*
X129531595Y-108258387D01*
X129642038Y-108392962D01*
X129776613Y-108503405D01*
X129930148Y-108585472D01*
X130096744Y-108636008D01*
X130269998Y-108653072D01*
X130795002Y-108653072D01*
X130968256Y-108636008D01*
X131134852Y-108585472D01*
X131288387Y-108503405D01*
X131369637Y-108436724D01*
X131393815Y-108466185D01*
X131490506Y-108545537D01*
X131600820Y-108604502D01*
X131720518Y-108640812D01*
X131845000Y-108653072D01*
X132071750Y-108650000D01*
X132230500Y-108491250D01*
X132230500Y-107442000D01*
X132484500Y-107442000D01*
X132484500Y-108491250D01*
X132643250Y-108650000D01*
X132870000Y-108653072D01*
X132994482Y-108640812D01*
X133114180Y-108604502D01*
X133224494Y-108545537D01*
X133321185Y-108466185D01*
X133400537Y-108369494D01*
X133459502Y-108259180D01*
X133495812Y-108139482D01*
X133508072Y-108015000D01*
X133505000Y-107600750D01*
X133346250Y-107442000D01*
X132484500Y-107442000D01*
X132230500Y-107442000D01*
X132210500Y-107442000D01*
X132210500Y-107188000D01*
X132230500Y-107188000D01*
X132230500Y-106138750D01*
X132484500Y-106138750D01*
X132484500Y-107188000D01*
X133346250Y-107188000D01*
X133505000Y-107029250D01*
X133508072Y-106615000D01*
X133495812Y-106490518D01*
X133459502Y-106370820D01*
X133400537Y-106260506D01*
X133321185Y-106163815D01*
X133224494Y-106084463D01*
X133114180Y-106025498D01*
X132994482Y-105989188D01*
X132870000Y-105976928D01*
X132643250Y-105980000D01*
X132484500Y-106138750D01*
X132230500Y-106138750D01*
X132071750Y-105980000D01*
X131845000Y-105976928D01*
X131720518Y-105989188D01*
X131600820Y-106025498D01*
X131490506Y-106084463D01*
X131393815Y-106163815D01*
X131369637Y-106193276D01*
X131292500Y-106129970D01*
X131292500Y-104038995D01*
X131372962Y-103972962D01*
X131445000Y-103885183D01*
X131517038Y-103972962D01*
X131651614Y-104083405D01*
X131805150Y-104165472D01*
X131971746Y-104216008D01*
X132145000Y-104233072D01*
X132645000Y-104233072D01*
X132818254Y-104216008D01*
X132984850Y-104165472D01*
X133138386Y-104083405D01*
X133272962Y-103972962D01*
X133383405Y-103838386D01*
X133465472Y-103684850D01*
X133516008Y-103518254D01*
X133533072Y-103345000D01*
X133533072Y-102395000D01*
X133516008Y-102221746D01*
X133465472Y-102055150D01*
X133383405Y-101901614D01*
X133272962Y-101767038D01*
X133138386Y-101656595D01*
X132984850Y-101574528D01*
X132818254Y-101523992D01*
X132645000Y-101506928D01*
X132145000Y-101506928D01*
X132110162Y-101510359D01*
X130469693Y-99869892D01*
X130457205Y-99839744D01*
X130343937Y-99670226D01*
X130199774Y-99526063D01*
X130030256Y-99412795D01*
X129841898Y-99334774D01*
X129641939Y-99295000D01*
X129438061Y-99295000D01*
X129238102Y-99334774D01*
X129049744Y-99412795D01*
X128880226Y-99526063D01*
X128736063Y-99670226D01*
X128622795Y-99839744D01*
X128544774Y-100028102D01*
X128505000Y-100228061D01*
X128505000Y-100431939D01*
X128544774Y-100631898D01*
X128622795Y-100820256D01*
X128736063Y-100989774D01*
X128880226Y-101133937D01*
X129049744Y-101247205D01*
X129238102Y-101325226D01*
X129438061Y-101365000D01*
X129641939Y-101365000D01*
X129786453Y-101336255D01*
X129996896Y-101546697D01*
X129905150Y-101574528D01*
X129751614Y-101656595D01*
X129617038Y-101767038D01*
X129506595Y-101901614D01*
X129424528Y-102055150D01*
X129373992Y-102221746D01*
X129356928Y-102395000D01*
X129356928Y-102745000D01*
X128278178Y-102745000D01*
X128153475Y-102558368D01*
X128021620Y-102426513D01*
X128094180Y-102404502D01*
X128204494Y-102345537D01*
X128301185Y-102266185D01*
X128380537Y-102169494D01*
X128439502Y-102059180D01*
X128475812Y-101939482D01*
X128488072Y-101815000D01*
X128488072Y-100115000D01*
X128475812Y-99990518D01*
X128439502Y-99870820D01*
X128380537Y-99760506D01*
X128301185Y-99663815D01*
X128204494Y-99584463D01*
X128094180Y-99525498D01*
X127974482Y-99489188D01*
X127850000Y-99476928D01*
X126150000Y-99476928D01*
X126025518Y-99489188D01*
X125905820Y-99525498D01*
X125795506Y-99584463D01*
X125698815Y-99663815D01*
X125619463Y-99760506D01*
X125560498Y-99870820D01*
X125524188Y-99990518D01*
X125511928Y-100115000D01*
X125511928Y-101815000D01*
X125524188Y-101939482D01*
X125560498Y-102059180D01*
X125619463Y-102169494D01*
X125698815Y-102266185D01*
X125795506Y-102345537D01*
X125905820Y-102404502D01*
X125978380Y-102426513D01*
X125846525Y-102558368D01*
X125684010Y-102801589D01*
X125572068Y-103071842D01*
X125515000Y-103358740D01*
X125515000Y-103651260D01*
X125572068Y-103938158D01*
X125684010Y-104208411D01*
X125846525Y-104451632D01*
X126053368Y-104658475D01*
X126227760Y-104775000D01*
X126053368Y-104891525D01*
X125846525Y-105098368D01*
X125684010Y-105341589D01*
X125572068Y-105611842D01*
X125515000Y-105898740D01*
X125515000Y-106025199D01*
X125220000Y-105730199D01*
X125220000Y-105612322D01*
X125223676Y-105574999D01*
X125220000Y-105537676D01*
X125220000Y-105537667D01*
X125209003Y-105426014D01*
X125165546Y-105282753D01*
X125094974Y-105150724D01*
X125000001Y-105034999D01*
X124971004Y-105011202D01*
X124355270Y-104395468D01*
X124484774Y-104308937D01*
X124628937Y-104164774D01*
X124742205Y-103995256D01*
X124820226Y-103806898D01*
X124860000Y-103606939D01*
X124860000Y-103403061D01*
X124820226Y-103203102D01*
X124742205Y-103014744D01*
X124628937Y-102845226D01*
X124484774Y-102701063D01*
X124315256Y-102587795D01*
X124126898Y-102509774D01*
X123926939Y-102470000D01*
X123864803Y-102470000D01*
X121848804Y-100454003D01*
X121825001Y-100424999D01*
X121709276Y-100330026D01*
X121577247Y-100259454D01*
X121499133Y-100235759D01*
X121508072Y-100145000D01*
X121508072Y-99245000D01*
X121495812Y-99120518D01*
X121477454Y-99060000D01*
X121495812Y-98999482D01*
X121508072Y-98875000D01*
X121508072Y-97975000D01*
X121495812Y-97850518D01*
X121477454Y-97790000D01*
X121495812Y-97729482D01*
X121508072Y-97605000D01*
X121508072Y-97205000D01*
X137745000Y-97205000D01*
X137745001Y-126315000D01*
X80695000Y-126315000D01*
X80695000Y-121754042D01*
X82135000Y-121754042D01*
X82135000Y-122085958D01*
X82199754Y-122411496D01*
X82326772Y-122718147D01*
X82511175Y-122994125D01*
X82745875Y-123228825D01*
X83021853Y-123413228D01*
X83328504Y-123540246D01*
X83654042Y-123605000D01*
X83985958Y-123605000D01*
X84311496Y-123540246D01*
X84618147Y-123413228D01*
X84894125Y-123228825D01*
X85128825Y-122994125D01*
X85313228Y-122718147D01*
X85440246Y-122411496D01*
X85505000Y-122085958D01*
X85505000Y-121754042D01*
X85440246Y-121428504D01*
X85313228Y-121121853D01*
X85128825Y-120845875D01*
X84894125Y-120611175D01*
X84618147Y-120426772D01*
X84311496Y-120299754D01*
X83985958Y-120235000D01*
X83654042Y-120235000D01*
X83328504Y-120299754D01*
X83021853Y-120426772D01*
X82745875Y-120611175D01*
X82511175Y-120845875D01*
X82326772Y-121121853D01*
X82199754Y-121428504D01*
X82135000Y-121754042D01*
X80695000Y-121754042D01*
X80695000Y-102865000D01*
X80936928Y-102865000D01*
X80949188Y-102989482D01*
X80985498Y-103109180D01*
X81044463Y-103219494D01*
X81123815Y-103316185D01*
X81220506Y-103395537D01*
X81330820Y-103454502D01*
X81450518Y-103490812D01*
X81575000Y-103503072D01*
X82289250Y-103500000D01*
X82448000Y-103341250D01*
X82448000Y-101092000D01*
X82702000Y-101092000D01*
X82702000Y-103341250D01*
X82860750Y-103500000D01*
X83575000Y-103503072D01*
X83699482Y-103490812D01*
X83819180Y-103454502D01*
X83929494Y-103395537D01*
X84026185Y-103316185D01*
X84105537Y-103219494D01*
X84164502Y-103109180D01*
X84200812Y-102989482D01*
X84213072Y-102865000D01*
X84210000Y-101250750D01*
X84051250Y-101092000D01*
X82702000Y-101092000D01*
X82448000Y-101092000D01*
X81098750Y-101092000D01*
X80940000Y-101250750D01*
X80936928Y-102865000D01*
X80695000Y-102865000D01*
X80695000Y-99065000D01*
X80936928Y-99065000D01*
X80940000Y-100679250D01*
X81098750Y-100838000D01*
X82448000Y-100838000D01*
X82448000Y-98588750D01*
X82702000Y-98588750D01*
X82702000Y-100838000D01*
X84051250Y-100838000D01*
X84210000Y-100679250D01*
X84213072Y-99065000D01*
X84200812Y-98940518D01*
X84164502Y-98820820D01*
X84105537Y-98710506D01*
X84026185Y-98613815D01*
X83929494Y-98534463D01*
X83819180Y-98475498D01*
X83699482Y-98439188D01*
X83575000Y-98426928D01*
X82860750Y-98430000D01*
X82702000Y-98588750D01*
X82448000Y-98588750D01*
X82289250Y-98430000D01*
X81575000Y-98426928D01*
X81450518Y-98439188D01*
X81330820Y-98475498D01*
X81220506Y-98534463D01*
X81123815Y-98613815D01*
X81044463Y-98710506D01*
X80985498Y-98820820D01*
X80949188Y-98940518D01*
X80936928Y-99065000D01*
X80695000Y-99065000D01*
X80695000Y-97205000D01*
X97571101Y-97205000D01*
X97507795Y-97299744D01*
G04 #@! TA.AperFunction,Conductor*
D20*
G36*
X97507795Y-97299744D02*
G01*
X97429774Y-97488102D01*
X97390000Y-97688061D01*
X97390000Y-97891939D01*
X97429774Y-98091898D01*
X97507795Y-98280256D01*
X97621063Y-98449774D01*
X97765226Y-98593937D01*
X97934744Y-98707205D01*
X98123102Y-98785226D01*
X98323061Y-98825000D01*
X98526939Y-98825000D01*
X98726898Y-98785226D01*
X98915256Y-98707205D01*
X99084774Y-98593937D01*
X99178279Y-98500432D01*
X99265706Y-98606962D01*
X99272262Y-98612342D01*
X99192483Y-98677815D01*
X99113131Y-98774506D01*
X99054166Y-98884820D01*
X99017856Y-99004518D01*
X99005596Y-99129000D01*
X99008668Y-99343250D01*
X99167418Y-99502000D01*
X100241668Y-99502000D01*
X100241668Y-99482000D01*
X100495668Y-99482000D01*
X100495668Y-99502000D01*
X100515668Y-99502000D01*
X100515668Y-99756000D01*
X100495668Y-99756000D01*
X100495668Y-100605250D01*
X100654418Y-100764000D01*
X101093668Y-100767072D01*
X101218150Y-100754812D01*
X101231928Y-100750632D01*
X101231928Y-101415000D01*
X101244188Y-101539482D01*
X101262546Y-101599999D01*
X101244188Y-101660518D01*
X101231928Y-101785000D01*
X101231928Y-102685000D01*
X101244188Y-102809482D01*
X101262546Y-102869999D01*
X101244188Y-102930518D01*
X101231928Y-103055000D01*
X101231928Y-103955000D01*
X101244188Y-104079482D01*
X101262546Y-104140000D01*
X101244188Y-104200518D01*
X101231928Y-104325000D01*
X101231928Y-105225000D01*
X101244188Y-105349482D01*
X101262546Y-105410000D01*
X101244188Y-105470518D01*
X101231928Y-105595000D01*
X101231928Y-106495000D01*
X101237837Y-106555000D01*
X100937202Y-106555000D01*
X100865905Y-106421613D01*
X100755462Y-106287038D01*
X100620887Y-106176595D01*
X100467351Y-106094528D01*
X100300755Y-106043992D01*
X100127501Y-106026928D01*
X99302499Y-106026928D01*
X99129245Y-106043992D01*
X98962649Y-106094528D01*
X98809113Y-106176595D01*
X98752500Y-106223056D01*
X98695887Y-106176595D01*
X98542351Y-106094528D01*
X98375755Y-106043992D01*
X98202501Y-106026928D01*
X97377499Y-106026928D01*
X97204245Y-106043992D01*
X97037649Y-106094528D01*
X96884113Y-106176595D01*
X96749538Y-106287038D01*
X96639095Y-106421613D01*
X96575083Y-106541372D01*
X96544774Y-106511063D01*
X96375256Y-106397795D01*
X96186898Y-106319774D01*
X95986939Y-106280000D01*
X95783061Y-106280000D01*
X95583102Y-106319774D01*
X95394744Y-106397795D01*
X95225226Y-106511063D01*
X95081063Y-106655226D01*
X94967795Y-106824744D01*
X94889774Y-107013102D01*
X94850000Y-107213061D01*
X94850000Y-107416939D01*
X94889774Y-107616898D01*
X94967795Y-107805256D01*
X95081063Y-107974774D01*
X95225226Y-108118937D01*
X95394744Y-108232205D01*
X95583102Y-108310226D01*
X95783061Y-108350000D01*
X95986939Y-108350000D01*
X96186898Y-108310226D01*
X96375256Y-108232205D01*
X96544774Y-108118937D01*
X96575083Y-108088628D01*
X96639095Y-108208387D01*
X96749538Y-108342962D01*
X96884113Y-108453405D01*
X97037649Y-108535472D01*
X97204245Y-108586008D01*
X97377499Y-108603072D01*
X98202501Y-108603072D01*
X98375755Y-108586008D01*
X98542351Y-108535472D01*
X98695887Y-108453405D01*
X98752500Y-108406944D01*
X98809113Y-108453405D01*
X98962649Y-108535472D01*
X99129245Y-108586008D01*
X99302499Y-108603072D01*
X100127501Y-108603072D01*
X100300755Y-108586008D01*
X100467351Y-108535472D01*
X100620887Y-108453405D01*
X100755462Y-108342962D01*
X100865905Y-108208387D01*
X100937202Y-108075000D01*
X101237837Y-108075000D01*
X101231928Y-108135000D01*
X101231928Y-109035000D01*
X101244188Y-109159482D01*
X101262546Y-109220000D01*
X101244188Y-109280518D01*
X101231928Y-109405000D01*
X101231928Y-110305000D01*
X101244188Y-110429482D01*
X101262546Y-110490000D01*
X101244188Y-110550518D01*
X101231928Y-110675000D01*
X101231928Y-111575000D01*
X101240339Y-111660400D01*
X100980082Y-111660400D01*
X100568683Y-111249002D01*
X100544881Y-111219999D01*
X100429156Y-111125026D01*
X100297127Y-111054454D01*
X100153866Y-111010997D01*
X100042213Y-111000000D01*
X100042202Y-111000000D01*
X100004880Y-110996324D01*
X99967558Y-111000000D01*
X95476527Y-111000000D01*
X95467472Y-110970148D01*
X95385405Y-110816613D01*
X95274962Y-110682038D01*
X95140387Y-110571595D01*
X95046968Y-110521661D01*
X95019474Y-110470224D01*
X94948299Y-110383497D01*
X94924501Y-110354499D01*
X94895503Y-110330701D01*
X93273804Y-108709003D01*
X93250001Y-108679999D01*
X93134276Y-108585026D01*
X93002247Y-108514454D01*
X92858986Y-108470997D01*
X92747333Y-108460000D01*
X92747322Y-108460000D01*
X92710000Y-108456324D01*
X92672678Y-108460000D01*
X91985323Y-108460000D01*
X91948000Y-108456324D01*
X91910677Y-108460000D01*
X91910667Y-108460000D01*
X91799014Y-108470997D01*
X91655753Y-108514454D01*
X91523724Y-108585026D01*
X91407999Y-108679999D01*
X91384201Y-108708997D01*
X90255002Y-109838197D01*
X90225998Y-109862000D01*
X90173848Y-109925546D01*
X90131025Y-109977725D01*
X90104158Y-110027990D01*
X90060453Y-110109755D01*
X90016996Y-110253016D01*
X90005999Y-110364669D01*
X90005999Y-110364679D01*
X90002323Y-110402001D01*
X90005999Y-110439323D01*
X90005999Y-110849199D01*
X89347164Y-111508034D01*
X89369000Y-111398260D01*
X89369000Y-111105740D01*
X89311932Y-110818842D01*
X89199990Y-110548589D01*
X89037475Y-110305368D01*
X88830632Y-110098525D01*
X88656240Y-109982000D01*
X88830632Y-109865475D01*
X89037475Y-109658632D01*
X89199990Y-109415411D01*
X89311932Y-109145158D01*
X89369000Y-108858260D01*
X89369000Y-108565740D01*
X89311932Y-108278842D01*
X89199990Y-108008589D01*
X89037475Y-107765368D01*
X88830632Y-107558525D01*
X88587411Y-107396010D01*
X88317158Y-107284068D01*
X88030260Y-107227000D01*
X87737740Y-107227000D01*
X87450842Y-107284068D01*
X87180589Y-107396010D01*
X86937368Y-107558525D01*
X86730525Y-107765368D01*
X86568010Y-108008589D01*
X86456068Y-108278842D01*
X86399000Y-108565740D01*
X86399000Y-108692199D01*
X85977000Y-108270199D01*
X85977000Y-101715000D01*
X87236928Y-101715000D01*
X87249188Y-101839482D01*
X87285498Y-101959180D01*
X87344463Y-102069494D01*
X87381809Y-102115000D01*
X87344463Y-102160506D01*
X87285498Y-102270820D01*
X87249188Y-102390518D01*
X87236928Y-102515000D01*
X87236928Y-104015000D01*
X87249188Y-104139482D01*
X87285498Y-104259180D01*
X87344463Y-104369494D01*
X87423815Y-104466185D01*
X87520506Y-104545537D01*
X87630820Y-104604502D01*
X87750518Y-104640812D01*
X87875000Y-104653072D01*
X89875000Y-104653072D01*
X89999482Y-104640812D01*
X90119180Y-104604502D01*
X90229494Y-104545537D01*
X90326185Y-104466185D01*
X90405537Y-104369494D01*
X90464502Y-104259180D01*
X90500812Y-104139482D01*
X90512087Y-104025000D01*
X90711928Y-104025000D01*
X90711928Y-104070000D01*
X90728992Y-104243254D01*
X90779528Y-104409850D01*
X90861595Y-104563386D01*
X90972038Y-104697962D01*
X91106614Y-104808405D01*
X91199143Y-104857863D01*
X91157795Y-104919744D01*
X91079774Y-105108102D01*
X91040000Y-105308061D01*
X91040000Y-105511939D01*
X91079774Y-105711898D01*
X91157795Y-105900256D01*
X91271063Y-106069774D01*
X91415226Y-106213937D01*
X91584744Y-106327205D01*
X91773102Y-106405226D01*
X91973061Y-106445000D01*
X92176939Y-106445000D01*
X92376898Y-106405226D01*
X92565256Y-106327205D01*
X92734774Y-106213937D01*
X92878937Y-106069774D01*
X92992205Y-105900256D01*
X93070226Y-105711898D01*
X93110000Y-105511939D01*
X93110000Y-105308061D01*
X93070226Y-105108102D01*
X92992205Y-104919744D01*
X92950857Y-104857863D01*
X93043386Y-104808405D01*
X93177962Y-104697962D01*
X93288405Y-104563386D01*
X93370472Y-104409850D01*
X93421008Y-104243254D01*
X93438072Y-104070000D01*
X93438072Y-103570000D01*
X93421008Y-103396746D01*
X93370472Y-103230150D01*
X93288405Y-103076614D01*
X93177962Y-102942038D01*
X93171406Y-102936658D01*
X93251185Y-102871185D01*
X93330537Y-102774494D01*
X93389502Y-102664180D01*
X93425812Y-102544482D01*
X93438072Y-102420000D01*
X93435000Y-102205750D01*
X93276250Y-102047000D01*
X92202000Y-102047000D01*
X92202000Y-102067000D01*
X91948000Y-102067000D01*
X91948000Y-102047000D01*
X90873750Y-102047000D01*
X90715000Y-102205750D01*
X90711928Y-102420000D01*
X90720299Y-102505000D01*
X90512087Y-102505000D01*
X90500812Y-102390518D01*
X90464502Y-102270820D01*
X90405537Y-102160506D01*
X90368191Y-102115000D01*
X90405537Y-102069494D01*
X90464502Y-101959180D01*
X90500812Y-101839482D01*
X90513072Y-101715000D01*
X90511120Y-101420000D01*
X90711928Y-101420000D01*
X90715000Y-101634250D01*
X90873750Y-101793000D01*
X91948000Y-101793000D01*
X91948000Y-100943750D01*
X91789250Y-100785000D01*
X91350000Y-100781928D01*
X91225518Y-100794188D01*
X91105820Y-100830498D01*
X90995506Y-100889463D01*
X90898815Y-100968815D01*
X90819463Y-101065506D01*
X90760498Y-101175820D01*
X90724188Y-101295518D01*
X90711928Y-101420000D01*
X90511120Y-101420000D01*
X90510000Y-101250750D01*
X90351250Y-101092000D01*
X89002000Y-101092000D01*
X89002000Y-101112000D01*
X88748000Y-101112000D01*
X88748000Y-101092000D01*
X87398750Y-101092000D01*
X87240000Y-101250750D01*
X87236928Y-101715000D01*
X85977000Y-101715000D01*
X85977000Y-101152801D01*
X87309802Y-99820000D01*
X87377705Y-99820000D01*
X87344463Y-99860506D01*
X87285498Y-99970820D01*
X87249188Y-100090518D01*
X87236928Y-100215000D01*
X87240000Y-100679250D01*
X87398750Y-100838000D01*
X88748000Y-100838000D01*
X88748000Y-100818000D01*
X89002000Y-100818000D01*
X89002000Y-100838000D01*
X90351250Y-100838000D01*
X90510000Y-100679250D01*
X90513072Y-100215000D01*
X90500812Y-100090518D01*
X90464502Y-99970820D01*
X90405537Y-99860506D01*
X90368191Y-99815000D01*
X90405537Y-99769494D01*
X90464502Y-99659180D01*
X90500812Y-99539482D01*
X90512087Y-99425000D01*
X90730199Y-99425000D01*
X92146200Y-100841002D01*
X92169999Y-100870001D01*
X92228082Y-100917668D01*
X92202000Y-100943750D01*
X92202000Y-101793000D01*
X93276250Y-101793000D01*
X93435000Y-101634250D01*
X93438072Y-101420000D01*
X93425812Y-101295518D01*
X93389502Y-101175820D01*
X93343630Y-101090000D01*
X94300199Y-101090000D01*
X94396928Y-101186729D01*
X94396928Y-102450000D01*
X94409188Y-102574482D01*
X94445498Y-102694180D01*
X94504463Y-102804494D01*
X94583815Y-102901185D01*
X94680506Y-102980537D01*
X94790820Y-103039502D01*
X94910518Y-103075812D01*
X95035000Y-103088072D01*
X96735000Y-103088072D01*
X96859482Y-103075812D01*
X96979180Y-103039502D01*
X97089494Y-102980537D01*
X97186185Y-102901185D01*
X97265537Y-102804494D01*
X97324502Y-102694180D01*
X97360812Y-102574482D01*
X97373072Y-102450000D01*
X97373072Y-100750000D01*
X97360812Y-100625518D01*
X97324502Y-100505820D01*
X97265537Y-100395506D01*
X97186185Y-100298815D01*
X97089494Y-100219463D01*
X96979180Y-100160498D01*
X96906620Y-100138487D01*
X96916107Y-100129000D01*
X99005596Y-100129000D01*
X99017856Y-100253482D01*
X99054166Y-100373180D01*
X99113131Y-100483494D01*
X99192483Y-100580185D01*
X99289174Y-100659537D01*
X99399488Y-100718502D01*
X99519186Y-100754812D01*
X99643668Y-100767072D01*
X100082918Y-100764000D01*
X100241668Y-100605250D01*
X100241668Y-99756000D01*
X99167418Y-99756000D01*
X99008668Y-99914750D01*
X99005596Y-100129000D01*
X96916107Y-100129000D01*
X97038475Y-100006632D01*
X97200990Y-99763411D01*
X97312932Y-99493158D01*
X97370000Y-99206260D01*
X97370000Y-98913740D01*
X97312932Y-98626842D01*
X97200990Y-98356589D01*
X97038475Y-98113368D01*
X96831632Y-97906525D01*
X96588411Y-97744010D01*
X96318158Y-97632068D01*
X96031260Y-97575000D01*
X95738740Y-97575000D01*
X95451842Y-97632068D01*
X95181589Y-97744010D01*
X94938368Y-97906525D01*
X94731525Y-98113368D01*
X94569010Y-98356589D01*
X94457068Y-98626842D01*
X94400000Y-98913740D01*
X94400000Y-99206260D01*
X94457068Y-99493158D01*
X94488897Y-99570000D01*
X93024802Y-99570000D01*
X91608804Y-98154003D01*
X91585001Y-98124999D01*
X91469276Y-98030026D01*
X91337247Y-97959454D01*
X91193986Y-97915997D01*
X91082333Y-97905000D01*
X91082322Y-97905000D01*
X91045000Y-97901324D01*
X91007678Y-97905000D01*
X90512087Y-97905000D01*
X90500812Y-97790518D01*
X90464502Y-97670820D01*
X90405537Y-97560506D01*
X90326185Y-97463815D01*
X90229494Y-97384463D01*
X90119180Y-97325498D01*
X89999482Y-97289188D01*
X89875000Y-97276928D01*
X87875000Y-97276928D01*
X87750518Y-97289188D01*
X87630820Y-97325498D01*
X87520506Y-97384463D01*
X87423815Y-97463815D01*
X87344463Y-97560506D01*
X87285498Y-97670820D01*
X87249188Y-97790518D01*
X87236928Y-97915000D01*
X87236928Y-98300000D01*
X87032325Y-98300000D01*
X86995000Y-98296324D01*
X86957675Y-98300000D01*
X86957667Y-98300000D01*
X86846014Y-98310997D01*
X86702753Y-98354454D01*
X86570724Y-98425026D01*
X86454999Y-98519999D01*
X86431201Y-98548997D01*
X84705998Y-100274201D01*
X84677000Y-100297999D01*
X84653202Y-100326997D01*
X84653201Y-100326998D01*
X84582026Y-100413724D01*
X84511454Y-100545754D01*
X84488251Y-100622247D01*
X84467998Y-100689014D01*
X84457001Y-100800667D01*
X84453324Y-100838000D01*
X84457001Y-100875332D01*
X84457000Y-108547678D01*
X84453324Y-108585000D01*
X84457000Y-108622322D01*
X84457000Y-108622332D01*
X84467997Y-108733985D01*
X84505695Y-108858260D01*
X84511454Y-108877246D01*
X84582026Y-109009276D01*
X84615863Y-109050506D01*
X84676999Y-109125001D01*
X84706003Y-109148804D01*
X86442790Y-110885592D01*
X86399000Y-111105740D01*
X86399000Y-111398260D01*
X86456068Y-111685158D01*
X86568010Y-111955411D01*
X86730525Y-112198632D01*
X86862380Y-112330487D01*
X86789820Y-112352498D01*
X86679506Y-112411463D01*
X86582815Y-112490815D01*
X86503463Y-112587506D01*
X86444498Y-112697820D01*
X86408188Y-112817518D01*
X86395928Y-112942000D01*
X86395928Y-114642000D01*
X86408188Y-114766482D01*
X86444498Y-114886180D01*
X86503463Y-114996494D01*
X86582815Y-115093185D01*
X86679506Y-115172537D01*
X86789820Y-115231502D01*
X86909518Y-115267812D01*
X87034000Y-115280072D01*
X88734000Y-115280072D01*
X88858482Y-115267812D01*
X88978180Y-115231502D01*
X89088494Y-115172537D01*
X89185185Y-115093185D01*
X89264537Y-114996494D01*
X89323502Y-114886180D01*
X89359812Y-114766482D01*
X89372072Y-114642000D01*
X89372072Y-113632729D01*
X91277002Y-111727800D01*
X91306000Y-111704002D01*
X91400973Y-111588277D01*
X91408928Y-111573394D01*
X91408928Y-111835770D01*
X90421003Y-112823696D01*
X90391999Y-112847499D01*
X90344810Y-112905000D01*
X90297026Y-112963224D01*
X90237014Y-113075498D01*
X90226454Y-113095254D01*
X90182997Y-113238515D01*
X90172000Y-113350168D01*
X90172000Y-113350178D01*
X90168324Y-113387500D01*
X90172000Y-113424823D01*
X90172001Y-116802668D01*
X90168324Y-116840000D01*
X90172001Y-116877333D01*
X90179553Y-116954003D01*
X90182998Y-116988985D01*
X90226454Y-117132246D01*
X90297026Y-117264276D01*
X90365737Y-117348000D01*
X90392000Y-117380001D01*
X90420998Y-117403799D01*
X91892205Y-118875008D01*
X91915999Y-118904001D01*
X91944992Y-118927795D01*
X91944996Y-118927799D01*
X92015685Y-118985811D01*
X92031724Y-118998974D01*
X92163753Y-119069546D01*
X92307014Y-119113003D01*
X92418667Y-119124000D01*
X92418676Y-119124000D01*
X92455999Y-119127676D01*
X92493322Y-119124000D01*
X93157199Y-119124000D01*
X93367194Y-119333995D01*
X93321606Y-119358363D01*
X93224915Y-119437715D01*
X93145563Y-119534406D01*
X93086598Y-119644720D01*
X93050288Y-119764418D01*
X93038028Y-119888900D01*
X93038028Y-121588900D01*
X93050288Y-121713382D01*
X93086598Y-121833080D01*
X93145563Y-121943394D01*
X93224915Y-122040085D01*
X93321606Y-122119437D01*
X93431920Y-122178402D01*
X93551618Y-122214712D01*
X93676100Y-122226972D01*
X95376100Y-122226972D01*
X95500582Y-122214712D01*
X95620280Y-122178402D01*
X95730594Y-122119437D01*
X95827285Y-122040085D01*
X95906637Y-121943394D01*
X95965602Y-121833080D01*
X95987613Y-121760520D01*
X96119468Y-121892375D01*
X96362689Y-122054890D01*
X96632942Y-122166832D01*
X96919840Y-122223900D01*
X97212360Y-122223900D01*
X97499258Y-122166832D01*
X97769511Y-122054890D01*
X98012732Y-121892375D01*
X98219575Y-121685532D01*
X98336100Y-121511140D01*
X98452625Y-121685532D01*
X98659468Y-121892375D01*
X98902689Y-122054890D01*
X99172942Y-122166832D01*
X99459840Y-122223900D01*
X99752360Y-122223900D01*
X100039258Y-122166832D01*
X100309511Y-122054890D01*
X100552732Y-121892375D01*
X100759575Y-121685532D01*
X100876100Y-121511140D01*
X100992625Y-121685532D01*
X101199468Y-121892375D01*
X101386101Y-122017079D01*
X101386101Y-122936768D01*
X101382424Y-122974100D01*
X101386101Y-123011433D01*
X101392893Y-123080387D01*
X101397098Y-123123085D01*
X101440554Y-123266346D01*
X101511126Y-123398376D01*
X101582301Y-123485102D01*
X101606100Y-123514101D01*
X101635098Y-123537899D01*
X102560205Y-124463008D01*
X102583999Y-124492001D01*
X102612992Y-124515795D01*
X102612996Y-124515799D01*
X102683685Y-124573811D01*
X102699724Y-124586974D01*
X102831753Y-124657546D01*
X102975014Y-124701003D01*
X103086667Y-124712000D01*
X103086676Y-124712000D01*
X103123999Y-124715676D01*
X103161322Y-124712000D01*
X114262678Y-124712000D01*
X114300000Y-124715676D01*
X114337322Y-124712000D01*
X114337333Y-124712000D01*
X114448986Y-124701003D01*
X114592247Y-124657546D01*
X114724276Y-124586974D01*
X114840001Y-124492001D01*
X114863803Y-124462998D01*
X115851730Y-123475072D01*
X116265002Y-123475072D01*
X116438256Y-123458008D01*
X116604852Y-123407472D01*
X116758387Y-123325405D01*
X116892962Y-123214962D01*
X117003405Y-123080387D01*
X117085472Y-122926852D01*
X117136008Y-122760256D01*
X117153072Y-122587002D01*
X117153072Y-122061998D01*
X117136008Y-121888744D01*
X117095147Y-121754042D01*
X132935000Y-121754042D01*
X132935000Y-122085958D01*
X132999754Y-122411496D01*
X133126772Y-122718147D01*
X133311175Y-122994125D01*
X133545875Y-123228825D01*
X133821853Y-123413228D01*
X134128504Y-123540246D01*
X134454042Y-123605000D01*
X134785958Y-123605000D01*
X135111496Y-123540246D01*
X135418147Y-123413228D01*
X135694125Y-123228825D01*
X135928825Y-122994125D01*
X136113228Y-122718147D01*
X136240246Y-122411496D01*
X136305000Y-122085958D01*
X136305000Y-121754042D01*
X136240246Y-121428504D01*
X136113228Y-121121853D01*
X135928825Y-120845875D01*
X135694125Y-120611175D01*
X135418147Y-120426772D01*
X135111496Y-120299754D01*
X134785958Y-120235000D01*
X134454042Y-120235000D01*
X134128504Y-120299754D01*
X133821853Y-120426772D01*
X133545875Y-120611175D01*
X133311175Y-120845875D01*
X133126772Y-121121853D01*
X132999754Y-121428504D01*
X132935000Y-121754042D01*
X117095147Y-121754042D01*
X117085472Y-121722148D01*
X117003405Y-121568613D01*
X116892962Y-121434038D01*
X116866109Y-121412000D01*
X116892962Y-121389962D01*
X117003405Y-121255387D01*
X117085472Y-121101852D01*
X117136008Y-120935256D01*
X117153072Y-120762002D01*
X117153072Y-120236998D01*
X117136008Y-120063744D01*
X117085472Y-119897148D01*
X117003405Y-119743613D01*
X116892962Y-119609038D01*
X116758387Y-119498595D01*
X116604852Y-119416528D01*
X116575000Y-119407473D01*
X116575000Y-116297163D01*
X116635000Y-116303072D01*
X117535000Y-116303072D01*
X117659482Y-116290812D01*
X117779180Y-116254502D01*
X117889494Y-116195537D01*
X117986185Y-116116185D01*
X118065537Y-116019494D01*
X118124502Y-115909180D01*
X118160812Y-115789482D01*
X118173072Y-115665000D01*
X118173072Y-113665000D01*
X118160812Y-113540518D01*
X118124502Y-113420820D01*
X118065537Y-113310506D01*
X117986185Y-113213815D01*
X117916956Y-113157000D01*
X118110000Y-113157000D01*
X118134776Y-113154560D01*
X118158601Y-113147333D01*
X118180557Y-113135597D01*
X118199803Y-113119803D01*
X118215597Y-113100557D01*
X118227333Y-113078601D01*
X118234560Y-113054776D01*
X118237000Y-113030000D01*
X118237000Y-112896499D01*
X118244188Y-112969482D01*
X118262546Y-113030000D01*
X118244188Y-113090518D01*
X118231928Y-113215000D01*
X118231928Y-114115000D01*
X118244188Y-114239482D01*
X118280498Y-114359180D01*
X118339463Y-114469494D01*
X118418815Y-114566185D01*
X118515506Y-114645537D01*
X118625820Y-114704502D01*
X118745518Y-114740812D01*
X118870000Y-114753072D01*
X120870000Y-114753072D01*
X120994482Y-114740812D01*
X121114180Y-114704502D01*
X121224494Y-114645537D01*
X121321185Y-114566185D01*
X121400537Y-114469494D01*
X121424320Y-114425000D01*
X121605199Y-114425000D01*
X123896205Y-116716008D01*
X123919999Y-116745001D01*
X123948992Y-116768795D01*
X123948996Y-116768799D01*
X123967764Y-116784201D01*
X124035724Y-116839974D01*
X124167753Y-116910546D01*
X124311014Y-116954003D01*
X124422667Y-116965000D01*
X124422676Y-116965000D01*
X124459999Y-116968676D01*
X124497322Y-116965000D01*
X128232678Y-116965000D01*
X128270000Y-116968676D01*
X128307322Y-116965000D01*
X128307333Y-116965000D01*
X128418986Y-116954003D01*
X128562247Y-116910546D01*
X128694276Y-116839974D01*
X128810001Y-116745001D01*
X128833804Y-116715997D01*
X130051003Y-115498799D01*
X130080001Y-115475001D01*
X130174974Y-115359276D01*
X130245546Y-115227247D01*
X130289003Y-115083986D01*
X130300000Y-114972333D01*
X130300000Y-114972324D01*
X130303676Y-114935001D01*
X130300000Y-114897678D01*
X130300000Y-113979801D01*
X131759802Y-112520000D01*
X132496928Y-112520000D01*
X132496928Y-112610000D01*
X132509188Y-112734482D01*
X132545498Y-112854180D01*
X132604463Y-112964494D01*
X132683815Y-113061185D01*
X132780506Y-113140537D01*
X132890820Y-113199502D01*
X132963380Y-113221513D01*
X132831525Y-113353368D01*
X132669010Y-113596589D01*
X132557068Y-113866842D01*
X132500000Y-114153740D01*
X132500000Y-114446260D01*
X132557068Y-114733158D01*
X132669010Y-115003411D01*
X132831525Y-115246632D01*
X133038368Y-115453475D01*
X133281589Y-115615990D01*
X133551842Y-115727932D01*
X133838740Y-115785000D01*
X134131260Y-115785000D01*
X134418158Y-115727932D01*
X134688411Y-115615990D01*
X134931632Y-115453475D01*
X135138475Y-115246632D01*
X135300990Y-115003411D01*
X135412932Y-114733158D01*
X135470000Y-114446260D01*
X135470000Y-114153740D01*
X135412932Y-113866842D01*
X135300990Y-113596589D01*
X135138475Y-113353368D01*
X135006620Y-113221513D01*
X135079180Y-113199502D01*
X135189494Y-113140537D01*
X135286185Y-113061185D01*
X135365537Y-112964494D01*
X135424502Y-112854180D01*
X135460812Y-112734482D01*
X135473072Y-112610000D01*
X135473072Y-110910000D01*
X135460812Y-110785518D01*
X135424502Y-110665820D01*
X135365537Y-110555506D01*
X135286185Y-110458815D01*
X135189494Y-110379463D01*
X135079180Y-110320498D01*
X134959482Y-110284188D01*
X134835000Y-110271928D01*
X133135000Y-110271928D01*
X133010518Y-110284188D01*
X132890820Y-110320498D01*
X132780506Y-110379463D01*
X132683815Y-110458815D01*
X132604463Y-110555506D01*
X132545498Y-110665820D01*
X132509188Y-110785518D01*
X132496928Y-110910000D01*
X132496928Y-111000000D01*
X131482323Y-111000000D01*
X131445000Y-110996324D01*
X131407677Y-111000000D01*
X131407667Y-111000000D01*
X131296014Y-111010997D01*
X131152753Y-111054454D01*
X131020724Y-111125026D01*
X130904999Y-111219999D01*
X130881201Y-111248997D01*
X129029003Y-113101196D01*
X128999999Y-113124999D01*
X128973715Y-113157027D01*
X128905026Y-113240724D01*
X128846527Y-113350167D01*
X128834454Y-113372754D01*
X128790997Y-113516015D01*
X128780000Y-113627668D01*
X128780000Y-113627678D01*
X128776324Y-113665000D01*
X128780000Y-113702323D01*
X128780001Y-114620197D01*
X127955199Y-115445000D01*
X124774803Y-115445000D01*
X122483804Y-113154003D01*
X122460001Y-113124999D01*
X122344276Y-113030026D01*
X122212247Y-112959454D01*
X122068986Y-112915997D01*
X121957333Y-112905000D01*
X121957322Y-112905000D01*
X121920000Y-112901324D01*
X121882678Y-112905000D01*
X121502163Y-112905000D01*
X121508072Y-112845000D01*
X121508072Y-111945000D01*
X121495812Y-111820518D01*
X121477454Y-111760000D01*
X121495812Y-111699482D01*
X121508072Y-111575000D01*
X121508072Y-110675000D01*
X121495812Y-110550518D01*
X121477454Y-110490000D01*
X121495812Y-110429482D01*
X121508072Y-110305000D01*
X121508072Y-109405000D01*
X121495812Y-109280518D01*
X121477454Y-109220000D01*
X121495812Y-109159482D01*
X121508072Y-109035000D01*
X121508072Y-108135000D01*
X121495812Y-108010518D01*
X121477454Y-107950000D01*
X121495812Y-107889482D01*
X121508072Y-107765000D01*
X121508072Y-106865000D01*
X121495812Y-106740518D01*
X121477454Y-106680000D01*
X121495812Y-106619482D01*
X121508072Y-106495000D01*
X121508072Y-105595000D01*
X121495812Y-105470518D01*
X121477454Y-105410000D01*
X121495812Y-105349482D01*
X121508072Y-105225000D01*
X121508072Y-104325000D01*
X121495812Y-104200518D01*
X121477454Y-104140000D01*
X121495812Y-104079482D01*
X121508072Y-103955000D01*
X121508072Y-103697873D01*
X123700000Y-105889802D01*
X123700000Y-106007678D01*
X123696324Y-106045000D01*
X123700000Y-106082322D01*
X123700000Y-106082333D01*
X123710997Y-106193986D01*
X123737089Y-106280000D01*
X123723061Y-106280000D01*
X123523102Y-106319774D01*
X123334744Y-106397795D01*
X123165226Y-106511063D01*
X123021063Y-106655226D01*
X122907795Y-106824744D01*
X122829774Y-107013102D01*
X122790000Y-107213061D01*
X122790000Y-107416939D01*
X122829774Y-107616898D01*
X122907795Y-107805256D01*
X123021063Y-107974774D01*
X123068428Y-108022139D01*
X123075997Y-108098986D01*
X123119454Y-108242247D01*
X123128505Y-108259180D01*
X123190026Y-108374276D01*
X123242931Y-108438740D01*
X123285000Y-108490001D01*
X123313998Y-108513799D01*
X125558790Y-110758592D01*
X125515000Y-110978740D01*
X125515000Y-111271260D01*
X125572068Y-111558158D01*
X125684010Y-111828411D01*
X125846525Y-112071632D01*
X126053368Y-112278475D01*
X126227760Y-112395000D01*
X126053368Y-112511525D01*
X125846525Y-112718368D01*
X125684010Y-112961589D01*
X125572068Y-113231842D01*
X125515000Y-113518740D01*
X125515000Y-113811260D01*
X125572068Y-114098158D01*
X125684010Y-114368411D01*
X125846525Y-114611632D01*
X126053368Y-114818475D01*
X126296589Y-114980990D01*
X126566842Y-115092932D01*
X126853740Y-115150000D01*
X127146260Y-115150000D01*
X127433158Y-115092932D01*
X127703411Y-114980990D01*
X127946632Y-114818475D01*
X128153475Y-114611632D01*
X128315990Y-114368411D01*
X128427932Y-114098158D01*
X128485000Y-113811260D01*
X128485000Y-113518740D01*
X128427932Y-113231842D01*
X128315990Y-112961589D01*
X128153475Y-112718368D01*
X127946632Y-112511525D01*
X127772240Y-112395000D01*
X127946632Y-112278475D01*
X128153475Y-112071632D01*
X128315990Y-111828411D01*
X128427932Y-111558158D01*
X128485000Y-111271260D01*
X128485000Y-110978740D01*
X128427932Y-110691842D01*
X128315990Y-110421589D01*
X128153475Y-110178368D01*
X127946632Y-109971525D01*
X127772240Y-109855000D01*
X127946632Y-109738475D01*
X128153475Y-109531632D01*
X128315990Y-109288411D01*
X128427932Y-109018158D01*
X128485000Y-108731260D01*
X128485000Y-108438740D01*
X128427932Y-108151842D01*
X128315990Y-107881589D01*
X128153475Y-107638368D01*
X127946632Y-107431525D01*
X127772240Y-107315000D01*
X127946632Y-107198475D01*
X128153475Y-106991632D01*
X128315990Y-106748411D01*
X128427932Y-106478158D01*
X128485000Y-106191260D01*
X128485000Y-105898740D01*
X128427932Y-105611842D01*
X128315990Y-105341589D01*
X128153475Y-105098368D01*
X127946632Y-104891525D01*
X127772240Y-104775000D01*
X127946632Y-104658475D01*
X128153475Y-104451632D01*
X128278178Y-104265000D01*
X129772501Y-104265000D01*
X129772500Y-106129970D01*
X129642038Y-106237038D01*
X129531595Y-106371613D01*
X129449528Y-106525148D01*
X129398992Y-106691744D01*
X129381928Y-106864998D01*
X129381928Y-107765002D01*
X129398992Y-107938256D01*
X129449528Y-108104852D01*
X129531595Y-108258387D01*
X129642038Y-108392962D01*
X129776613Y-108503405D01*
X129930148Y-108585472D01*
X130096744Y-108636008D01*
X130269998Y-108653072D01*
X130795002Y-108653072D01*
X130968256Y-108636008D01*
X131134852Y-108585472D01*
X131288387Y-108503405D01*
X131369637Y-108436724D01*
X131393815Y-108466185D01*
X131490506Y-108545537D01*
X131600820Y-108604502D01*
X131720518Y-108640812D01*
X131845000Y-108653072D01*
X132071750Y-108650000D01*
X132230500Y-108491250D01*
X132230500Y-107442000D01*
X132484500Y-107442000D01*
X132484500Y-108491250D01*
X132643250Y-108650000D01*
X132870000Y-108653072D01*
X132994482Y-108640812D01*
X133114180Y-108604502D01*
X133224494Y-108545537D01*
X133321185Y-108466185D01*
X133400537Y-108369494D01*
X133459502Y-108259180D01*
X133495812Y-108139482D01*
X133508072Y-108015000D01*
X133505000Y-107600750D01*
X133346250Y-107442000D01*
X132484500Y-107442000D01*
X132230500Y-107442000D01*
X132210500Y-107442000D01*
X132210500Y-107188000D01*
X132230500Y-107188000D01*
X132230500Y-106138750D01*
X132484500Y-106138750D01*
X132484500Y-107188000D01*
X133346250Y-107188000D01*
X133505000Y-107029250D01*
X133508072Y-106615000D01*
X133495812Y-106490518D01*
X133459502Y-106370820D01*
X133400537Y-106260506D01*
X133321185Y-106163815D01*
X133224494Y-106084463D01*
X133114180Y-106025498D01*
X132994482Y-105989188D01*
X132870000Y-105976928D01*
X132643250Y-105980000D01*
X132484500Y-106138750D01*
X132230500Y-106138750D01*
X132071750Y-105980000D01*
X131845000Y-105976928D01*
X131720518Y-105989188D01*
X131600820Y-106025498D01*
X131490506Y-106084463D01*
X131393815Y-106163815D01*
X131369637Y-106193276D01*
X131292500Y-106129970D01*
X131292500Y-104038995D01*
X131372962Y-103972962D01*
X131445000Y-103885183D01*
X131517038Y-103972962D01*
X131651614Y-104083405D01*
X131805150Y-104165472D01*
X131971746Y-104216008D01*
X132145000Y-104233072D01*
X132645000Y-104233072D01*
X132818254Y-104216008D01*
X132984850Y-104165472D01*
X133138386Y-104083405D01*
X133272962Y-103972962D01*
X133383405Y-103838386D01*
X133465472Y-103684850D01*
X133516008Y-103518254D01*
X133533072Y-103345000D01*
X133533072Y-102395000D01*
X133516008Y-102221746D01*
X133465472Y-102055150D01*
X133383405Y-101901614D01*
X133272962Y-101767038D01*
X133138386Y-101656595D01*
X132984850Y-101574528D01*
X132818254Y-101523992D01*
X132645000Y-101506928D01*
X132145000Y-101506928D01*
X132110162Y-101510359D01*
X130469693Y-99869892D01*
X130457205Y-99839744D01*
X130343937Y-99670226D01*
X130199774Y-99526063D01*
X130030256Y-99412795D01*
X129841898Y-99334774D01*
X129641939Y-99295000D01*
X129438061Y-99295000D01*
X129238102Y-99334774D01*
X129049744Y-99412795D01*
X128880226Y-99526063D01*
X128736063Y-99670226D01*
X128622795Y-99839744D01*
X128544774Y-100028102D01*
X128505000Y-100228061D01*
X128505000Y-100431939D01*
X128544774Y-100631898D01*
X128622795Y-100820256D01*
X128736063Y-100989774D01*
X128880226Y-101133937D01*
X129049744Y-101247205D01*
X129238102Y-101325226D01*
X129438061Y-101365000D01*
X129641939Y-101365000D01*
X129786453Y-101336255D01*
X129996896Y-101546697D01*
X129905150Y-101574528D01*
X129751614Y-101656595D01*
X129617038Y-101767038D01*
X129506595Y-101901614D01*
X129424528Y-102055150D01*
X129373992Y-102221746D01*
X129356928Y-102395000D01*
X129356928Y-102745000D01*
X128278178Y-102745000D01*
X128153475Y-102558368D01*
X128021620Y-102426513D01*
X128094180Y-102404502D01*
X128204494Y-102345537D01*
X128301185Y-102266185D01*
X128380537Y-102169494D01*
X128439502Y-102059180D01*
X128475812Y-101939482D01*
X128488072Y-101815000D01*
X128488072Y-100115000D01*
X128475812Y-99990518D01*
X128439502Y-99870820D01*
X128380537Y-99760506D01*
X128301185Y-99663815D01*
X128204494Y-99584463D01*
X128094180Y-99525498D01*
X127974482Y-99489188D01*
X127850000Y-99476928D01*
X126150000Y-99476928D01*
X126025518Y-99489188D01*
X125905820Y-99525498D01*
X125795506Y-99584463D01*
X125698815Y-99663815D01*
X125619463Y-99760506D01*
X125560498Y-99870820D01*
X125524188Y-99990518D01*
X125511928Y-100115000D01*
X125511928Y-101815000D01*
X125524188Y-101939482D01*
X125560498Y-102059180D01*
X125619463Y-102169494D01*
X125698815Y-102266185D01*
X125795506Y-102345537D01*
X125905820Y-102404502D01*
X125978380Y-102426513D01*
X125846525Y-102558368D01*
X125684010Y-102801589D01*
X125572068Y-103071842D01*
X125515000Y-103358740D01*
X125515000Y-103651260D01*
X125572068Y-103938158D01*
X125684010Y-104208411D01*
X125846525Y-104451632D01*
X126053368Y-104658475D01*
X126227760Y-104775000D01*
X126053368Y-104891525D01*
X125846525Y-105098368D01*
X125684010Y-105341589D01*
X125572068Y-105611842D01*
X125515000Y-105898740D01*
X125515000Y-106025199D01*
X125220000Y-105730199D01*
X125220000Y-105612322D01*
X125223676Y-105574999D01*
X125220000Y-105537676D01*
X125220000Y-105537667D01*
X125209003Y-105426014D01*
X125165546Y-105282753D01*
X125094974Y-105150724D01*
X125000001Y-105034999D01*
X124971004Y-105011202D01*
X124355270Y-104395468D01*
X124484774Y-104308937D01*
X124628937Y-104164774D01*
X124742205Y-103995256D01*
X124820226Y-103806898D01*
X124860000Y-103606939D01*
X124860000Y-103403061D01*
X124820226Y-103203102D01*
X124742205Y-103014744D01*
X124628937Y-102845226D01*
X124484774Y-102701063D01*
X124315256Y-102587795D01*
X124126898Y-102509774D01*
X123926939Y-102470000D01*
X123864803Y-102470000D01*
X121848804Y-100454003D01*
X121825001Y-100424999D01*
X121709276Y-100330026D01*
X121577247Y-100259454D01*
X121499133Y-100235759D01*
X121508072Y-100145000D01*
X121508072Y-99245000D01*
X121495812Y-99120518D01*
X121477454Y-99060000D01*
X121495812Y-98999482D01*
X121508072Y-98875000D01*
X121508072Y-97975000D01*
X121495812Y-97850518D01*
X121477454Y-97790000D01*
X121495812Y-97729482D01*
X121508072Y-97605000D01*
X121508072Y-97205000D01*
X137745000Y-97205000D01*
X137745001Y-126315000D01*
X80695000Y-126315000D01*
X80695000Y-121754042D01*
X82135000Y-121754042D01*
X82135000Y-122085958D01*
X82199754Y-122411496D01*
X82326772Y-122718147D01*
X82511175Y-122994125D01*
X82745875Y-123228825D01*
X83021853Y-123413228D01*
X83328504Y-123540246D01*
X83654042Y-123605000D01*
X83985958Y-123605000D01*
X84311496Y-123540246D01*
X84618147Y-123413228D01*
X84894125Y-123228825D01*
X85128825Y-122994125D01*
X85313228Y-122718147D01*
X85440246Y-122411496D01*
X85505000Y-122085958D01*
X85505000Y-121754042D01*
X85440246Y-121428504D01*
X85313228Y-121121853D01*
X85128825Y-120845875D01*
X84894125Y-120611175D01*
X84618147Y-120426772D01*
X84311496Y-120299754D01*
X83985958Y-120235000D01*
X83654042Y-120235000D01*
X83328504Y-120299754D01*
X83021853Y-120426772D01*
X82745875Y-120611175D01*
X82511175Y-120845875D01*
X82326772Y-121121853D01*
X82199754Y-121428504D01*
X82135000Y-121754042D01*
X80695000Y-121754042D01*
X80695000Y-102865000D01*
X80936928Y-102865000D01*
X80949188Y-102989482D01*
X80985498Y-103109180D01*
X81044463Y-103219494D01*
X81123815Y-103316185D01*
X81220506Y-103395537D01*
X81330820Y-103454502D01*
X81450518Y-103490812D01*
X81575000Y-103503072D01*
X82289250Y-103500000D01*
X82448000Y-103341250D01*
X82448000Y-101092000D01*
X82702000Y-101092000D01*
X82702000Y-103341250D01*
X82860750Y-103500000D01*
X83575000Y-103503072D01*
X83699482Y-103490812D01*
X83819180Y-103454502D01*
X83929494Y-103395537D01*
X84026185Y-103316185D01*
X84105537Y-103219494D01*
X84164502Y-103109180D01*
X84200812Y-102989482D01*
X84213072Y-102865000D01*
X84210000Y-101250750D01*
X84051250Y-101092000D01*
X82702000Y-101092000D01*
X82448000Y-101092000D01*
X81098750Y-101092000D01*
X80940000Y-101250750D01*
X80936928Y-102865000D01*
X80695000Y-102865000D01*
X80695000Y-99065000D01*
X80936928Y-99065000D01*
X80940000Y-100679250D01*
X81098750Y-100838000D01*
X82448000Y-100838000D01*
X82448000Y-98588750D01*
X82702000Y-98588750D01*
X82702000Y-100838000D01*
X84051250Y-100838000D01*
X84210000Y-100679250D01*
X84213072Y-99065000D01*
X84200812Y-98940518D01*
X84164502Y-98820820D01*
X84105537Y-98710506D01*
X84026185Y-98613815D01*
X83929494Y-98534463D01*
X83819180Y-98475498D01*
X83699482Y-98439188D01*
X83575000Y-98426928D01*
X82860750Y-98430000D01*
X82702000Y-98588750D01*
X82448000Y-98588750D01*
X82289250Y-98430000D01*
X81575000Y-98426928D01*
X81450518Y-98439188D01*
X81330820Y-98475498D01*
X81220506Y-98534463D01*
X81123815Y-98613815D01*
X81044463Y-98710506D01*
X80985498Y-98820820D01*
X80949188Y-98940518D01*
X80936928Y-99065000D01*
X80695000Y-99065000D01*
X80695000Y-97205000D01*
X97571101Y-97205000D01*
X97507795Y-97299744D01*
G37*
G04 #@! TD.AperFunction*
D19*
X102997000Y-98298000D02*
X103017000Y-98298000D01*
X103017000Y-98552000D01*
X102997000Y-98552000D01*
X102997000Y-98572000D01*
X102743000Y-98572000D01*
X102743000Y-98552000D01*
X102723000Y-98552000D01*
X102723000Y-98298000D01*
X102743000Y-98298000D01*
X102743000Y-98278000D01*
X102997000Y-98278000D01*
X102997000Y-98298000D01*
G04 #@! TA.AperFunction,Conductor*
D20*
G36*
X102997000Y-98298000D02*
G01*
X103017000Y-98298000D01*
X103017000Y-98552000D01*
X102997000Y-98552000D01*
X102997000Y-98572000D01*
X102743000Y-98572000D01*
X102743000Y-98552000D01*
X102723000Y-98552000D01*
X102723000Y-98298000D01*
X102743000Y-98298000D01*
X102743000Y-98278000D01*
X102997000Y-98278000D01*
X102997000Y-98298000D01*
G37*
G04 #@! TD.AperFunction*
G04 #@! TD*
M02*
