G04 #@! TF.GenerationSoftware,KiCad,Pcbnew,(5.1.10)-1*
G04 #@! TF.CreationDate,2022-05-01T16:49:19-04:00*
G04 #@! TF.ProjectId,Hardware,48617264-7761-4726-952e-6b696361645f,rev?*
G04 #@! TF.SameCoordinates,Original*
G04 #@! TF.FileFunction,Copper,L2,Bot*
G04 #@! TF.FilePolarity,Positive*
%FSLAX46Y46*%
G04 Gerber Fmt 4.6, Leading zero omitted, Abs format (unit mm)*
G04 Created by KiCad (PCBNEW (5.1.10)-1) date 2022-05-01 16:49:19*
%MOMM*%
%LPD*%
G01*
G04 APERTURE LIST*
G04 #@! TA.AperFunction,ComponentPad*
%ADD10O,1.700000X1.700000*%
G04 #@! TD*
G04 #@! TA.AperFunction,ComponentPad*
%ADD11R,1.700000X1.700000*%
G04 #@! TD*
G04 #@! TA.AperFunction,ViaPad*
%ADD12C,0.800000*%
G04 #@! TD*
G04 #@! TA.AperFunction,Conductor*
%ADD13C,0.250000*%
G04 #@! TD*
G04 #@! TA.AperFunction,Conductor*
%ADD14C,0.254000*%
G04 #@! TD*
G04 #@! TA.AperFunction,Conductor*
%ADD15C,0.100000*%
G04 #@! TD*
G04 APERTURE END LIST*
D10*
G04 #@! TO.P,J7,3*
G04 #@! TO.N,GND*
X87884000Y-108712000D03*
G04 #@! TO.P,J7,2*
G04 #@! TO.N,/MTMS*
X87884000Y-111252000D03*
D11*
G04 #@! TO.P,J7,1*
G04 #@! TO.N,/VDD33*
X87884000Y-113792000D03*
G04 #@! TD*
G04 #@! TO.P,J1,1*
G04 #@! TO.N,/Boot_Option*
X127000000Y-119380000D03*
D10*
G04 #@! TO.P,J1,2*
G04 #@! TO.N,GND*
X124460000Y-119380000D03*
G04 #@! TD*
G04 #@! TO.P,J3,6*
G04 #@! TO.N,/Boot_Option*
X127000000Y-113665000D03*
G04 #@! TO.P,J3,5*
G04 #@! TO.N,/TXD*
X127000000Y-111125000D03*
G04 #@! TO.P,J3,4*
G04 #@! TO.N,/RXD*
X127000000Y-108585000D03*
G04 #@! TO.P,J3,3*
G04 #@! TO.N,N/C*
X127000000Y-106045000D03*
G04 #@! TO.P,J3,2*
G04 #@! TO.N,/EN*
X127000000Y-103505000D03*
D11*
G04 #@! TO.P,J3,1*
G04 #@! TO.N,GND*
X127000000Y-100965000D03*
G04 #@! TD*
D10*
G04 #@! TO.P,J4,2*
G04 #@! TO.N,GND*
X90805000Y-100330000D03*
D11*
G04 #@! TO.P,J4,1*
G04 #@! TO.N,/VDD33*
X90805000Y-102870000D03*
G04 #@! TD*
G04 #@! TO.P,J2,1*
G04 #@! TO.N,Net-(J2-Pad1)*
X94526100Y-120738900D03*
D10*
G04 #@! TO.P,J2,2*
G04 #@! TO.N,Net-(J2-Pad2)*
X97066100Y-120738900D03*
G04 #@! TO.P,J2,3*
G04 #@! TO.N,Net-(J2-Pad3)*
X99606100Y-120738900D03*
G04 #@! TO.P,J2,4*
G04 #@! TO.N,Net-(J2-Pad4)*
X102146100Y-120738900D03*
G04 #@! TD*
D12*
G04 #@! TO.N,GND*
X109855000Y-105410000D03*
X95885000Y-107315000D03*
X129540000Y-100330000D03*
X105689400Y-112585500D03*
X105194100Y-97790000D03*
X117894100Y-97383600D03*
X96608900Y-98590100D03*
G04 #@! TO.N,/TXD*
X123825000Y-103505000D03*
X123825000Y-107315000D03*
G04 #@! TO.N,/EN*
X105410000Y-101600000D03*
G04 #@! TD*
D13*
G04 #@! TO.N,/TXD*
X123825000Y-103505000D02*
X123825000Y-107315000D01*
G04 #@! TO.N,/EN*
X123476999Y-102779999D02*
X126274999Y-102779999D01*
X122661997Y-103595001D02*
X123476999Y-102779999D01*
X107405001Y-103595001D02*
X122661997Y-103595001D01*
X105410000Y-101600000D02*
X107405001Y-103595001D01*
X126274999Y-102779999D02*
X127000000Y-103505000D01*
G04 #@! TD*
D14*
G04 #@! TO.N,GND*
X137745001Y-126315000D02*
X80695000Y-126315000D01*
X80695000Y-121754042D01*
X82135000Y-121754042D01*
X82135000Y-122085958D01*
X82199754Y-122411496D01*
X82326772Y-122718147D01*
X82511175Y-122994125D01*
X82745875Y-123228825D01*
X83021853Y-123413228D01*
X83328504Y-123540246D01*
X83654042Y-123605000D01*
X83985958Y-123605000D01*
X84311496Y-123540246D01*
X84618147Y-123413228D01*
X84894125Y-123228825D01*
X85128825Y-122994125D01*
X85313228Y-122718147D01*
X85440246Y-122411496D01*
X85505000Y-122085958D01*
X85505000Y-121754042D01*
X85440246Y-121428504D01*
X85313228Y-121121853D01*
X85128825Y-120845875D01*
X84894125Y-120611175D01*
X84618147Y-120426772D01*
X84311496Y-120299754D01*
X83985958Y-120235000D01*
X83654042Y-120235000D01*
X83328504Y-120299754D01*
X83021853Y-120426772D01*
X82745875Y-120611175D01*
X82511175Y-120845875D01*
X82326772Y-121121853D01*
X82199754Y-121428504D01*
X82135000Y-121754042D01*
X80695000Y-121754042D01*
X80695000Y-119888900D01*
X93038028Y-119888900D01*
X93038028Y-121588900D01*
X93050288Y-121713382D01*
X93086598Y-121833080D01*
X93145563Y-121943394D01*
X93224915Y-122040085D01*
X93321606Y-122119437D01*
X93431920Y-122178402D01*
X93551618Y-122214712D01*
X93676100Y-122226972D01*
X95376100Y-122226972D01*
X95500582Y-122214712D01*
X95620280Y-122178402D01*
X95730594Y-122119437D01*
X95827285Y-122040085D01*
X95906637Y-121943394D01*
X95965602Y-121833080D01*
X95987613Y-121760520D01*
X96119468Y-121892375D01*
X96362689Y-122054890D01*
X96632942Y-122166832D01*
X96919840Y-122223900D01*
X97212360Y-122223900D01*
X97499258Y-122166832D01*
X97769511Y-122054890D01*
X98012732Y-121892375D01*
X98219575Y-121685532D01*
X98336100Y-121511140D01*
X98452625Y-121685532D01*
X98659468Y-121892375D01*
X98902689Y-122054890D01*
X99172942Y-122166832D01*
X99459840Y-122223900D01*
X99752360Y-122223900D01*
X100039258Y-122166832D01*
X100309511Y-122054890D01*
X100552732Y-121892375D01*
X100759575Y-121685532D01*
X100876100Y-121511140D01*
X100992625Y-121685532D01*
X101199468Y-121892375D01*
X101442689Y-122054890D01*
X101712942Y-122166832D01*
X101999840Y-122223900D01*
X102292360Y-122223900D01*
X102579258Y-122166832D01*
X102849511Y-122054890D01*
X103092732Y-121892375D01*
X103231065Y-121754042D01*
X132935000Y-121754042D01*
X132935000Y-122085958D01*
X132999754Y-122411496D01*
X133126772Y-122718147D01*
X133311175Y-122994125D01*
X133545875Y-123228825D01*
X133821853Y-123413228D01*
X134128504Y-123540246D01*
X134454042Y-123605000D01*
X134785958Y-123605000D01*
X135111496Y-123540246D01*
X135418147Y-123413228D01*
X135694125Y-123228825D01*
X135928825Y-122994125D01*
X136113228Y-122718147D01*
X136240246Y-122411496D01*
X136305000Y-122085958D01*
X136305000Y-121754042D01*
X136240246Y-121428504D01*
X136113228Y-121121853D01*
X135928825Y-120845875D01*
X135694125Y-120611175D01*
X135418147Y-120426772D01*
X135111496Y-120299754D01*
X134785958Y-120235000D01*
X134454042Y-120235000D01*
X134128504Y-120299754D01*
X133821853Y-120426772D01*
X133545875Y-120611175D01*
X133311175Y-120845875D01*
X133126772Y-121121853D01*
X132999754Y-121428504D01*
X132935000Y-121754042D01*
X103231065Y-121754042D01*
X103299575Y-121685532D01*
X103462090Y-121442311D01*
X103574032Y-121172058D01*
X103631100Y-120885160D01*
X103631100Y-120592640D01*
X103574032Y-120305742D01*
X103462090Y-120035489D01*
X103299575Y-119792268D01*
X103244198Y-119736891D01*
X123018519Y-119736891D01*
X123115843Y-120011252D01*
X123264822Y-120261355D01*
X123459731Y-120477588D01*
X123693080Y-120651641D01*
X123955901Y-120776825D01*
X124103110Y-120821476D01*
X124333000Y-120700155D01*
X124333000Y-119507000D01*
X123139186Y-119507000D01*
X123018519Y-119736891D01*
X103244198Y-119736891D01*
X103092732Y-119585425D01*
X102849511Y-119422910D01*
X102579258Y-119310968D01*
X102292360Y-119253900D01*
X101999840Y-119253900D01*
X101712942Y-119310968D01*
X101442689Y-119422910D01*
X101199468Y-119585425D01*
X100992625Y-119792268D01*
X100876100Y-119966660D01*
X100759575Y-119792268D01*
X100552732Y-119585425D01*
X100309511Y-119422910D01*
X100039258Y-119310968D01*
X99752360Y-119253900D01*
X99459840Y-119253900D01*
X99172942Y-119310968D01*
X98902689Y-119422910D01*
X98659468Y-119585425D01*
X98452625Y-119792268D01*
X98336100Y-119966660D01*
X98219575Y-119792268D01*
X98012732Y-119585425D01*
X97769511Y-119422910D01*
X97499258Y-119310968D01*
X97212360Y-119253900D01*
X96919840Y-119253900D01*
X96632942Y-119310968D01*
X96362689Y-119422910D01*
X96119468Y-119585425D01*
X95987613Y-119717280D01*
X95965602Y-119644720D01*
X95906637Y-119534406D01*
X95827285Y-119437715D01*
X95730594Y-119358363D01*
X95620280Y-119299398D01*
X95500582Y-119263088D01*
X95376100Y-119250828D01*
X93676100Y-119250828D01*
X93551618Y-119263088D01*
X93431920Y-119299398D01*
X93321606Y-119358363D01*
X93224915Y-119437715D01*
X93145563Y-119534406D01*
X93086598Y-119644720D01*
X93050288Y-119764418D01*
X93038028Y-119888900D01*
X80695000Y-119888900D01*
X80695000Y-119023109D01*
X123018519Y-119023109D01*
X123139186Y-119253000D01*
X124333000Y-119253000D01*
X124333000Y-118059845D01*
X124587000Y-118059845D01*
X124587000Y-119253000D01*
X124607000Y-119253000D01*
X124607000Y-119507000D01*
X124587000Y-119507000D01*
X124587000Y-120700155D01*
X124816890Y-120821476D01*
X124964099Y-120776825D01*
X125226920Y-120651641D01*
X125460269Y-120477588D01*
X125536034Y-120393534D01*
X125560498Y-120474180D01*
X125619463Y-120584494D01*
X125698815Y-120681185D01*
X125795506Y-120760537D01*
X125905820Y-120819502D01*
X126025518Y-120855812D01*
X126150000Y-120868072D01*
X127850000Y-120868072D01*
X127974482Y-120855812D01*
X128094180Y-120819502D01*
X128204494Y-120760537D01*
X128301185Y-120681185D01*
X128380537Y-120584494D01*
X128439502Y-120474180D01*
X128475812Y-120354482D01*
X128488072Y-120230000D01*
X128488072Y-118530000D01*
X128475812Y-118405518D01*
X128439502Y-118285820D01*
X128380537Y-118175506D01*
X128301185Y-118078815D01*
X128204494Y-117999463D01*
X128094180Y-117940498D01*
X127974482Y-117904188D01*
X127850000Y-117891928D01*
X126150000Y-117891928D01*
X126025518Y-117904188D01*
X125905820Y-117940498D01*
X125795506Y-117999463D01*
X125698815Y-118078815D01*
X125619463Y-118175506D01*
X125560498Y-118285820D01*
X125536034Y-118366466D01*
X125460269Y-118282412D01*
X125226920Y-118108359D01*
X124964099Y-117983175D01*
X124816890Y-117938524D01*
X124587000Y-118059845D01*
X124333000Y-118059845D01*
X124103110Y-117938524D01*
X123955901Y-117983175D01*
X123693080Y-118108359D01*
X123459731Y-118282412D01*
X123264822Y-118498645D01*
X123115843Y-118748748D01*
X123018519Y-119023109D01*
X80695000Y-119023109D01*
X80695000Y-112942000D01*
X86395928Y-112942000D01*
X86395928Y-114642000D01*
X86408188Y-114766482D01*
X86444498Y-114886180D01*
X86503463Y-114996494D01*
X86582815Y-115093185D01*
X86679506Y-115172537D01*
X86789820Y-115231502D01*
X86909518Y-115267812D01*
X87034000Y-115280072D01*
X88734000Y-115280072D01*
X88858482Y-115267812D01*
X88978180Y-115231502D01*
X89088494Y-115172537D01*
X89185185Y-115093185D01*
X89264537Y-114996494D01*
X89323502Y-114886180D01*
X89359812Y-114766482D01*
X89372072Y-114642000D01*
X89372072Y-112942000D01*
X89359812Y-112817518D01*
X89323502Y-112697820D01*
X89264537Y-112587506D01*
X89185185Y-112490815D01*
X89088494Y-112411463D01*
X88978180Y-112352498D01*
X88905620Y-112330487D01*
X89037475Y-112198632D01*
X89199990Y-111955411D01*
X89311932Y-111685158D01*
X89369000Y-111398260D01*
X89369000Y-111105740D01*
X89311932Y-110818842D01*
X89199990Y-110548589D01*
X89037475Y-110305368D01*
X88830632Y-110098525D01*
X88648466Y-109976805D01*
X88765355Y-109907178D01*
X88981588Y-109712269D01*
X89155641Y-109478920D01*
X89280825Y-109216099D01*
X89325476Y-109068890D01*
X89204155Y-108839000D01*
X88011000Y-108839000D01*
X88011000Y-108859000D01*
X87757000Y-108859000D01*
X87757000Y-108839000D01*
X86563845Y-108839000D01*
X86442524Y-109068890D01*
X86487175Y-109216099D01*
X86612359Y-109478920D01*
X86786412Y-109712269D01*
X87002645Y-109907178D01*
X87119534Y-109976805D01*
X86937368Y-110098525D01*
X86730525Y-110305368D01*
X86568010Y-110548589D01*
X86456068Y-110818842D01*
X86399000Y-111105740D01*
X86399000Y-111398260D01*
X86456068Y-111685158D01*
X86568010Y-111955411D01*
X86730525Y-112198632D01*
X86862380Y-112330487D01*
X86789820Y-112352498D01*
X86679506Y-112411463D01*
X86582815Y-112490815D01*
X86503463Y-112587506D01*
X86444498Y-112697820D01*
X86408188Y-112817518D01*
X86395928Y-112942000D01*
X80695000Y-112942000D01*
X80695000Y-108355110D01*
X86442524Y-108355110D01*
X86563845Y-108585000D01*
X87757000Y-108585000D01*
X87757000Y-107391186D01*
X88011000Y-107391186D01*
X88011000Y-108585000D01*
X89204155Y-108585000D01*
X89325476Y-108355110D01*
X89280825Y-108207901D01*
X89155641Y-107945080D01*
X88981588Y-107711731D01*
X88765355Y-107516822D01*
X88515252Y-107367843D01*
X88240891Y-107270519D01*
X88011000Y-107391186D01*
X87757000Y-107391186D01*
X87527109Y-107270519D01*
X87252748Y-107367843D01*
X87002645Y-107516822D01*
X86786412Y-107711731D01*
X86612359Y-107945080D01*
X86487175Y-108207901D01*
X86442524Y-108355110D01*
X80695000Y-108355110D01*
X80695000Y-102020000D01*
X89316928Y-102020000D01*
X89316928Y-103720000D01*
X89329188Y-103844482D01*
X89365498Y-103964180D01*
X89424463Y-104074494D01*
X89503815Y-104171185D01*
X89600506Y-104250537D01*
X89710820Y-104309502D01*
X89830518Y-104345812D01*
X89955000Y-104358072D01*
X91655000Y-104358072D01*
X91779482Y-104345812D01*
X91899180Y-104309502D01*
X92009494Y-104250537D01*
X92106185Y-104171185D01*
X92185537Y-104074494D01*
X92244502Y-103964180D01*
X92280812Y-103844482D01*
X92293072Y-103720000D01*
X92293072Y-102020000D01*
X92280812Y-101895518D01*
X92244502Y-101775820D01*
X92185537Y-101665506D01*
X92106185Y-101568815D01*
X92019971Y-101498061D01*
X104375000Y-101498061D01*
X104375000Y-101701939D01*
X104414774Y-101901898D01*
X104492795Y-102090256D01*
X104606063Y-102259774D01*
X104750226Y-102403937D01*
X104919744Y-102517205D01*
X105108102Y-102595226D01*
X105308061Y-102635000D01*
X105370198Y-102635000D01*
X106841206Y-104106009D01*
X106865000Y-104135002D01*
X106893993Y-104158796D01*
X106893997Y-104158800D01*
X106954449Y-104208411D01*
X106980725Y-104229975D01*
X107112754Y-104300547D01*
X107256015Y-104344004D01*
X107367668Y-104355001D01*
X107367677Y-104355001D01*
X107405000Y-104358677D01*
X107442323Y-104355001D01*
X122624675Y-104355001D01*
X122661997Y-104358677D01*
X122699319Y-104355001D01*
X122699330Y-104355001D01*
X122810983Y-104344004D01*
X122954244Y-104300547D01*
X123065000Y-104241346D01*
X123065001Y-106611288D01*
X123021063Y-106655226D01*
X122907795Y-106824744D01*
X122829774Y-107013102D01*
X122790000Y-107213061D01*
X122790000Y-107416939D01*
X122829774Y-107616898D01*
X122907795Y-107805256D01*
X123021063Y-107974774D01*
X123165226Y-108118937D01*
X123334744Y-108232205D01*
X123523102Y-108310226D01*
X123723061Y-108350000D01*
X123926939Y-108350000D01*
X124126898Y-108310226D01*
X124315256Y-108232205D01*
X124484774Y-108118937D01*
X124628937Y-107974774D01*
X124742205Y-107805256D01*
X124820226Y-107616898D01*
X124860000Y-107416939D01*
X124860000Y-107213061D01*
X124820226Y-107013102D01*
X124742205Y-106824744D01*
X124628937Y-106655226D01*
X124585000Y-106611289D01*
X124585000Y-104208711D01*
X124628937Y-104164774D01*
X124742205Y-103995256D01*
X124820226Y-103806898D01*
X124860000Y-103606939D01*
X124860000Y-103539999D01*
X125515000Y-103539999D01*
X125515000Y-103651260D01*
X125572068Y-103938158D01*
X125684010Y-104208411D01*
X125846525Y-104451632D01*
X126053368Y-104658475D01*
X126227760Y-104775000D01*
X126053368Y-104891525D01*
X125846525Y-105098368D01*
X125684010Y-105341589D01*
X125572068Y-105611842D01*
X125515000Y-105898740D01*
X125515000Y-106191260D01*
X125572068Y-106478158D01*
X125684010Y-106748411D01*
X125846525Y-106991632D01*
X126053368Y-107198475D01*
X126227760Y-107315000D01*
X126053368Y-107431525D01*
X125846525Y-107638368D01*
X125684010Y-107881589D01*
X125572068Y-108151842D01*
X125515000Y-108438740D01*
X125515000Y-108731260D01*
X125572068Y-109018158D01*
X125684010Y-109288411D01*
X125846525Y-109531632D01*
X126053368Y-109738475D01*
X126227760Y-109855000D01*
X126053368Y-109971525D01*
X125846525Y-110178368D01*
X125684010Y-110421589D01*
X125572068Y-110691842D01*
X125515000Y-110978740D01*
X125515000Y-111271260D01*
X125572068Y-111558158D01*
X125684010Y-111828411D01*
X125846525Y-112071632D01*
X126053368Y-112278475D01*
X126227760Y-112395000D01*
X126053368Y-112511525D01*
X125846525Y-112718368D01*
X125684010Y-112961589D01*
X125572068Y-113231842D01*
X125515000Y-113518740D01*
X125515000Y-113811260D01*
X125572068Y-114098158D01*
X125684010Y-114368411D01*
X125846525Y-114611632D01*
X126053368Y-114818475D01*
X126296589Y-114980990D01*
X126566842Y-115092932D01*
X126853740Y-115150000D01*
X127146260Y-115150000D01*
X127433158Y-115092932D01*
X127703411Y-114980990D01*
X127946632Y-114818475D01*
X128153475Y-114611632D01*
X128315990Y-114368411D01*
X128427932Y-114098158D01*
X128485000Y-113811260D01*
X128485000Y-113518740D01*
X128427932Y-113231842D01*
X128315990Y-112961589D01*
X128153475Y-112718368D01*
X127946632Y-112511525D01*
X127772240Y-112395000D01*
X127946632Y-112278475D01*
X128153475Y-112071632D01*
X128315990Y-111828411D01*
X128427932Y-111558158D01*
X128485000Y-111271260D01*
X128485000Y-110978740D01*
X128427932Y-110691842D01*
X128315990Y-110421589D01*
X128153475Y-110178368D01*
X127946632Y-109971525D01*
X127772240Y-109855000D01*
X127946632Y-109738475D01*
X128153475Y-109531632D01*
X128315990Y-109288411D01*
X128427932Y-109018158D01*
X128485000Y-108731260D01*
X128485000Y-108438740D01*
X128427932Y-108151842D01*
X128315990Y-107881589D01*
X128153475Y-107638368D01*
X127946632Y-107431525D01*
X127772240Y-107315000D01*
X127946632Y-107198475D01*
X128153475Y-106991632D01*
X128315990Y-106748411D01*
X128427932Y-106478158D01*
X128485000Y-106191260D01*
X128485000Y-105898740D01*
X128427932Y-105611842D01*
X128315990Y-105341589D01*
X128153475Y-105098368D01*
X127946632Y-104891525D01*
X127772240Y-104775000D01*
X127946632Y-104658475D01*
X128153475Y-104451632D01*
X128315990Y-104208411D01*
X128427932Y-103938158D01*
X128485000Y-103651260D01*
X128485000Y-103358740D01*
X128427932Y-103071842D01*
X128315990Y-102801589D01*
X128153475Y-102558368D01*
X128021620Y-102426513D01*
X128094180Y-102404502D01*
X128204494Y-102345537D01*
X128301185Y-102266185D01*
X128380537Y-102169494D01*
X128439502Y-102059180D01*
X128475812Y-101939482D01*
X128488072Y-101815000D01*
X128485000Y-101250750D01*
X128326250Y-101092000D01*
X127127000Y-101092000D01*
X127127000Y-101112000D01*
X126873000Y-101112000D01*
X126873000Y-101092000D01*
X125673750Y-101092000D01*
X125515000Y-101250750D01*
X125511928Y-101815000D01*
X125524188Y-101939482D01*
X125548613Y-102019999D01*
X123514322Y-102019999D01*
X123476999Y-102016323D01*
X123439676Y-102019999D01*
X123439666Y-102019999D01*
X123328013Y-102030996D01*
X123184752Y-102074453D01*
X123052722Y-102145025D01*
X123022907Y-102169494D01*
X122936998Y-102239998D01*
X122913200Y-102268997D01*
X122347196Y-102835001D01*
X107719804Y-102835001D01*
X106445000Y-101560198D01*
X106445000Y-101498061D01*
X106405226Y-101298102D01*
X106327205Y-101109744D01*
X106213937Y-100940226D01*
X106069774Y-100796063D01*
X105900256Y-100682795D01*
X105711898Y-100604774D01*
X105511939Y-100565000D01*
X105308061Y-100565000D01*
X105108102Y-100604774D01*
X104919744Y-100682795D01*
X104750226Y-100796063D01*
X104606063Y-100940226D01*
X104492795Y-101109744D01*
X104414774Y-101298102D01*
X104375000Y-101498061D01*
X92019971Y-101498061D01*
X92009494Y-101489463D01*
X91899180Y-101430498D01*
X91818534Y-101406034D01*
X91902588Y-101330269D01*
X92076641Y-101096920D01*
X92201825Y-100834099D01*
X92246476Y-100686890D01*
X92125155Y-100457000D01*
X90932000Y-100457000D01*
X90932000Y-100477000D01*
X90678000Y-100477000D01*
X90678000Y-100457000D01*
X89484845Y-100457000D01*
X89363524Y-100686890D01*
X89408175Y-100834099D01*
X89533359Y-101096920D01*
X89707412Y-101330269D01*
X89791466Y-101406034D01*
X89710820Y-101430498D01*
X89600506Y-101489463D01*
X89503815Y-101568815D01*
X89424463Y-101665506D01*
X89365498Y-101775820D01*
X89329188Y-101895518D01*
X89316928Y-102020000D01*
X80695000Y-102020000D01*
X80695000Y-99973110D01*
X89363524Y-99973110D01*
X89484845Y-100203000D01*
X90678000Y-100203000D01*
X90678000Y-99009186D01*
X90932000Y-99009186D01*
X90932000Y-100203000D01*
X92125155Y-100203000D01*
X92171595Y-100115000D01*
X125511928Y-100115000D01*
X125515000Y-100679250D01*
X125673750Y-100838000D01*
X126873000Y-100838000D01*
X126873000Y-99638750D01*
X127127000Y-99638750D01*
X127127000Y-100838000D01*
X128326250Y-100838000D01*
X128485000Y-100679250D01*
X128488072Y-100115000D01*
X128475812Y-99990518D01*
X128439502Y-99870820D01*
X128380537Y-99760506D01*
X128301185Y-99663815D01*
X128204494Y-99584463D01*
X128094180Y-99525498D01*
X127974482Y-99489188D01*
X127850000Y-99476928D01*
X127285750Y-99480000D01*
X127127000Y-99638750D01*
X126873000Y-99638750D01*
X126714250Y-99480000D01*
X126150000Y-99476928D01*
X126025518Y-99489188D01*
X125905820Y-99525498D01*
X125795506Y-99584463D01*
X125698815Y-99663815D01*
X125619463Y-99760506D01*
X125560498Y-99870820D01*
X125524188Y-99990518D01*
X125511928Y-100115000D01*
X92171595Y-100115000D01*
X92246476Y-99973110D01*
X92201825Y-99825901D01*
X92076641Y-99563080D01*
X91902588Y-99329731D01*
X91686355Y-99134822D01*
X91436252Y-98985843D01*
X91161891Y-98888519D01*
X90932000Y-99009186D01*
X90678000Y-99009186D01*
X90448109Y-98888519D01*
X90173748Y-98985843D01*
X89923645Y-99134822D01*
X89707412Y-99329731D01*
X89533359Y-99563080D01*
X89408175Y-99825901D01*
X89363524Y-99973110D01*
X80695000Y-99973110D01*
X80695000Y-97205000D01*
X137745000Y-97205000D01*
X137745001Y-126315000D01*
G04 #@! TA.AperFunction,Conductor*
D15*
G36*
X137745001Y-126315000D02*
G01*
X80695000Y-126315000D01*
X80695000Y-121754042D01*
X82135000Y-121754042D01*
X82135000Y-122085958D01*
X82199754Y-122411496D01*
X82326772Y-122718147D01*
X82511175Y-122994125D01*
X82745875Y-123228825D01*
X83021853Y-123413228D01*
X83328504Y-123540246D01*
X83654042Y-123605000D01*
X83985958Y-123605000D01*
X84311496Y-123540246D01*
X84618147Y-123413228D01*
X84894125Y-123228825D01*
X85128825Y-122994125D01*
X85313228Y-122718147D01*
X85440246Y-122411496D01*
X85505000Y-122085958D01*
X85505000Y-121754042D01*
X85440246Y-121428504D01*
X85313228Y-121121853D01*
X85128825Y-120845875D01*
X84894125Y-120611175D01*
X84618147Y-120426772D01*
X84311496Y-120299754D01*
X83985958Y-120235000D01*
X83654042Y-120235000D01*
X83328504Y-120299754D01*
X83021853Y-120426772D01*
X82745875Y-120611175D01*
X82511175Y-120845875D01*
X82326772Y-121121853D01*
X82199754Y-121428504D01*
X82135000Y-121754042D01*
X80695000Y-121754042D01*
X80695000Y-119888900D01*
X93038028Y-119888900D01*
X93038028Y-121588900D01*
X93050288Y-121713382D01*
X93086598Y-121833080D01*
X93145563Y-121943394D01*
X93224915Y-122040085D01*
X93321606Y-122119437D01*
X93431920Y-122178402D01*
X93551618Y-122214712D01*
X93676100Y-122226972D01*
X95376100Y-122226972D01*
X95500582Y-122214712D01*
X95620280Y-122178402D01*
X95730594Y-122119437D01*
X95827285Y-122040085D01*
X95906637Y-121943394D01*
X95965602Y-121833080D01*
X95987613Y-121760520D01*
X96119468Y-121892375D01*
X96362689Y-122054890D01*
X96632942Y-122166832D01*
X96919840Y-122223900D01*
X97212360Y-122223900D01*
X97499258Y-122166832D01*
X97769511Y-122054890D01*
X98012732Y-121892375D01*
X98219575Y-121685532D01*
X98336100Y-121511140D01*
X98452625Y-121685532D01*
X98659468Y-121892375D01*
X98902689Y-122054890D01*
X99172942Y-122166832D01*
X99459840Y-122223900D01*
X99752360Y-122223900D01*
X100039258Y-122166832D01*
X100309511Y-122054890D01*
X100552732Y-121892375D01*
X100759575Y-121685532D01*
X100876100Y-121511140D01*
X100992625Y-121685532D01*
X101199468Y-121892375D01*
X101442689Y-122054890D01*
X101712942Y-122166832D01*
X101999840Y-122223900D01*
X102292360Y-122223900D01*
X102579258Y-122166832D01*
X102849511Y-122054890D01*
X103092732Y-121892375D01*
X103231065Y-121754042D01*
X132935000Y-121754042D01*
X132935000Y-122085958D01*
X132999754Y-122411496D01*
X133126772Y-122718147D01*
X133311175Y-122994125D01*
X133545875Y-123228825D01*
X133821853Y-123413228D01*
X134128504Y-123540246D01*
X134454042Y-123605000D01*
X134785958Y-123605000D01*
X135111496Y-123540246D01*
X135418147Y-123413228D01*
X135694125Y-123228825D01*
X135928825Y-122994125D01*
X136113228Y-122718147D01*
X136240246Y-122411496D01*
X136305000Y-122085958D01*
X136305000Y-121754042D01*
X136240246Y-121428504D01*
X136113228Y-121121853D01*
X135928825Y-120845875D01*
X135694125Y-120611175D01*
X135418147Y-120426772D01*
X135111496Y-120299754D01*
X134785958Y-120235000D01*
X134454042Y-120235000D01*
X134128504Y-120299754D01*
X133821853Y-120426772D01*
X133545875Y-120611175D01*
X133311175Y-120845875D01*
X133126772Y-121121853D01*
X132999754Y-121428504D01*
X132935000Y-121754042D01*
X103231065Y-121754042D01*
X103299575Y-121685532D01*
X103462090Y-121442311D01*
X103574032Y-121172058D01*
X103631100Y-120885160D01*
X103631100Y-120592640D01*
X103574032Y-120305742D01*
X103462090Y-120035489D01*
X103299575Y-119792268D01*
X103244198Y-119736891D01*
X123018519Y-119736891D01*
X123115843Y-120011252D01*
X123264822Y-120261355D01*
X123459731Y-120477588D01*
X123693080Y-120651641D01*
X123955901Y-120776825D01*
X124103110Y-120821476D01*
X124333000Y-120700155D01*
X124333000Y-119507000D01*
X123139186Y-119507000D01*
X123018519Y-119736891D01*
X103244198Y-119736891D01*
X103092732Y-119585425D01*
X102849511Y-119422910D01*
X102579258Y-119310968D01*
X102292360Y-119253900D01*
X101999840Y-119253900D01*
X101712942Y-119310968D01*
X101442689Y-119422910D01*
X101199468Y-119585425D01*
X100992625Y-119792268D01*
X100876100Y-119966660D01*
X100759575Y-119792268D01*
X100552732Y-119585425D01*
X100309511Y-119422910D01*
X100039258Y-119310968D01*
X99752360Y-119253900D01*
X99459840Y-119253900D01*
X99172942Y-119310968D01*
X98902689Y-119422910D01*
X98659468Y-119585425D01*
X98452625Y-119792268D01*
X98336100Y-119966660D01*
X98219575Y-119792268D01*
X98012732Y-119585425D01*
X97769511Y-119422910D01*
X97499258Y-119310968D01*
X97212360Y-119253900D01*
X96919840Y-119253900D01*
X96632942Y-119310968D01*
X96362689Y-119422910D01*
X96119468Y-119585425D01*
X95987613Y-119717280D01*
X95965602Y-119644720D01*
X95906637Y-119534406D01*
X95827285Y-119437715D01*
X95730594Y-119358363D01*
X95620280Y-119299398D01*
X95500582Y-119263088D01*
X95376100Y-119250828D01*
X93676100Y-119250828D01*
X93551618Y-119263088D01*
X93431920Y-119299398D01*
X93321606Y-119358363D01*
X93224915Y-119437715D01*
X93145563Y-119534406D01*
X93086598Y-119644720D01*
X93050288Y-119764418D01*
X93038028Y-119888900D01*
X80695000Y-119888900D01*
X80695000Y-119023109D01*
X123018519Y-119023109D01*
X123139186Y-119253000D01*
X124333000Y-119253000D01*
X124333000Y-118059845D01*
X124587000Y-118059845D01*
X124587000Y-119253000D01*
X124607000Y-119253000D01*
X124607000Y-119507000D01*
X124587000Y-119507000D01*
X124587000Y-120700155D01*
X124816890Y-120821476D01*
X124964099Y-120776825D01*
X125226920Y-120651641D01*
X125460269Y-120477588D01*
X125536034Y-120393534D01*
X125560498Y-120474180D01*
X125619463Y-120584494D01*
X125698815Y-120681185D01*
X125795506Y-120760537D01*
X125905820Y-120819502D01*
X126025518Y-120855812D01*
X126150000Y-120868072D01*
X127850000Y-120868072D01*
X127974482Y-120855812D01*
X128094180Y-120819502D01*
X128204494Y-120760537D01*
X128301185Y-120681185D01*
X128380537Y-120584494D01*
X128439502Y-120474180D01*
X128475812Y-120354482D01*
X128488072Y-120230000D01*
X128488072Y-118530000D01*
X128475812Y-118405518D01*
X128439502Y-118285820D01*
X128380537Y-118175506D01*
X128301185Y-118078815D01*
X128204494Y-117999463D01*
X128094180Y-117940498D01*
X127974482Y-117904188D01*
X127850000Y-117891928D01*
X126150000Y-117891928D01*
X126025518Y-117904188D01*
X125905820Y-117940498D01*
X125795506Y-117999463D01*
X125698815Y-118078815D01*
X125619463Y-118175506D01*
X125560498Y-118285820D01*
X125536034Y-118366466D01*
X125460269Y-118282412D01*
X125226920Y-118108359D01*
X124964099Y-117983175D01*
X124816890Y-117938524D01*
X124587000Y-118059845D01*
X124333000Y-118059845D01*
X124103110Y-117938524D01*
X123955901Y-117983175D01*
X123693080Y-118108359D01*
X123459731Y-118282412D01*
X123264822Y-118498645D01*
X123115843Y-118748748D01*
X123018519Y-119023109D01*
X80695000Y-119023109D01*
X80695000Y-112942000D01*
X86395928Y-112942000D01*
X86395928Y-114642000D01*
X86408188Y-114766482D01*
X86444498Y-114886180D01*
X86503463Y-114996494D01*
X86582815Y-115093185D01*
X86679506Y-115172537D01*
X86789820Y-115231502D01*
X86909518Y-115267812D01*
X87034000Y-115280072D01*
X88734000Y-115280072D01*
X88858482Y-115267812D01*
X88978180Y-115231502D01*
X89088494Y-115172537D01*
X89185185Y-115093185D01*
X89264537Y-114996494D01*
X89323502Y-114886180D01*
X89359812Y-114766482D01*
X89372072Y-114642000D01*
X89372072Y-112942000D01*
X89359812Y-112817518D01*
X89323502Y-112697820D01*
X89264537Y-112587506D01*
X89185185Y-112490815D01*
X89088494Y-112411463D01*
X88978180Y-112352498D01*
X88905620Y-112330487D01*
X89037475Y-112198632D01*
X89199990Y-111955411D01*
X89311932Y-111685158D01*
X89369000Y-111398260D01*
X89369000Y-111105740D01*
X89311932Y-110818842D01*
X89199990Y-110548589D01*
X89037475Y-110305368D01*
X88830632Y-110098525D01*
X88648466Y-109976805D01*
X88765355Y-109907178D01*
X88981588Y-109712269D01*
X89155641Y-109478920D01*
X89280825Y-109216099D01*
X89325476Y-109068890D01*
X89204155Y-108839000D01*
X88011000Y-108839000D01*
X88011000Y-108859000D01*
X87757000Y-108859000D01*
X87757000Y-108839000D01*
X86563845Y-108839000D01*
X86442524Y-109068890D01*
X86487175Y-109216099D01*
X86612359Y-109478920D01*
X86786412Y-109712269D01*
X87002645Y-109907178D01*
X87119534Y-109976805D01*
X86937368Y-110098525D01*
X86730525Y-110305368D01*
X86568010Y-110548589D01*
X86456068Y-110818842D01*
X86399000Y-111105740D01*
X86399000Y-111398260D01*
X86456068Y-111685158D01*
X86568010Y-111955411D01*
X86730525Y-112198632D01*
X86862380Y-112330487D01*
X86789820Y-112352498D01*
X86679506Y-112411463D01*
X86582815Y-112490815D01*
X86503463Y-112587506D01*
X86444498Y-112697820D01*
X86408188Y-112817518D01*
X86395928Y-112942000D01*
X80695000Y-112942000D01*
X80695000Y-108355110D01*
X86442524Y-108355110D01*
X86563845Y-108585000D01*
X87757000Y-108585000D01*
X87757000Y-107391186D01*
X88011000Y-107391186D01*
X88011000Y-108585000D01*
X89204155Y-108585000D01*
X89325476Y-108355110D01*
X89280825Y-108207901D01*
X89155641Y-107945080D01*
X88981588Y-107711731D01*
X88765355Y-107516822D01*
X88515252Y-107367843D01*
X88240891Y-107270519D01*
X88011000Y-107391186D01*
X87757000Y-107391186D01*
X87527109Y-107270519D01*
X87252748Y-107367843D01*
X87002645Y-107516822D01*
X86786412Y-107711731D01*
X86612359Y-107945080D01*
X86487175Y-108207901D01*
X86442524Y-108355110D01*
X80695000Y-108355110D01*
X80695000Y-102020000D01*
X89316928Y-102020000D01*
X89316928Y-103720000D01*
X89329188Y-103844482D01*
X89365498Y-103964180D01*
X89424463Y-104074494D01*
X89503815Y-104171185D01*
X89600506Y-104250537D01*
X89710820Y-104309502D01*
X89830518Y-104345812D01*
X89955000Y-104358072D01*
X91655000Y-104358072D01*
X91779482Y-104345812D01*
X91899180Y-104309502D01*
X92009494Y-104250537D01*
X92106185Y-104171185D01*
X92185537Y-104074494D01*
X92244502Y-103964180D01*
X92280812Y-103844482D01*
X92293072Y-103720000D01*
X92293072Y-102020000D01*
X92280812Y-101895518D01*
X92244502Y-101775820D01*
X92185537Y-101665506D01*
X92106185Y-101568815D01*
X92019971Y-101498061D01*
X104375000Y-101498061D01*
X104375000Y-101701939D01*
X104414774Y-101901898D01*
X104492795Y-102090256D01*
X104606063Y-102259774D01*
X104750226Y-102403937D01*
X104919744Y-102517205D01*
X105108102Y-102595226D01*
X105308061Y-102635000D01*
X105370198Y-102635000D01*
X106841206Y-104106009D01*
X106865000Y-104135002D01*
X106893993Y-104158796D01*
X106893997Y-104158800D01*
X106954449Y-104208411D01*
X106980725Y-104229975D01*
X107112754Y-104300547D01*
X107256015Y-104344004D01*
X107367668Y-104355001D01*
X107367677Y-104355001D01*
X107405000Y-104358677D01*
X107442323Y-104355001D01*
X122624675Y-104355001D01*
X122661997Y-104358677D01*
X122699319Y-104355001D01*
X122699330Y-104355001D01*
X122810983Y-104344004D01*
X122954244Y-104300547D01*
X123065000Y-104241346D01*
X123065001Y-106611288D01*
X123021063Y-106655226D01*
X122907795Y-106824744D01*
X122829774Y-107013102D01*
X122790000Y-107213061D01*
X122790000Y-107416939D01*
X122829774Y-107616898D01*
X122907795Y-107805256D01*
X123021063Y-107974774D01*
X123165226Y-108118937D01*
X123334744Y-108232205D01*
X123523102Y-108310226D01*
X123723061Y-108350000D01*
X123926939Y-108350000D01*
X124126898Y-108310226D01*
X124315256Y-108232205D01*
X124484774Y-108118937D01*
X124628937Y-107974774D01*
X124742205Y-107805256D01*
X124820226Y-107616898D01*
X124860000Y-107416939D01*
X124860000Y-107213061D01*
X124820226Y-107013102D01*
X124742205Y-106824744D01*
X124628937Y-106655226D01*
X124585000Y-106611289D01*
X124585000Y-104208711D01*
X124628937Y-104164774D01*
X124742205Y-103995256D01*
X124820226Y-103806898D01*
X124860000Y-103606939D01*
X124860000Y-103539999D01*
X125515000Y-103539999D01*
X125515000Y-103651260D01*
X125572068Y-103938158D01*
X125684010Y-104208411D01*
X125846525Y-104451632D01*
X126053368Y-104658475D01*
X126227760Y-104775000D01*
X126053368Y-104891525D01*
X125846525Y-105098368D01*
X125684010Y-105341589D01*
X125572068Y-105611842D01*
X125515000Y-105898740D01*
X125515000Y-106191260D01*
X125572068Y-106478158D01*
X125684010Y-106748411D01*
X125846525Y-106991632D01*
X126053368Y-107198475D01*
X126227760Y-107315000D01*
X126053368Y-107431525D01*
X125846525Y-107638368D01*
X125684010Y-107881589D01*
X125572068Y-108151842D01*
X125515000Y-108438740D01*
X125515000Y-108731260D01*
X125572068Y-109018158D01*
X125684010Y-109288411D01*
X125846525Y-109531632D01*
X126053368Y-109738475D01*
X126227760Y-109855000D01*
X126053368Y-109971525D01*
X125846525Y-110178368D01*
X125684010Y-110421589D01*
X125572068Y-110691842D01*
X125515000Y-110978740D01*
X125515000Y-111271260D01*
X125572068Y-111558158D01*
X125684010Y-111828411D01*
X125846525Y-112071632D01*
X126053368Y-112278475D01*
X126227760Y-112395000D01*
X126053368Y-112511525D01*
X125846525Y-112718368D01*
X125684010Y-112961589D01*
X125572068Y-113231842D01*
X125515000Y-113518740D01*
X125515000Y-113811260D01*
X125572068Y-114098158D01*
X125684010Y-114368411D01*
X125846525Y-114611632D01*
X126053368Y-114818475D01*
X126296589Y-114980990D01*
X126566842Y-115092932D01*
X126853740Y-115150000D01*
X127146260Y-115150000D01*
X127433158Y-115092932D01*
X127703411Y-114980990D01*
X127946632Y-114818475D01*
X128153475Y-114611632D01*
X128315990Y-114368411D01*
X128427932Y-114098158D01*
X128485000Y-113811260D01*
X128485000Y-113518740D01*
X128427932Y-113231842D01*
X128315990Y-112961589D01*
X128153475Y-112718368D01*
X127946632Y-112511525D01*
X127772240Y-112395000D01*
X127946632Y-112278475D01*
X128153475Y-112071632D01*
X128315990Y-111828411D01*
X128427932Y-111558158D01*
X128485000Y-111271260D01*
X128485000Y-110978740D01*
X128427932Y-110691842D01*
X128315990Y-110421589D01*
X128153475Y-110178368D01*
X127946632Y-109971525D01*
X127772240Y-109855000D01*
X127946632Y-109738475D01*
X128153475Y-109531632D01*
X128315990Y-109288411D01*
X128427932Y-109018158D01*
X128485000Y-108731260D01*
X128485000Y-108438740D01*
X128427932Y-108151842D01*
X128315990Y-107881589D01*
X128153475Y-107638368D01*
X127946632Y-107431525D01*
X127772240Y-107315000D01*
X127946632Y-107198475D01*
X128153475Y-106991632D01*
X128315990Y-106748411D01*
X128427932Y-106478158D01*
X128485000Y-106191260D01*
X128485000Y-105898740D01*
X128427932Y-105611842D01*
X128315990Y-105341589D01*
X128153475Y-105098368D01*
X127946632Y-104891525D01*
X127772240Y-104775000D01*
X127946632Y-104658475D01*
X128153475Y-104451632D01*
X128315990Y-104208411D01*
X128427932Y-103938158D01*
X128485000Y-103651260D01*
X128485000Y-103358740D01*
X128427932Y-103071842D01*
X128315990Y-102801589D01*
X128153475Y-102558368D01*
X128021620Y-102426513D01*
X128094180Y-102404502D01*
X128204494Y-102345537D01*
X128301185Y-102266185D01*
X128380537Y-102169494D01*
X128439502Y-102059180D01*
X128475812Y-101939482D01*
X128488072Y-101815000D01*
X128485000Y-101250750D01*
X128326250Y-101092000D01*
X127127000Y-101092000D01*
X127127000Y-101112000D01*
X126873000Y-101112000D01*
X126873000Y-101092000D01*
X125673750Y-101092000D01*
X125515000Y-101250750D01*
X125511928Y-101815000D01*
X125524188Y-101939482D01*
X125548613Y-102019999D01*
X123514322Y-102019999D01*
X123476999Y-102016323D01*
X123439676Y-102019999D01*
X123439666Y-102019999D01*
X123328013Y-102030996D01*
X123184752Y-102074453D01*
X123052722Y-102145025D01*
X123022907Y-102169494D01*
X122936998Y-102239998D01*
X122913200Y-102268997D01*
X122347196Y-102835001D01*
X107719804Y-102835001D01*
X106445000Y-101560198D01*
X106445000Y-101498061D01*
X106405226Y-101298102D01*
X106327205Y-101109744D01*
X106213937Y-100940226D01*
X106069774Y-100796063D01*
X105900256Y-100682795D01*
X105711898Y-100604774D01*
X105511939Y-100565000D01*
X105308061Y-100565000D01*
X105108102Y-100604774D01*
X104919744Y-100682795D01*
X104750226Y-100796063D01*
X104606063Y-100940226D01*
X104492795Y-101109744D01*
X104414774Y-101298102D01*
X104375000Y-101498061D01*
X92019971Y-101498061D01*
X92009494Y-101489463D01*
X91899180Y-101430498D01*
X91818534Y-101406034D01*
X91902588Y-101330269D01*
X92076641Y-101096920D01*
X92201825Y-100834099D01*
X92246476Y-100686890D01*
X92125155Y-100457000D01*
X90932000Y-100457000D01*
X90932000Y-100477000D01*
X90678000Y-100477000D01*
X90678000Y-100457000D01*
X89484845Y-100457000D01*
X89363524Y-100686890D01*
X89408175Y-100834099D01*
X89533359Y-101096920D01*
X89707412Y-101330269D01*
X89791466Y-101406034D01*
X89710820Y-101430498D01*
X89600506Y-101489463D01*
X89503815Y-101568815D01*
X89424463Y-101665506D01*
X89365498Y-101775820D01*
X89329188Y-101895518D01*
X89316928Y-102020000D01*
X80695000Y-102020000D01*
X80695000Y-99973110D01*
X89363524Y-99973110D01*
X89484845Y-100203000D01*
X90678000Y-100203000D01*
X90678000Y-99009186D01*
X90932000Y-99009186D01*
X90932000Y-100203000D01*
X92125155Y-100203000D01*
X92171595Y-100115000D01*
X125511928Y-100115000D01*
X125515000Y-100679250D01*
X125673750Y-100838000D01*
X126873000Y-100838000D01*
X126873000Y-99638750D01*
X127127000Y-99638750D01*
X127127000Y-100838000D01*
X128326250Y-100838000D01*
X128485000Y-100679250D01*
X128488072Y-100115000D01*
X128475812Y-99990518D01*
X128439502Y-99870820D01*
X128380537Y-99760506D01*
X128301185Y-99663815D01*
X128204494Y-99584463D01*
X128094180Y-99525498D01*
X127974482Y-99489188D01*
X127850000Y-99476928D01*
X127285750Y-99480000D01*
X127127000Y-99638750D01*
X126873000Y-99638750D01*
X126714250Y-99480000D01*
X126150000Y-99476928D01*
X126025518Y-99489188D01*
X125905820Y-99525498D01*
X125795506Y-99584463D01*
X125698815Y-99663815D01*
X125619463Y-99760506D01*
X125560498Y-99870820D01*
X125524188Y-99990518D01*
X125511928Y-100115000D01*
X92171595Y-100115000D01*
X92246476Y-99973110D01*
X92201825Y-99825901D01*
X92076641Y-99563080D01*
X91902588Y-99329731D01*
X91686355Y-99134822D01*
X91436252Y-98985843D01*
X91161891Y-98888519D01*
X90932000Y-99009186D01*
X90678000Y-99009186D01*
X90448109Y-98888519D01*
X90173748Y-98985843D01*
X89923645Y-99134822D01*
X89707412Y-99329731D01*
X89533359Y-99563080D01*
X89408175Y-99825901D01*
X89363524Y-99973110D01*
X80695000Y-99973110D01*
X80695000Y-97205000D01*
X137745000Y-97205000D01*
X137745001Y-126315000D01*
G37*
G04 #@! TD.AperFunction*
G04 #@! TD*
M02*
