G04 #@! TF.GenerationSoftware,KiCad,Pcbnew,(5.1.10)-1*
G04 #@! TF.CreationDate,2022-05-01T16:49:19-04:00*
G04 #@! TF.ProjectId,Hardware,48617264-7761-4726-952e-6b696361645f,rev?*
G04 #@! TF.SameCoordinates,Original*
G04 #@! TF.FileFunction,Legend,Top*
G04 #@! TF.FilePolarity,Positive*
%FSLAX46Y46*%
G04 Gerber Fmt 4.6, Leading zero omitted, Abs format (unit mm)*
G04 Created by KiCad (PCBNEW (5.1.10)-1) date 2022-05-01 16:49:19*
%MOMM*%
%LPD*%
G01*
G04 APERTURE LIST*
%ADD10C,0.150000*%
%ADD11C,0.120000*%
%ADD12O,1.700000X1.700000*%
%ADD13R,1.700000X1.700000*%
%ADD14C,2.100000*%
%ADD15R,5.000000X5.000000*%
%ADD16R,2.000000X0.900000*%
%ADD17R,0.900000X2.000000*%
G04 APERTURE END LIST*
D10*
X82621428Y-98084285D02*
X82621428Y-98417619D01*
X82097619Y-98560476D02*
X82097619Y-98084285D01*
X83097619Y-98084285D01*
X83097619Y-98560476D01*
X82145238Y-98941428D02*
X82097619Y-99084285D01*
X82097619Y-99322380D01*
X82145238Y-99417619D01*
X82192857Y-99465238D01*
X82288095Y-99512857D01*
X82383333Y-99512857D01*
X82478571Y-99465238D01*
X82526190Y-99417619D01*
X82573809Y-99322380D01*
X82621428Y-99131904D01*
X82669047Y-99036666D01*
X82716666Y-98989047D01*
X82811904Y-98941428D01*
X82907142Y-98941428D01*
X83002380Y-98989047D01*
X83050000Y-99036666D01*
X83097619Y-99131904D01*
X83097619Y-99370000D01*
X83050000Y-99512857D01*
X82097619Y-99941428D02*
X83097619Y-99941428D01*
X83097619Y-100322380D01*
X83050000Y-100417619D01*
X83002380Y-100465238D01*
X82907142Y-100512857D01*
X82764285Y-100512857D01*
X82669047Y-100465238D01*
X82621428Y-100417619D01*
X82573809Y-100322380D01*
X82573809Y-99941428D01*
X83097619Y-100846190D02*
X83097619Y-101465238D01*
X82716666Y-101131904D01*
X82716666Y-101274761D01*
X82669047Y-101370000D01*
X82621428Y-101417619D01*
X82526190Y-101465238D01*
X82288095Y-101465238D01*
X82192857Y-101417619D01*
X82145238Y-101370000D01*
X82097619Y-101274761D01*
X82097619Y-100989047D01*
X82145238Y-100893809D01*
X82192857Y-100846190D01*
X83002380Y-101846190D02*
X83050000Y-101893809D01*
X83097619Y-101989047D01*
X83097619Y-102227142D01*
X83050000Y-102322380D01*
X83002380Y-102370000D01*
X82907142Y-102417619D01*
X82811904Y-102417619D01*
X82669047Y-102370000D01*
X82097619Y-101798571D01*
X82097619Y-102417619D01*
X82002380Y-102608095D02*
X82002380Y-103370000D01*
X82097619Y-104179523D02*
X82573809Y-103846190D01*
X82097619Y-103608095D02*
X83097619Y-103608095D01*
X83097619Y-103989047D01*
X83050000Y-104084285D01*
X83002380Y-104131904D01*
X82907142Y-104179523D01*
X82764285Y-104179523D01*
X82669047Y-104131904D01*
X82621428Y-104084285D01*
X82573809Y-103989047D01*
X82573809Y-103608095D01*
X82621428Y-104608095D02*
X82621428Y-104941428D01*
X82097619Y-105084285D02*
X82097619Y-104608095D01*
X83097619Y-104608095D01*
X83097619Y-105084285D01*
X83097619Y-105370000D02*
X82097619Y-105703333D01*
X83097619Y-106036666D01*
X82002380Y-106131904D02*
X82002380Y-106893809D01*
X82621428Y-107465238D02*
X82573809Y-107608095D01*
X82526190Y-107655714D01*
X82430952Y-107703333D01*
X82288095Y-107703333D01*
X82192857Y-107655714D01*
X82145238Y-107608095D01*
X82097619Y-107512857D01*
X82097619Y-107131904D01*
X83097619Y-107131904D01*
X83097619Y-107465238D01*
X83050000Y-107560476D01*
X83002380Y-107608095D01*
X82907142Y-107655714D01*
X82811904Y-107655714D01*
X82716666Y-107608095D01*
X82669047Y-107560476D01*
X82621428Y-107465238D01*
X82621428Y-107131904D01*
X123166357Y-121912071D02*
X123309214Y-121959690D01*
X123356833Y-122007309D01*
X123404452Y-122102547D01*
X123404452Y-122245404D01*
X123356833Y-122340642D01*
X123309214Y-122388261D01*
X123213976Y-122435880D01*
X122833023Y-122435880D01*
X122833023Y-121435880D01*
X123166357Y-121435880D01*
X123261595Y-121483500D01*
X123309214Y-121531119D01*
X123356833Y-121626357D01*
X123356833Y-121721595D01*
X123309214Y-121816833D01*
X123261595Y-121864452D01*
X123166357Y-121912071D01*
X122833023Y-121912071D01*
X124023500Y-121435880D02*
X124213976Y-121435880D01*
X124309214Y-121483500D01*
X124404452Y-121578738D01*
X124452071Y-121769214D01*
X124452071Y-122102547D01*
X124404452Y-122293023D01*
X124309214Y-122388261D01*
X124213976Y-122435880D01*
X124023500Y-122435880D01*
X123928261Y-122388261D01*
X123833023Y-122293023D01*
X123785404Y-122102547D01*
X123785404Y-121769214D01*
X123833023Y-121578738D01*
X123928261Y-121483500D01*
X124023500Y-121435880D01*
X125071119Y-121435880D02*
X125261595Y-121435880D01*
X125356833Y-121483500D01*
X125452071Y-121578738D01*
X125499690Y-121769214D01*
X125499690Y-122102547D01*
X125452071Y-122293023D01*
X125356833Y-122388261D01*
X125261595Y-122435880D01*
X125071119Y-122435880D01*
X124975880Y-122388261D01*
X124880642Y-122293023D01*
X124833023Y-122102547D01*
X124833023Y-121769214D01*
X124880642Y-121578738D01*
X124975880Y-121483500D01*
X125071119Y-121435880D01*
X125785404Y-121435880D02*
X126356833Y-121435880D01*
X126071119Y-122435880D02*
X126071119Y-121435880D01*
X129068580Y-114828438D02*
X129878104Y-114828438D01*
X129973342Y-114780819D01*
X130020961Y-114733200D01*
X130068580Y-114637961D01*
X130068580Y-114447485D01*
X130020961Y-114352247D01*
X129973342Y-114304628D01*
X129878104Y-114257009D01*
X129068580Y-114257009D01*
X129782866Y-113828438D02*
X129782866Y-113352247D01*
X130068580Y-113923676D02*
X129068580Y-113590342D01*
X130068580Y-113257009D01*
X130068580Y-112352247D02*
X129592390Y-112685580D01*
X130068580Y-112923676D02*
X129068580Y-112923676D01*
X129068580Y-112542723D01*
X129116200Y-112447485D01*
X129163819Y-112399866D01*
X129259057Y-112352247D01*
X129401914Y-112352247D01*
X129497152Y-112399866D01*
X129544771Y-112447485D01*
X129592390Y-112542723D01*
X129592390Y-112923676D01*
X129068580Y-112066533D02*
X129068580Y-111495104D01*
X130068580Y-111780819D02*
X129068580Y-111780819D01*
X106307619Y-98988571D02*
X106640952Y-98988571D01*
X106783809Y-99512380D02*
X106307619Y-99512380D01*
X106307619Y-98512380D01*
X106783809Y-98512380D01*
X107164761Y-99464761D02*
X107307619Y-99512380D01*
X107545714Y-99512380D01*
X107640952Y-99464761D01*
X107688571Y-99417142D01*
X107736190Y-99321904D01*
X107736190Y-99226666D01*
X107688571Y-99131428D01*
X107640952Y-99083809D01*
X107545714Y-99036190D01*
X107355238Y-98988571D01*
X107260000Y-98940952D01*
X107212380Y-98893333D01*
X107164761Y-98798095D01*
X107164761Y-98702857D01*
X107212380Y-98607619D01*
X107260000Y-98560000D01*
X107355238Y-98512380D01*
X107593333Y-98512380D01*
X107736190Y-98560000D01*
X108164761Y-99512380D02*
X108164761Y-98512380D01*
X108545714Y-98512380D01*
X108640952Y-98560000D01*
X108688571Y-98607619D01*
X108736190Y-98702857D01*
X108736190Y-98845714D01*
X108688571Y-98940952D01*
X108640952Y-98988571D01*
X108545714Y-99036190D01*
X108164761Y-99036190D01*
X109069523Y-98512380D02*
X109688571Y-98512380D01*
X109355238Y-98893333D01*
X109498095Y-98893333D01*
X109593333Y-98940952D01*
X109640952Y-98988571D01*
X109688571Y-99083809D01*
X109688571Y-99321904D01*
X109640952Y-99417142D01*
X109593333Y-99464761D01*
X109498095Y-99512380D01*
X109212380Y-99512380D01*
X109117142Y-99464761D01*
X109069523Y-99417142D01*
X110069523Y-98607619D02*
X110117142Y-98560000D01*
X110212380Y-98512380D01*
X110450476Y-98512380D01*
X110545714Y-98560000D01*
X110593333Y-98607619D01*
X110640952Y-98702857D01*
X110640952Y-98798095D01*
X110593333Y-98940952D01*
X110021904Y-99512380D01*
X110640952Y-99512380D01*
X111069523Y-99131428D02*
X111831428Y-99131428D01*
X112212380Y-98512380D02*
X112450476Y-99512380D01*
X112640952Y-98798095D01*
X112831428Y-99512380D01*
X113069523Y-98512380D01*
X114021904Y-99512380D02*
X113688571Y-99036190D01*
X113450476Y-99512380D02*
X113450476Y-98512380D01*
X113831428Y-98512380D01*
X113926666Y-98560000D01*
X113974285Y-98607619D01*
X114021904Y-98702857D01*
X114021904Y-98845714D01*
X113974285Y-98940952D01*
X113926666Y-98988571D01*
X113831428Y-99036190D01*
X113450476Y-99036190D01*
X114640952Y-98512380D02*
X114831428Y-98512380D01*
X114926666Y-98560000D01*
X115021904Y-98655238D01*
X115069523Y-98845714D01*
X115069523Y-99179047D01*
X115021904Y-99369523D01*
X114926666Y-99464761D01*
X114831428Y-99512380D01*
X114640952Y-99512380D01*
X114545714Y-99464761D01*
X114450476Y-99369523D01*
X114402857Y-99179047D01*
X114402857Y-98845714D01*
X114450476Y-98655238D01*
X114545714Y-98560000D01*
X114640952Y-98512380D01*
X115688571Y-98512380D02*
X115879047Y-98512380D01*
X115974285Y-98560000D01*
X116069523Y-98655238D01*
X116117142Y-98845714D01*
X116117142Y-99179047D01*
X116069523Y-99369523D01*
X115974285Y-99464761D01*
X115879047Y-99512380D01*
X115688571Y-99512380D01*
X115593333Y-99464761D01*
X115498095Y-99369523D01*
X115450476Y-99179047D01*
X115450476Y-98845714D01*
X115498095Y-98655238D01*
X115593333Y-98560000D01*
X115688571Y-98512380D01*
X116545714Y-99512380D02*
X116545714Y-98512380D01*
X116879047Y-99226666D01*
X117212380Y-98512380D01*
X117212380Y-99512380D01*
X87647519Y-98831566D02*
X88647519Y-98831566D01*
X88647519Y-99212519D01*
X88599900Y-99307757D01*
X88552280Y-99355376D01*
X88457042Y-99402995D01*
X88314185Y-99402995D01*
X88218947Y-99355376D01*
X88171328Y-99307757D01*
X88123709Y-99212519D01*
X88123709Y-98831566D01*
X88647519Y-99736328D02*
X87647519Y-99974423D01*
X88361804Y-100164900D01*
X87647519Y-100355376D01*
X88647519Y-100593471D01*
X87647519Y-101545852D02*
X88123709Y-101212519D01*
X87647519Y-100974423D02*
X88647519Y-100974423D01*
X88647519Y-101355376D01*
X88599900Y-101450614D01*
X88552280Y-101498233D01*
X88457042Y-101545852D01*
X88314185Y-101545852D01*
X88218947Y-101498233D01*
X88171328Y-101450614D01*
X88123709Y-101355376D01*
X88123709Y-100974423D01*
X84637619Y-107386666D02*
X85637619Y-107386666D01*
X84923333Y-107720000D01*
X85637619Y-108053333D01*
X84637619Y-108053333D01*
X84637619Y-108672380D02*
X84685238Y-108577142D01*
X84732857Y-108529523D01*
X84828095Y-108481904D01*
X85113809Y-108481904D01*
X85209047Y-108529523D01*
X85256666Y-108577142D01*
X85304285Y-108672380D01*
X85304285Y-108815238D01*
X85256666Y-108910476D01*
X85209047Y-108958095D01*
X85113809Y-109005714D01*
X84828095Y-109005714D01*
X84732857Y-108958095D01*
X84685238Y-108910476D01*
X84637619Y-108815238D01*
X84637619Y-108672380D01*
X85304285Y-109291428D02*
X85304285Y-109672380D01*
X85637619Y-109434285D02*
X84780476Y-109434285D01*
X84685238Y-109481904D01*
X84637619Y-109577142D01*
X84637619Y-109672380D01*
X84637619Y-110148571D02*
X84685238Y-110053333D01*
X84732857Y-110005714D01*
X84828095Y-109958095D01*
X85113809Y-109958095D01*
X85209047Y-110005714D01*
X85256666Y-110053333D01*
X85304285Y-110148571D01*
X85304285Y-110291428D01*
X85256666Y-110386666D01*
X85209047Y-110434285D01*
X85113809Y-110481904D01*
X84828095Y-110481904D01*
X84732857Y-110434285D01*
X84685238Y-110386666D01*
X84637619Y-110291428D01*
X84637619Y-110148571D01*
X84637619Y-110910476D02*
X85304285Y-110910476D01*
X85113809Y-110910476D02*
X85209047Y-110958095D01*
X85256666Y-111005714D01*
X85304285Y-111100952D01*
X85304285Y-111196190D01*
D11*
G04 #@! TO.C,R4*
X106453000Y-121639064D02*
X106453000Y-121184936D01*
X107923000Y-121639064D02*
X107923000Y-121184936D01*
G04 #@! TO.C,R3*
X93244936Y-113565000D02*
X93699064Y-113565000D01*
X93244936Y-115035000D02*
X93699064Y-115035000D01*
G04 #@! TO.C,J7*
X89214000Y-107382000D02*
X86554000Y-107382000D01*
X89214000Y-112522000D02*
X89214000Y-107382000D01*
X86554000Y-112522000D02*
X86554000Y-107382000D01*
X89214000Y-112522000D02*
X86554000Y-112522000D01*
X89214000Y-113792000D02*
X89214000Y-115122000D01*
X89214000Y-115122000D02*
X87884000Y-115122000D01*
G04 #@! TO.C,R2*
X93244936Y-111025000D02*
X93699064Y-111025000D01*
X93244936Y-112495000D02*
X93699064Y-112495000D01*
G04 #@! TO.C,J1*
X128330000Y-118050000D02*
X128330000Y-119380000D01*
X127000000Y-118050000D02*
X128330000Y-118050000D01*
X125730000Y-118050000D02*
X125730000Y-120710000D01*
X125730000Y-120710000D02*
X123130000Y-120710000D01*
X125730000Y-118050000D02*
X123130000Y-118050000D01*
X123130000Y-118050000D02*
X123130000Y-120710000D01*
G04 #@! TO.C,C2*
X95188668Y-101480252D02*
X95188668Y-100957748D01*
X96658668Y-101480252D02*
X96658668Y-100957748D01*
G04 #@! TO.C,R1*
X131672064Y-108050000D02*
X131217936Y-108050000D01*
X131672064Y-106580000D02*
X131217936Y-106580000D01*
G04 #@! TO.C,C1*
X131183748Y-103605000D02*
X131706252Y-103605000D01*
X131183748Y-102135000D02*
X131706252Y-102135000D01*
G04 #@! TO.C,J3*
X125670000Y-114995000D02*
X128330000Y-114995000D01*
X125670000Y-102235000D02*
X125670000Y-114995000D01*
X128330000Y-102235000D02*
X128330000Y-114995000D01*
X125670000Y-102235000D02*
X128330000Y-102235000D01*
X125670000Y-100965000D02*
X125670000Y-99635000D01*
X125670000Y-99635000D02*
X127000000Y-99635000D01*
G04 #@! TO.C,D1*
X99752500Y-106405000D02*
X96867500Y-106405000D01*
X96867500Y-106405000D02*
X96867500Y-108225000D01*
X96867500Y-108225000D02*
X99752500Y-108225000D01*
G04 #@! TO.C,R5*
X115080000Y-121639064D02*
X115080000Y-121184936D01*
X116550000Y-121639064D02*
X116550000Y-121184936D01*
G04 #@! TO.C,J4*
X92135000Y-99000000D02*
X89475000Y-99000000D01*
X92135000Y-101600000D02*
X92135000Y-99000000D01*
X89475000Y-101600000D02*
X89475000Y-99000000D01*
X92135000Y-101600000D02*
X89475000Y-101600000D01*
X92135000Y-102870000D02*
X92135000Y-104200000D01*
X92135000Y-104200000D02*
X90805000Y-104200000D01*
G04 #@! TO.C,J2*
X93196100Y-122068900D02*
X93196100Y-120738900D01*
X94526100Y-122068900D02*
X93196100Y-122068900D01*
X95796100Y-122068900D02*
X95796100Y-119408900D01*
X95796100Y-119408900D02*
X103476100Y-119408900D01*
X95796100Y-122068900D02*
X103476100Y-122068900D01*
X103476100Y-122068900D02*
X103476100Y-119408900D01*
G04 #@! TO.C,U1*
X102250000Y-95965000D02*
X101870000Y-95965000D01*
X102250000Y-89545000D02*
X102250000Y-95965000D01*
X120490000Y-89545000D02*
X120490000Y-95965000D01*
X102250000Y-89545000D02*
X120490000Y-89545000D01*
X120490000Y-115290000D02*
X119490000Y-115290000D01*
X120490000Y-114510000D02*
X120490000Y-115290000D01*
X102250000Y-115290000D02*
X103250000Y-115290000D01*
X102250000Y-114510000D02*
X102250000Y-115290000D01*
G04 #@! TO.C,R4*
D10*
X105990380Y-121578666D02*
X105514190Y-121912000D01*
X105990380Y-122150095D02*
X104990380Y-122150095D01*
X104990380Y-121769142D01*
X105038000Y-121673904D01*
X105085619Y-121626285D01*
X105180857Y-121578666D01*
X105323714Y-121578666D01*
X105418952Y-121626285D01*
X105466571Y-121673904D01*
X105514190Y-121769142D01*
X105514190Y-122150095D01*
X105323714Y-120721523D02*
X105990380Y-120721523D01*
X104942761Y-120959619D02*
X105657047Y-121197714D01*
X105657047Y-120578666D01*
G04 #@! TO.C,R3*
X93305333Y-116657380D02*
X92972000Y-116181190D01*
X92733904Y-116657380D02*
X92733904Y-115657380D01*
X93114857Y-115657380D01*
X93210095Y-115705000D01*
X93257714Y-115752619D01*
X93305333Y-115847857D01*
X93305333Y-115990714D01*
X93257714Y-116085952D01*
X93210095Y-116133571D01*
X93114857Y-116181190D01*
X92733904Y-116181190D01*
X93638666Y-115657380D02*
X94257714Y-115657380D01*
X93924380Y-116038333D01*
X94067238Y-116038333D01*
X94162476Y-116085952D01*
X94210095Y-116133571D01*
X94257714Y-116228809D01*
X94257714Y-116466904D01*
X94210095Y-116562142D01*
X94162476Y-116609761D01*
X94067238Y-116657380D01*
X93781523Y-116657380D01*
X93686285Y-116609761D01*
X93638666Y-116562142D01*
G04 #@! TO.C,J7*
X87550666Y-115574380D02*
X87550666Y-116288666D01*
X87503047Y-116431523D01*
X87407809Y-116526761D01*
X87264952Y-116574380D01*
X87169714Y-116574380D01*
X87931619Y-115574380D02*
X88598285Y-115574380D01*
X88169714Y-116574380D01*
G04 #@! TO.C,R2*
X93305333Y-110562380D02*
X92972000Y-110086190D01*
X92733904Y-110562380D02*
X92733904Y-109562380D01*
X93114857Y-109562380D01*
X93210095Y-109610000D01*
X93257714Y-109657619D01*
X93305333Y-109752857D01*
X93305333Y-109895714D01*
X93257714Y-109990952D01*
X93210095Y-110038571D01*
X93114857Y-110086190D01*
X92733904Y-110086190D01*
X93686285Y-109657619D02*
X93733904Y-109610000D01*
X93829142Y-109562380D01*
X94067238Y-109562380D01*
X94162476Y-109610000D01*
X94210095Y-109657619D01*
X94257714Y-109752857D01*
X94257714Y-109848095D01*
X94210095Y-109990952D01*
X93638666Y-110562380D01*
X94257714Y-110562380D01*
G04 #@! TO.C,J1*
X128782380Y-119713333D02*
X129496666Y-119713333D01*
X129639523Y-119760952D01*
X129734761Y-119856190D01*
X129782380Y-119999047D01*
X129782380Y-120094285D01*
X129782380Y-118713333D02*
X129782380Y-119284761D01*
X129782380Y-118999047D02*
X128782380Y-118999047D01*
X128925238Y-119094285D01*
X129020476Y-119189523D01*
X129068095Y-119284761D01*
G04 #@! TO.C,C2*
X94600810Y-101385666D02*
X94648429Y-101433285D01*
X94696048Y-101576142D01*
X94696048Y-101671380D01*
X94648429Y-101814238D01*
X94553191Y-101909476D01*
X94457953Y-101957095D01*
X94267477Y-102004714D01*
X94124620Y-102004714D01*
X93934144Y-101957095D01*
X93838906Y-101909476D01*
X93743668Y-101814238D01*
X93696048Y-101671380D01*
X93696048Y-101576142D01*
X93743668Y-101433285D01*
X93791287Y-101385666D01*
X93791287Y-101004714D02*
X93743668Y-100957095D01*
X93696048Y-100861857D01*
X93696048Y-100623761D01*
X93743668Y-100528523D01*
X93791287Y-100480904D01*
X93886525Y-100433285D01*
X93981763Y-100433285D01*
X94124620Y-100480904D01*
X94696048Y-101052333D01*
X94696048Y-100433285D01*
G04 #@! TO.C,R1*
X131278333Y-109417380D02*
X130945000Y-108941190D01*
X130706904Y-109417380D02*
X130706904Y-108417380D01*
X131087857Y-108417380D01*
X131183095Y-108465000D01*
X131230714Y-108512619D01*
X131278333Y-108607857D01*
X131278333Y-108750714D01*
X131230714Y-108845952D01*
X131183095Y-108893571D01*
X131087857Y-108941190D01*
X130706904Y-108941190D01*
X132230714Y-109417380D02*
X131659285Y-109417380D01*
X131945000Y-109417380D02*
X131945000Y-108417380D01*
X131849761Y-108560238D01*
X131754523Y-108655476D01*
X131659285Y-108703095D01*
G04 #@! TO.C,C1*
X131278333Y-101547142D02*
X131230714Y-101594761D01*
X131087857Y-101642380D01*
X130992619Y-101642380D01*
X130849761Y-101594761D01*
X130754523Y-101499523D01*
X130706904Y-101404285D01*
X130659285Y-101213809D01*
X130659285Y-101070952D01*
X130706904Y-100880476D01*
X130754523Y-100785238D01*
X130849761Y-100690000D01*
X130992619Y-100642380D01*
X131087857Y-100642380D01*
X131230714Y-100690000D01*
X131278333Y-100737619D01*
X132230714Y-101642380D02*
X131659285Y-101642380D01*
X131945000Y-101642380D02*
X131945000Y-100642380D01*
X131849761Y-100785238D01*
X131754523Y-100880476D01*
X131659285Y-100928095D01*
G04 #@! TO.C,J3*
X126666666Y-98087380D02*
X126666666Y-98801666D01*
X126619047Y-98944523D01*
X126523809Y-99039761D01*
X126380952Y-99087380D01*
X126285714Y-99087380D01*
X127047619Y-98087380D02*
X127666666Y-98087380D01*
X127333333Y-98468333D01*
X127476190Y-98468333D01*
X127571428Y-98515952D01*
X127619047Y-98563571D01*
X127666666Y-98658809D01*
X127666666Y-98896904D01*
X127619047Y-98992142D01*
X127571428Y-99039761D01*
X127476190Y-99087380D01*
X127190476Y-99087380D01*
X127095238Y-99039761D01*
X127047619Y-98992142D01*
G04 #@! TO.C,D1*
X98014404Y-106167380D02*
X98014404Y-105167380D01*
X98252500Y-105167380D01*
X98395357Y-105215000D01*
X98490595Y-105310238D01*
X98538214Y-105405476D01*
X98585833Y-105595952D01*
X98585833Y-105738809D01*
X98538214Y-105929285D01*
X98490595Y-106024523D01*
X98395357Y-106119761D01*
X98252500Y-106167380D01*
X98014404Y-106167380D01*
X99538214Y-106167380D02*
X98966785Y-106167380D01*
X99252500Y-106167380D02*
X99252500Y-105167380D01*
X99157261Y-105310238D01*
X99062023Y-105405476D01*
X98966785Y-105453095D01*
G04 #@! TO.C,H2*
X133858095Y-119172380D02*
X133858095Y-118172380D01*
X133858095Y-118648571D02*
X134429523Y-118648571D01*
X134429523Y-119172380D02*
X134429523Y-118172380D01*
X134858095Y-118267619D02*
X134905714Y-118220000D01*
X135000952Y-118172380D01*
X135239047Y-118172380D01*
X135334285Y-118220000D01*
X135381904Y-118267619D01*
X135429523Y-118362857D01*
X135429523Y-118458095D01*
X135381904Y-118600952D01*
X134810476Y-119172380D01*
X135429523Y-119172380D01*
G04 #@! TO.C,H1*
X83058095Y-119172380D02*
X83058095Y-118172380D01*
X83058095Y-118648571D02*
X83629523Y-118648571D01*
X83629523Y-119172380D02*
X83629523Y-118172380D01*
X84629523Y-119172380D02*
X84058095Y-119172380D01*
X84343809Y-119172380D02*
X84343809Y-118172380D01*
X84248571Y-118315238D01*
X84153333Y-118410476D01*
X84058095Y-118458095D01*
G04 #@! TO.C,R5*
X114617380Y-121578666D02*
X114141190Y-121912000D01*
X114617380Y-122150095D02*
X113617380Y-122150095D01*
X113617380Y-121769142D01*
X113665000Y-121673904D01*
X113712619Y-121626285D01*
X113807857Y-121578666D01*
X113950714Y-121578666D01*
X114045952Y-121626285D01*
X114093571Y-121673904D01*
X114141190Y-121769142D01*
X114141190Y-122150095D01*
X113617380Y-120673904D02*
X113617380Y-121150095D01*
X114093571Y-121197714D01*
X114045952Y-121150095D01*
X113998333Y-121054857D01*
X113998333Y-120816761D01*
X114045952Y-120721523D01*
X114093571Y-120673904D01*
X114188809Y-120626285D01*
X114426904Y-120626285D01*
X114522142Y-120673904D01*
X114569761Y-120721523D01*
X114617380Y-120816761D01*
X114617380Y-121054857D01*
X114569761Y-121150095D01*
X114522142Y-121197714D01*
G04 #@! TO.C,J4*
X90471666Y-104652380D02*
X90471666Y-105366666D01*
X90424047Y-105509523D01*
X90328809Y-105604761D01*
X90185952Y-105652380D01*
X90090714Y-105652380D01*
X91376428Y-104985714D02*
X91376428Y-105652380D01*
X91138333Y-104604761D02*
X90900238Y-105319047D01*
X91519285Y-105319047D01*
G04 #@! TO.C,J2*
X91648480Y-121072233D02*
X92362766Y-121072233D01*
X92505623Y-121119852D01*
X92600861Y-121215090D01*
X92648480Y-121357947D01*
X92648480Y-121453185D01*
X91743719Y-120643661D02*
X91696100Y-120596042D01*
X91648480Y-120500804D01*
X91648480Y-120262709D01*
X91696100Y-120167471D01*
X91743719Y-120119852D01*
X91838957Y-120072233D01*
X91934195Y-120072233D01*
X92077052Y-120119852D01*
X92648480Y-120691280D01*
X92648480Y-120072233D01*
G04 #@! TO.C,U1*
X100212380Y-114601904D02*
X101021904Y-114601904D01*
X101117142Y-114554285D01*
X101164761Y-114506666D01*
X101212380Y-114411428D01*
X101212380Y-114220952D01*
X101164761Y-114125714D01*
X101117142Y-114078095D01*
X101021904Y-114030476D01*
X100212380Y-114030476D01*
X101212380Y-113030476D02*
X101212380Y-113601904D01*
X101212380Y-113316190D02*
X100212380Y-113316190D01*
X100355238Y-113411428D01*
X100450476Y-113506666D01*
X100498095Y-113601904D01*
G04 #@! TD*
%LPC*%
G04 #@! TO.C,R4*
G36*
G01*
X107638002Y-121012000D02*
X106737998Y-121012000D01*
G75*
G02*
X106488000Y-120762002I0J249998D01*
G01*
X106488000Y-120236998D01*
G75*
G02*
X106737998Y-119987000I249998J0D01*
G01*
X107638002Y-119987000D01*
G75*
G02*
X107888000Y-120236998I0J-249998D01*
G01*
X107888000Y-120762002D01*
G75*
G02*
X107638002Y-121012000I-249998J0D01*
G01*
G37*
G36*
G01*
X107638002Y-122837000D02*
X106737998Y-122837000D01*
G75*
G02*
X106488000Y-122587002I0J249998D01*
G01*
X106488000Y-122061998D01*
G75*
G02*
X106737998Y-121812000I249998J0D01*
G01*
X107638002Y-121812000D01*
G75*
G02*
X107888000Y-122061998I0J-249998D01*
G01*
X107888000Y-122587002D01*
G75*
G02*
X107638002Y-122837000I-249998J0D01*
G01*
G37*
G04 #@! TD*
G04 #@! TO.C,R3*
G36*
G01*
X93872000Y-114750002D02*
X93872000Y-113849998D01*
G75*
G02*
X94121998Y-113600000I249998J0D01*
G01*
X94647002Y-113600000D01*
G75*
G02*
X94897000Y-113849998I0J-249998D01*
G01*
X94897000Y-114750002D01*
G75*
G02*
X94647002Y-115000000I-249998J0D01*
G01*
X94121998Y-115000000D01*
G75*
G02*
X93872000Y-114750002I0J249998D01*
G01*
G37*
G36*
G01*
X92047000Y-114750002D02*
X92047000Y-113849998D01*
G75*
G02*
X92296998Y-113600000I249998J0D01*
G01*
X92822002Y-113600000D01*
G75*
G02*
X93072000Y-113849998I0J-249998D01*
G01*
X93072000Y-114750002D01*
G75*
G02*
X92822002Y-115000000I-249998J0D01*
G01*
X92296998Y-115000000D01*
G75*
G02*
X92047000Y-114750002I0J249998D01*
G01*
G37*
G04 #@! TD*
D12*
G04 #@! TO.C,J7*
X87884000Y-108712000D03*
X87884000Y-111252000D03*
D13*
X87884000Y-113792000D03*
G04 #@! TD*
G04 #@! TO.C,R2*
G36*
G01*
X93872000Y-112210002D02*
X93872000Y-111309998D01*
G75*
G02*
X94121998Y-111060000I249998J0D01*
G01*
X94647002Y-111060000D01*
G75*
G02*
X94897000Y-111309998I0J-249998D01*
G01*
X94897000Y-112210002D01*
G75*
G02*
X94647002Y-112460000I-249998J0D01*
G01*
X94121998Y-112460000D01*
G75*
G02*
X93872000Y-112210002I0J249998D01*
G01*
G37*
G36*
G01*
X92047000Y-112210002D02*
X92047000Y-111309998D01*
G75*
G02*
X92296998Y-111060000I249998J0D01*
G01*
X92822002Y-111060000D01*
G75*
G02*
X93072000Y-111309998I0J-249998D01*
G01*
X93072000Y-112210002D01*
G75*
G02*
X92822002Y-112460000I-249998J0D01*
G01*
X92296998Y-112460000D01*
G75*
G02*
X92047000Y-112210002I0J249998D01*
G01*
G37*
G04 #@! TD*
G04 #@! TO.C,J1*
X127000000Y-119380000D03*
D12*
X124460000Y-119380000D03*
G04 #@! TD*
G04 #@! TO.C,C2*
G36*
G01*
X96398668Y-100769000D02*
X95448668Y-100769000D01*
G75*
G02*
X95198668Y-100519000I0J250000D01*
G01*
X95198668Y-100019000D01*
G75*
G02*
X95448668Y-99769000I250000J0D01*
G01*
X96398668Y-99769000D01*
G75*
G02*
X96648668Y-100019000I0J-250000D01*
G01*
X96648668Y-100519000D01*
G75*
G02*
X96398668Y-100769000I-250000J0D01*
G01*
G37*
G36*
G01*
X96398668Y-102669000D02*
X95448668Y-102669000D01*
G75*
G02*
X95198668Y-102419000I0J250000D01*
G01*
X95198668Y-101919000D01*
G75*
G02*
X95448668Y-101669000I250000J0D01*
G01*
X96398668Y-101669000D01*
G75*
G02*
X96648668Y-101919000I0J-250000D01*
G01*
X96648668Y-102419000D01*
G75*
G02*
X96398668Y-102669000I-250000J0D01*
G01*
G37*
G04 #@! TD*
G04 #@! TO.C,R1*
G36*
G01*
X131045000Y-106864998D02*
X131045000Y-107765002D01*
G75*
G02*
X130795002Y-108015000I-249998J0D01*
G01*
X130269998Y-108015000D01*
G75*
G02*
X130020000Y-107765002I0J249998D01*
G01*
X130020000Y-106864998D01*
G75*
G02*
X130269998Y-106615000I249998J0D01*
G01*
X130795002Y-106615000D01*
G75*
G02*
X131045000Y-106864998I0J-249998D01*
G01*
G37*
G36*
G01*
X132870000Y-106864998D02*
X132870000Y-107765002D01*
G75*
G02*
X132620002Y-108015000I-249998J0D01*
G01*
X132094998Y-108015000D01*
G75*
G02*
X131845000Y-107765002I0J249998D01*
G01*
X131845000Y-106864998D01*
G75*
G02*
X132094998Y-106615000I249998J0D01*
G01*
X132620002Y-106615000D01*
G75*
G02*
X132870000Y-106864998I0J-249998D01*
G01*
G37*
G04 #@! TD*
G04 #@! TO.C,C1*
G36*
G01*
X129995000Y-103345000D02*
X129995000Y-102395000D01*
G75*
G02*
X130245000Y-102145000I250000J0D01*
G01*
X130745000Y-102145000D01*
G75*
G02*
X130995000Y-102395000I0J-250000D01*
G01*
X130995000Y-103345000D01*
G75*
G02*
X130745000Y-103595000I-250000J0D01*
G01*
X130245000Y-103595000D01*
G75*
G02*
X129995000Y-103345000I0J250000D01*
G01*
G37*
G36*
G01*
X131895000Y-103345000D02*
X131895000Y-102395000D01*
G75*
G02*
X132145000Y-102145000I250000J0D01*
G01*
X132645000Y-102145000D01*
G75*
G02*
X132895000Y-102395000I0J-250000D01*
G01*
X132895000Y-103345000D01*
G75*
G02*
X132645000Y-103595000I-250000J0D01*
G01*
X132145000Y-103595000D01*
G75*
G02*
X131895000Y-103345000I0J250000D01*
G01*
G37*
G04 #@! TD*
G04 #@! TO.C,J3*
X127000000Y-113665000D03*
X127000000Y-111125000D03*
X127000000Y-108585000D03*
X127000000Y-106045000D03*
X127000000Y-103505000D03*
D13*
X127000000Y-100965000D03*
G04 #@! TD*
G04 #@! TO.C,D1*
G36*
G01*
X99052500Y-107715000D02*
X99052500Y-106915000D01*
G75*
G02*
X99302500Y-106665000I250000J0D01*
G01*
X100127500Y-106665000D01*
G75*
G02*
X100377500Y-106915000I0J-250000D01*
G01*
X100377500Y-107715000D01*
G75*
G02*
X100127500Y-107965000I-250000J0D01*
G01*
X99302500Y-107965000D01*
G75*
G02*
X99052500Y-107715000I0J250000D01*
G01*
G37*
G36*
G01*
X97127500Y-107715000D02*
X97127500Y-106915000D01*
G75*
G02*
X97377500Y-106665000I250000J0D01*
G01*
X98202500Y-106665000D01*
G75*
G02*
X98452500Y-106915000I0J-250000D01*
G01*
X98452500Y-107715000D01*
G75*
G02*
X98202500Y-107965000I-250000J0D01*
G01*
X97377500Y-107965000D01*
G75*
G02*
X97127500Y-107715000I0J250000D01*
G01*
G37*
G04 #@! TD*
D14*
G04 #@! TO.C,H2*
X134620000Y-121920000D03*
G04 #@! TD*
G04 #@! TO.C,H1*
X83820000Y-121920000D03*
G04 #@! TD*
G04 #@! TO.C,R5*
G36*
G01*
X116265002Y-121012000D02*
X115364998Y-121012000D01*
G75*
G02*
X115115000Y-120762002I0J249998D01*
G01*
X115115000Y-120236998D01*
G75*
G02*
X115364998Y-119987000I249998J0D01*
G01*
X116265002Y-119987000D01*
G75*
G02*
X116515000Y-120236998I0J-249998D01*
G01*
X116515000Y-120762002D01*
G75*
G02*
X116265002Y-121012000I-249998J0D01*
G01*
G37*
G36*
G01*
X116265002Y-122837000D02*
X115364998Y-122837000D01*
G75*
G02*
X115115000Y-122587002I0J249998D01*
G01*
X115115000Y-122061998D01*
G75*
G02*
X115364998Y-121812000I249998J0D01*
G01*
X116265002Y-121812000D01*
G75*
G02*
X116515000Y-122061998I0J-249998D01*
G01*
X116515000Y-122587002D01*
G75*
G02*
X116265002Y-122837000I-249998J0D01*
G01*
G37*
G04 #@! TD*
D12*
G04 #@! TO.C,J4*
X90805000Y-100330000D03*
D13*
X90805000Y-102870000D03*
G04 #@! TD*
G04 #@! TO.C,J2*
X94526100Y-120738900D03*
D12*
X97066100Y-120738900D03*
X99606100Y-120738900D03*
X102146100Y-120738900D03*
G04 #@! TD*
D15*
G04 #@! TO.C,U1*
X110370000Y-104655000D03*
D16*
X102870000Y-97155000D03*
X102870000Y-98425000D03*
X102870000Y-99695000D03*
X102870000Y-100965000D03*
X102870000Y-102235000D03*
X102870000Y-103505000D03*
X102870000Y-104775000D03*
X102870000Y-106045000D03*
X102870000Y-107315000D03*
X102870000Y-108585000D03*
X102870000Y-109855000D03*
X102870000Y-111125000D03*
X102870000Y-112395000D03*
X102870000Y-113665000D03*
D17*
X105655000Y-114665000D03*
X106925000Y-114665000D03*
X108195000Y-114665000D03*
X109465000Y-114665000D03*
X110735000Y-114665000D03*
X112005000Y-114665000D03*
X113275000Y-114665000D03*
X114545000Y-114665000D03*
X115815000Y-114665000D03*
X117085000Y-114665000D03*
D16*
X119870000Y-113665000D03*
X119870000Y-112395000D03*
X119870000Y-111125000D03*
X119870000Y-109855000D03*
X119870000Y-108585000D03*
X119870000Y-107315000D03*
X119870000Y-106045000D03*
X119870000Y-104775000D03*
X119870000Y-103505000D03*
X119870000Y-102235000D03*
X119870000Y-100965000D03*
X119870000Y-99695000D03*
X119870000Y-98425000D03*
X119870000Y-97155000D03*
G04 #@! TD*
M02*
