G04 #@! TF.GenerationSoftware,KiCad,Pcbnew,(5.1.10)-1*
G04 #@! TF.CreationDate,2022-05-01T16:49:19-04:00*
G04 #@! TF.ProjectId,Hardware,48617264-7761-4726-952e-6b696361645f,rev?*
G04 #@! TF.SameCoordinates,Original*
G04 #@! TF.FileFunction,Copper,L1,Top*
G04 #@! TF.FilePolarity,Positive*
%FSLAX46Y46*%
G04 Gerber Fmt 4.6, Leading zero omitted, Abs format (unit mm)*
G04 Created by KiCad (PCBNEW (5.1.10)-1) date 2022-05-01 16:49:19*
%MOMM*%
%LPD*%
G01*
G04 APERTURE LIST*
G04 #@! TA.AperFunction,ComponentPad*
%ADD10O,1.700000X1.700000*%
G04 #@! TD*
G04 #@! TA.AperFunction,ComponentPad*
%ADD11R,1.700000X1.700000*%
G04 #@! TD*
G04 #@! TA.AperFunction,SMDPad,CuDef*
%ADD12R,5.000000X5.000000*%
G04 #@! TD*
G04 #@! TA.AperFunction,SMDPad,CuDef*
%ADD13R,2.000000X0.900000*%
G04 #@! TD*
G04 #@! TA.AperFunction,SMDPad,CuDef*
%ADD14R,0.900000X2.000000*%
G04 #@! TD*
G04 #@! TA.AperFunction,ViaPad*
%ADD15C,0.800000*%
G04 #@! TD*
G04 #@! TA.AperFunction,Conductor*
%ADD16C,0.250000*%
G04 #@! TD*
G04 #@! TA.AperFunction,Conductor*
%ADD17C,0.254000*%
G04 #@! TD*
G04 #@! TA.AperFunction,Conductor*
%ADD18C,0.100000*%
G04 #@! TD*
G04 APERTURE END LIST*
G04 #@! TO.P,R4,2*
G04 #@! TO.N,/MTCK*
G04 #@! TA.AperFunction,SMDPad,CuDef*
G36*
G01*
X107638002Y-121012000D02*
X106737998Y-121012000D01*
G75*
G02*
X106488000Y-120762002I0J249998D01*
G01*
X106488000Y-120236998D01*
G75*
G02*
X106737998Y-119987000I249998J0D01*
G01*
X107638002Y-119987000D01*
G75*
G02*
X107888000Y-120236998I0J-249998D01*
G01*
X107888000Y-120762002D01*
G75*
G02*
X107638002Y-121012000I-249998J0D01*
G01*
G37*
G04 #@! TD.AperFunction*
G04 #@! TO.P,R4,1*
G04 #@! TO.N,Net-(J2-Pad3)*
G04 #@! TA.AperFunction,SMDPad,CuDef*
G36*
G01*
X107638002Y-122837000D02*
X106737998Y-122837000D01*
G75*
G02*
X106488000Y-122587002I0J249998D01*
G01*
X106488000Y-122061998D01*
G75*
G02*
X106737998Y-121812000I249998J0D01*
G01*
X107638002Y-121812000D01*
G75*
G02*
X107888000Y-122061998I0J-249998D01*
G01*
X107888000Y-122587002D01*
G75*
G02*
X107638002Y-122837000I-249998J0D01*
G01*
G37*
G04 #@! TD.AperFunction*
G04 #@! TD*
G04 #@! TO.P,R3,2*
G04 #@! TO.N,/MTDI*
G04 #@! TA.AperFunction,SMDPad,CuDef*
G36*
G01*
X93872000Y-114750002D02*
X93872000Y-113849998D01*
G75*
G02*
X94121998Y-113600000I249998J0D01*
G01*
X94647002Y-113600000D01*
G75*
G02*
X94897000Y-113849998I0J-249998D01*
G01*
X94897000Y-114750002D01*
G75*
G02*
X94647002Y-115000000I-249998J0D01*
G01*
X94121998Y-115000000D01*
G75*
G02*
X93872000Y-114750002I0J249998D01*
G01*
G37*
G04 #@! TD.AperFunction*
G04 #@! TO.P,R3,1*
G04 #@! TO.N,Net-(J2-Pad2)*
G04 #@! TA.AperFunction,SMDPad,CuDef*
G36*
G01*
X92047000Y-114750002D02*
X92047000Y-113849998D01*
G75*
G02*
X92296998Y-113600000I249998J0D01*
G01*
X92822002Y-113600000D01*
G75*
G02*
X93072000Y-113849998I0J-249998D01*
G01*
X93072000Y-114750002D01*
G75*
G02*
X92822002Y-115000000I-249998J0D01*
G01*
X92296998Y-115000000D01*
G75*
G02*
X92047000Y-114750002I0J249998D01*
G01*
G37*
G04 #@! TD.AperFunction*
G04 #@! TD*
D10*
G04 #@! TO.P,J7,3*
G04 #@! TO.N,GND*
X87884000Y-108712000D03*
G04 #@! TO.P,J7,2*
G04 #@! TO.N,/MTMS*
X87884000Y-111252000D03*
D11*
G04 #@! TO.P,J7,1*
G04 #@! TO.N,/VDD33*
X87884000Y-113792000D03*
G04 #@! TD*
G04 #@! TO.P,R2,2*
G04 #@! TO.N,/MTMS*
G04 #@! TA.AperFunction,SMDPad,CuDef*
G36*
G01*
X93872000Y-112210002D02*
X93872000Y-111309998D01*
G75*
G02*
X94121998Y-111060000I249998J0D01*
G01*
X94647002Y-111060000D01*
G75*
G02*
X94897000Y-111309998I0J-249998D01*
G01*
X94897000Y-112210002D01*
G75*
G02*
X94647002Y-112460000I-249998J0D01*
G01*
X94121998Y-112460000D01*
G75*
G02*
X93872000Y-112210002I0J249998D01*
G01*
G37*
G04 #@! TD.AperFunction*
G04 #@! TO.P,R2,1*
G04 #@! TO.N,Net-(J2-Pad1)*
G04 #@! TA.AperFunction,SMDPad,CuDef*
G36*
G01*
X92047000Y-112210002D02*
X92047000Y-111309998D01*
G75*
G02*
X92296998Y-111060000I249998J0D01*
G01*
X92822002Y-111060000D01*
G75*
G02*
X93072000Y-111309998I0J-249998D01*
G01*
X93072000Y-112210002D01*
G75*
G02*
X92822002Y-112460000I-249998J0D01*
G01*
X92296998Y-112460000D01*
G75*
G02*
X92047000Y-112210002I0J249998D01*
G01*
G37*
G04 #@! TD.AperFunction*
G04 #@! TD*
G04 #@! TO.P,J1,1*
G04 #@! TO.N,/Boot_Option*
X127000000Y-119380000D03*
D10*
G04 #@! TO.P,J1,2*
G04 #@! TO.N,GND*
X124460000Y-119380000D03*
G04 #@! TD*
G04 #@! TO.P,C2,2*
G04 #@! TO.N,GND*
G04 #@! TA.AperFunction,SMDPad,CuDef*
G36*
G01*
X96398668Y-100769000D02*
X95448668Y-100769000D01*
G75*
G02*
X95198668Y-100519000I0J250000D01*
G01*
X95198668Y-100019000D01*
G75*
G02*
X95448668Y-99769000I250000J0D01*
G01*
X96398668Y-99769000D01*
G75*
G02*
X96648668Y-100019000I0J-250000D01*
G01*
X96648668Y-100519000D01*
G75*
G02*
X96398668Y-100769000I-250000J0D01*
G01*
G37*
G04 #@! TD.AperFunction*
G04 #@! TO.P,C2,1*
G04 #@! TO.N,/VDD33*
G04 #@! TA.AperFunction,SMDPad,CuDef*
G36*
G01*
X96398668Y-102669000D02*
X95448668Y-102669000D01*
G75*
G02*
X95198668Y-102419000I0J250000D01*
G01*
X95198668Y-101919000D01*
G75*
G02*
X95448668Y-101669000I250000J0D01*
G01*
X96398668Y-101669000D01*
G75*
G02*
X96648668Y-101919000I0J-250000D01*
G01*
X96648668Y-102419000D01*
G75*
G02*
X96398668Y-102669000I-250000J0D01*
G01*
G37*
G04 #@! TD.AperFunction*
G04 #@! TD*
G04 #@! TO.P,R1,2*
G04 #@! TO.N,/EN*
G04 #@! TA.AperFunction,SMDPad,CuDef*
G36*
G01*
X131045000Y-106864998D02*
X131045000Y-107765002D01*
G75*
G02*
X130795002Y-108015000I-249998J0D01*
G01*
X130269998Y-108015000D01*
G75*
G02*
X130020000Y-107765002I0J249998D01*
G01*
X130020000Y-106864998D01*
G75*
G02*
X130269998Y-106615000I249998J0D01*
G01*
X130795002Y-106615000D01*
G75*
G02*
X131045000Y-106864998I0J-249998D01*
G01*
G37*
G04 #@! TD.AperFunction*
G04 #@! TO.P,R1,1*
G04 #@! TO.N,/VDD33*
G04 #@! TA.AperFunction,SMDPad,CuDef*
G36*
G01*
X132870000Y-106864998D02*
X132870000Y-107765002D01*
G75*
G02*
X132620002Y-108015000I-249998J0D01*
G01*
X132094998Y-108015000D01*
G75*
G02*
X131845000Y-107765002I0J249998D01*
G01*
X131845000Y-106864998D01*
G75*
G02*
X132094998Y-106615000I249998J0D01*
G01*
X132620002Y-106615000D01*
G75*
G02*
X132870000Y-106864998I0J-249998D01*
G01*
G37*
G04 #@! TD.AperFunction*
G04 #@! TD*
G04 #@! TO.P,C1,1*
G04 #@! TO.N,/EN*
G04 #@! TA.AperFunction,SMDPad,CuDef*
G36*
G01*
X129995000Y-103345000D02*
X129995000Y-102395000D01*
G75*
G02*
X130245000Y-102145000I250000J0D01*
G01*
X130745000Y-102145000D01*
G75*
G02*
X130995000Y-102395000I0J-250000D01*
G01*
X130995000Y-103345000D01*
G75*
G02*
X130745000Y-103595000I-250000J0D01*
G01*
X130245000Y-103595000D01*
G75*
G02*
X129995000Y-103345000I0J250000D01*
G01*
G37*
G04 #@! TD.AperFunction*
G04 #@! TO.P,C1,2*
G04 #@! TO.N,GND*
G04 #@! TA.AperFunction,SMDPad,CuDef*
G36*
G01*
X131895000Y-103345000D02*
X131895000Y-102395000D01*
G75*
G02*
X132145000Y-102145000I250000J0D01*
G01*
X132645000Y-102145000D01*
G75*
G02*
X132895000Y-102395000I0J-250000D01*
G01*
X132895000Y-103345000D01*
G75*
G02*
X132645000Y-103595000I-250000J0D01*
G01*
X132145000Y-103595000D01*
G75*
G02*
X131895000Y-103345000I0J250000D01*
G01*
G37*
G04 #@! TD.AperFunction*
G04 #@! TD*
G04 #@! TO.P,J3,6*
G04 #@! TO.N,/Boot_Option*
X127000000Y-113665000D03*
G04 #@! TO.P,J3,5*
G04 #@! TO.N,/TXD*
X127000000Y-111125000D03*
G04 #@! TO.P,J3,4*
G04 #@! TO.N,/RXD*
X127000000Y-108585000D03*
G04 #@! TO.P,J3,3*
G04 #@! TO.N,N/C*
X127000000Y-106045000D03*
G04 #@! TO.P,J3,2*
G04 #@! TO.N,/EN*
X127000000Y-103505000D03*
D11*
G04 #@! TO.P,J3,1*
G04 #@! TO.N,GND*
X127000000Y-100965000D03*
G04 #@! TD*
G04 #@! TO.P,D1,2*
G04 #@! TO.N,/IO33*
G04 #@! TA.AperFunction,SMDPad,CuDef*
G36*
G01*
X99052500Y-107715000D02*
X99052500Y-106915000D01*
G75*
G02*
X99302500Y-106665000I250000J0D01*
G01*
X100127500Y-106665000D01*
G75*
G02*
X100377500Y-106915000I0J-250000D01*
G01*
X100377500Y-107715000D01*
G75*
G02*
X100127500Y-107965000I-250000J0D01*
G01*
X99302500Y-107965000D01*
G75*
G02*
X99052500Y-107715000I0J250000D01*
G01*
G37*
G04 #@! TD.AperFunction*
G04 #@! TO.P,D1,1*
G04 #@! TO.N,GND*
G04 #@! TA.AperFunction,SMDPad,CuDef*
G36*
G01*
X97127500Y-107715000D02*
X97127500Y-106915000D01*
G75*
G02*
X97377500Y-106665000I250000J0D01*
G01*
X98202500Y-106665000D01*
G75*
G02*
X98452500Y-106915000I0J-250000D01*
G01*
X98452500Y-107715000D01*
G75*
G02*
X98202500Y-107965000I-250000J0D01*
G01*
X97377500Y-107965000D01*
G75*
G02*
X97127500Y-107715000I0J250000D01*
G01*
G37*
G04 #@! TD.AperFunction*
G04 #@! TD*
G04 #@! TO.P,R5,2*
G04 #@! TO.N,/MTDO*
G04 #@! TA.AperFunction,SMDPad,CuDef*
G36*
G01*
X116265002Y-121012000D02*
X115364998Y-121012000D01*
G75*
G02*
X115115000Y-120762002I0J249998D01*
G01*
X115115000Y-120236998D01*
G75*
G02*
X115364998Y-119987000I249998J0D01*
G01*
X116265002Y-119987000D01*
G75*
G02*
X116515000Y-120236998I0J-249998D01*
G01*
X116515000Y-120762002D01*
G75*
G02*
X116265002Y-121012000I-249998J0D01*
G01*
G37*
G04 #@! TD.AperFunction*
G04 #@! TO.P,R5,1*
G04 #@! TO.N,Net-(J2-Pad4)*
G04 #@! TA.AperFunction,SMDPad,CuDef*
G36*
G01*
X116265002Y-122837000D02*
X115364998Y-122837000D01*
G75*
G02*
X115115000Y-122587002I0J249998D01*
G01*
X115115000Y-122061998D01*
G75*
G02*
X115364998Y-121812000I249998J0D01*
G01*
X116265002Y-121812000D01*
G75*
G02*
X116515000Y-122061998I0J-249998D01*
G01*
X116515000Y-122587002D01*
G75*
G02*
X116265002Y-122837000I-249998J0D01*
G01*
G37*
G04 #@! TD.AperFunction*
G04 #@! TD*
D10*
G04 #@! TO.P,J4,2*
G04 #@! TO.N,GND*
X90805000Y-100330000D03*
D11*
G04 #@! TO.P,J4,1*
G04 #@! TO.N,/VDD33*
X90805000Y-102870000D03*
G04 #@! TD*
G04 #@! TO.P,J2,1*
G04 #@! TO.N,Net-(J2-Pad1)*
X94526100Y-120738900D03*
D10*
G04 #@! TO.P,J2,2*
G04 #@! TO.N,Net-(J2-Pad2)*
X97066100Y-120738900D03*
G04 #@! TO.P,J2,3*
G04 #@! TO.N,Net-(J2-Pad3)*
X99606100Y-120738900D03*
G04 #@! TO.P,J2,4*
G04 #@! TO.N,Net-(J2-Pad4)*
X102146100Y-120738900D03*
G04 #@! TD*
D12*
G04 #@! TO.P,U1,39*
G04 #@! TO.N,GND*
X110370000Y-104655000D03*
D13*
G04 #@! TO.P,U1,1*
X102870000Y-97155000D03*
G04 #@! TO.P,U1,2*
G04 #@! TO.N,/VDD33*
X102870000Y-98425000D03*
G04 #@! TO.P,U1,3*
G04 #@! TO.N,/EN*
X102870000Y-99695000D03*
G04 #@! TO.P,U1,4*
G04 #@! TO.N,N/C*
X102870000Y-100965000D03*
G04 #@! TO.P,U1,5*
X102870000Y-102235000D03*
G04 #@! TO.P,U1,6*
X102870000Y-103505000D03*
G04 #@! TO.P,U1,7*
X102870000Y-104775000D03*
G04 #@! TO.P,U1,8*
X102870000Y-106045000D03*
G04 #@! TO.P,U1,9*
G04 #@! TO.N,/IO33*
X102870000Y-107315000D03*
G04 #@! TO.P,U1,10*
G04 #@! TO.N,N/C*
X102870000Y-108585000D03*
G04 #@! TO.P,U1,11*
X102870000Y-109855000D03*
G04 #@! TO.P,U1,12*
X102870000Y-111125000D03*
G04 #@! TO.P,U1,13*
G04 #@! TO.N,/MTMS*
X102870000Y-112395000D03*
G04 #@! TO.P,U1,14*
G04 #@! TO.N,/MTDI*
X102870000Y-113665000D03*
D14*
G04 #@! TO.P,U1,15*
G04 #@! TO.N,GND*
X105655000Y-114665000D03*
G04 #@! TO.P,U1,16*
G04 #@! TO.N,/MTCK*
X106925000Y-114665000D03*
G04 #@! TO.P,U1,17*
G04 #@! TO.N,N/C*
X108195000Y-114665000D03*
G04 #@! TO.P,U1,18*
X109465000Y-114665000D03*
G04 #@! TO.P,U1,19*
X110735000Y-114665000D03*
G04 #@! TO.P,U1,20*
X112005000Y-114665000D03*
G04 #@! TO.P,U1,21*
X113275000Y-114665000D03*
G04 #@! TO.P,U1,22*
X114545000Y-114665000D03*
G04 #@! TO.P,U1,23*
G04 #@! TO.N,/MTDO*
X115815000Y-114665000D03*
G04 #@! TO.P,U1,24*
G04 #@! TO.N,N/C*
X117085000Y-114665000D03*
D13*
G04 #@! TO.P,U1,25*
G04 #@! TO.N,/Boot_Option*
X119870000Y-113665000D03*
G04 #@! TO.P,U1,26*
G04 #@! TO.N,N/C*
X119870000Y-112395000D03*
G04 #@! TO.P,U1,27*
X119870000Y-111125000D03*
G04 #@! TO.P,U1,28*
X119870000Y-109855000D03*
G04 #@! TO.P,U1,29*
X119870000Y-108585000D03*
G04 #@! TO.P,U1,30*
X119870000Y-107315000D03*
G04 #@! TO.P,U1,31*
X119870000Y-106045000D03*
G04 #@! TO.P,U1,32*
X119870000Y-104775000D03*
G04 #@! TO.P,U1,33*
X119870000Y-103505000D03*
G04 #@! TO.P,U1,34*
G04 #@! TO.N,/RXD*
X119870000Y-102235000D03*
G04 #@! TO.P,U1,35*
G04 #@! TO.N,/TXD*
X119870000Y-100965000D03*
G04 #@! TO.P,U1,36*
G04 #@! TO.N,N/C*
X119870000Y-99695000D03*
G04 #@! TO.P,U1,37*
X119870000Y-98425000D03*
G04 #@! TO.P,U1,38*
G04 #@! TO.N,GND*
X119870000Y-97155000D03*
G04 #@! TD*
D15*
G04 #@! TO.N,GND*
X109855000Y-105410000D03*
X95885000Y-107315000D03*
X129540000Y-100330000D03*
X105689400Y-112585500D03*
X105194100Y-97790000D03*
X117894100Y-97383600D03*
X96608900Y-98590100D03*
G04 #@! TO.N,/TXD*
X123825000Y-103505000D03*
X123825000Y-107315000D03*
G04 #@! TO.N,/EN*
X105410000Y-101600000D03*
G04 #@! TD*
D16*
G04 #@! TO.N,GND*
X109855000Y-105410000D02*
X109855000Y-104775000D01*
X109855000Y-104775000D02*
X110490000Y-104140000D01*
X97790000Y-107315000D02*
X96520000Y-107315000D01*
X96520000Y-107315000D02*
X95885000Y-107315000D01*
X95946000Y-100269000D02*
X95885000Y-100330000D01*
X132395000Y-102870000D02*
X129855000Y-100330000D01*
X129855000Y-100330000D02*
X129540000Y-100330000D01*
X105655000Y-114665000D02*
X105655000Y-112970200D01*
X105689400Y-112935800D02*
X105689400Y-112585500D01*
X105655000Y-112970200D02*
X105689400Y-112935800D01*
X102870000Y-97155000D02*
X103174800Y-97155000D01*
X103174800Y-97155000D02*
X104368600Y-97155000D01*
X105003600Y-97790000D02*
X105194100Y-97790000D01*
X104368600Y-97155000D02*
X105003600Y-97790000D01*
X119870000Y-97155000D02*
X118122700Y-97155000D01*
X118122700Y-97155000D02*
X117894100Y-97383600D01*
X95923668Y-100269000D02*
X95923668Y-99275332D01*
X95923668Y-99275332D02*
X96608900Y-98590100D01*
G04 #@! TO.N,/VDD33*
X96351478Y-102235000D02*
X95885000Y-102235000D01*
G04 #@! TO.N,/Boot_Option*
X119870000Y-113665000D02*
X127000000Y-113665000D01*
X127000000Y-119380000D02*
X127000000Y-113665000D01*
G04 #@! TO.N,Net-(J2-Pad1)*
X92559500Y-111760000D02*
X90932000Y-113387500D01*
X90932000Y-113387500D02*
X90932000Y-116840000D01*
X90932000Y-116840000D02*
X92456000Y-118364000D01*
X92456000Y-118364000D02*
X93472000Y-118364000D01*
X93472000Y-118364000D02*
X94488000Y-119380000D01*
X94488000Y-119380000D02*
X94488000Y-120904000D01*
G04 #@! TO.N,Net-(J2-Pad2)*
X92559500Y-114300000D02*
X92559500Y-116435500D01*
X92559500Y-116435500D02*
X93472000Y-117348000D01*
X93472000Y-117348000D02*
X96012000Y-117348000D01*
X96012000Y-117348000D02*
X97028000Y-118364000D01*
X97028000Y-118364000D02*
X97028000Y-120904000D01*
X97028000Y-120904000D02*
X97028000Y-121412000D01*
G04 #@! TO.N,Net-(J2-Pad3)*
X99606100Y-120738900D02*
X101092000Y-119253000D01*
X101092000Y-119253000D02*
X104013000Y-119253000D01*
X104013000Y-119253000D02*
X104648000Y-119888000D01*
X104648000Y-119888000D02*
X104648000Y-121412000D01*
X104648000Y-121412000D02*
X105664000Y-122428000D01*
X105664000Y-122428000D02*
X107188000Y-122428000D01*
G04 #@! TO.N,Net-(J2-Pad4)*
X102146100Y-120738900D02*
X102146100Y-122974100D01*
X102146100Y-122974100D02*
X103124000Y-123952000D01*
X103124000Y-123952000D02*
X114300000Y-123952000D01*
X114300000Y-123952000D02*
X115824000Y-122428000D01*
G04 #@! TO.N,/TXD*
X119870000Y-100965000D02*
X121120000Y-100965000D01*
X121285000Y-100965000D02*
X123825000Y-103505000D01*
X121120000Y-100965000D02*
X121285000Y-100965000D01*
X123825000Y-107315000D02*
X123825000Y-107950000D01*
X123825000Y-107950000D02*
X127000000Y-111125000D01*
G04 #@! TO.N,/RXD*
X120635002Y-102235000D02*
X120015000Y-102235000D01*
X121120000Y-102235000D02*
X124460000Y-105575000D01*
X119870000Y-102235000D02*
X121120000Y-102235000D01*
X124460000Y-105575000D02*
X124460000Y-106045000D01*
X124460000Y-106045000D02*
X127000000Y-108585000D01*
G04 #@! TO.N,/IO33*
X99715000Y-107315000D02*
X102870000Y-107315000D01*
G04 #@! TO.N,/MTMS*
X94384500Y-111760000D02*
X100004880Y-111760000D01*
X100004880Y-111760000D02*
X100665280Y-112420400D01*
X100665280Y-112420400D02*
X102575360Y-112420400D01*
X94384500Y-111760000D02*
X94384500Y-111656500D01*
X88733999Y-110402001D02*
X90765999Y-110402001D01*
X87884000Y-111252000D02*
X88733999Y-110402001D01*
X90765999Y-110402001D02*
X91948000Y-109220000D01*
X91948000Y-109220000D02*
X93980000Y-109220000D01*
X93980000Y-109220000D02*
X94488000Y-109220000D01*
X94488000Y-109220000D02*
X94488000Y-111760000D01*
G04 #@! TO.N,/MTDI*
X94384500Y-114300000D02*
X100076000Y-114300000D01*
X100076000Y-114300000D02*
X100584000Y-113792000D01*
X100584000Y-113792000D02*
X102616000Y-113792000D01*
G04 #@! TO.N,/MTCK*
X107188000Y-120499500D02*
X107188000Y-115316000D01*
X107188000Y-115316000D02*
X106680000Y-114808000D01*
X106680000Y-114808000D02*
X106680000Y-115316000D01*
G04 #@! TO.N,/MTDO*
X115815000Y-120499500D02*
X115815000Y-115325000D01*
X115815000Y-115325000D02*
X115824000Y-115316000D01*
G04 #@! TO.N,/EN*
X127320000Y-103825000D02*
X127000000Y-103505000D01*
X105410000Y-100985000D02*
X105410000Y-101600000D01*
X104120000Y-99695000D02*
X105410000Y-100985000D01*
X102870000Y-99695000D02*
X104120000Y-99695000D01*
X130532500Y-107315000D02*
X130532500Y-103147500D01*
X130532500Y-103147500D02*
X130175000Y-103505000D01*
X130175000Y-103505000D02*
X127000000Y-103505000D01*
G04 #@! TD*
D17*
G04 #@! TO.N,/VDD33*
X101231928Y-97605000D02*
X101244188Y-97729482D01*
X101262546Y-97790000D01*
X101244188Y-97850518D01*
X101231928Y-97975000D01*
X101235000Y-98139250D01*
X101393750Y-98298000D01*
X102743000Y-98298000D01*
X102743000Y-98278000D01*
X102997000Y-98278000D01*
X102997000Y-98298000D01*
X103017000Y-98298000D01*
X103017000Y-98552000D01*
X102997000Y-98552000D01*
X102997000Y-98572000D01*
X102743000Y-98572000D01*
X102743000Y-98552000D01*
X101393750Y-98552000D01*
X101235000Y-98710750D01*
X101231928Y-98875000D01*
X101244188Y-98999482D01*
X101262546Y-99060000D01*
X101244188Y-99120518D01*
X101231928Y-99245000D01*
X101231928Y-100145000D01*
X101244188Y-100269482D01*
X101262546Y-100330000D01*
X101244188Y-100390518D01*
X101231928Y-100515000D01*
X101231928Y-101415000D01*
X101244188Y-101539482D01*
X101262546Y-101600000D01*
X101244188Y-101660518D01*
X101231928Y-101785000D01*
X101231928Y-102685000D01*
X101244188Y-102809482D01*
X101262546Y-102869999D01*
X101244188Y-102930518D01*
X101231928Y-103055000D01*
X101231928Y-103955000D01*
X101244188Y-104079482D01*
X101262546Y-104140000D01*
X101244188Y-104200518D01*
X101231928Y-104325000D01*
X101231928Y-105225000D01*
X101244188Y-105349482D01*
X101262546Y-105410000D01*
X101244188Y-105470518D01*
X101231928Y-105595000D01*
X101231928Y-106495000D01*
X101237837Y-106555000D01*
X100937202Y-106555000D01*
X100865905Y-106421614D01*
X100755462Y-106287038D01*
X100620886Y-106176595D01*
X100467350Y-106094528D01*
X100300754Y-106043992D01*
X100127500Y-106026928D01*
X99302500Y-106026928D01*
X99129246Y-106043992D01*
X98962650Y-106094528D01*
X98809114Y-106176595D01*
X98752500Y-106223057D01*
X98695886Y-106176595D01*
X98542350Y-106094528D01*
X98375754Y-106043992D01*
X98202500Y-106026928D01*
X97377500Y-106026928D01*
X97204246Y-106043992D01*
X97037650Y-106094528D01*
X96884114Y-106176595D01*
X96749538Y-106287038D01*
X96639095Y-106421614D01*
X96575083Y-106541372D01*
X96544774Y-106511063D01*
X96375256Y-106397795D01*
X96186898Y-106319774D01*
X95986939Y-106280000D01*
X95783061Y-106280000D01*
X95583102Y-106319774D01*
X95394744Y-106397795D01*
X95225226Y-106511063D01*
X95081063Y-106655226D01*
X94967795Y-106824744D01*
X94889774Y-107013102D01*
X94850000Y-107213061D01*
X94850000Y-107416939D01*
X94889774Y-107616898D01*
X94967795Y-107805256D01*
X95081063Y-107974774D01*
X95225226Y-108118937D01*
X95394744Y-108232205D01*
X95583102Y-108310226D01*
X95783061Y-108350000D01*
X95986939Y-108350000D01*
X96186898Y-108310226D01*
X96375256Y-108232205D01*
X96544774Y-108118937D01*
X96575083Y-108088628D01*
X96639095Y-108208386D01*
X96749538Y-108342962D01*
X96884114Y-108453405D01*
X97037650Y-108535472D01*
X97204246Y-108586008D01*
X97377500Y-108603072D01*
X98202500Y-108603072D01*
X98375754Y-108586008D01*
X98542350Y-108535472D01*
X98695886Y-108453405D01*
X98752500Y-108406943D01*
X98809114Y-108453405D01*
X98962650Y-108535472D01*
X99129246Y-108586008D01*
X99302500Y-108603072D01*
X100127500Y-108603072D01*
X100300754Y-108586008D01*
X100467350Y-108535472D01*
X100620886Y-108453405D01*
X100755462Y-108342962D01*
X100865905Y-108208386D01*
X100937202Y-108075000D01*
X101237837Y-108075000D01*
X101231928Y-108135000D01*
X101231928Y-109035000D01*
X101244188Y-109159482D01*
X101262546Y-109220000D01*
X101244188Y-109280518D01*
X101231928Y-109405000D01*
X101231928Y-110305000D01*
X101244188Y-110429482D01*
X101262546Y-110490000D01*
X101244188Y-110550518D01*
X101231928Y-110675000D01*
X101231928Y-111575000D01*
X101240339Y-111660400D01*
X100980082Y-111660400D01*
X100568683Y-111249002D01*
X100544881Y-111219999D01*
X100429156Y-111125026D01*
X100297127Y-111054454D01*
X100153866Y-111010997D01*
X100042213Y-111000000D01*
X100042202Y-111000000D01*
X100004880Y-110996324D01*
X99967558Y-111000000D01*
X95476527Y-111000000D01*
X95467472Y-110970148D01*
X95385405Y-110816613D01*
X95274962Y-110682038D01*
X95248000Y-110659911D01*
X95248000Y-109257333D01*
X95251677Y-109220000D01*
X95237003Y-109071014D01*
X95193546Y-108927753D01*
X95122974Y-108795724D01*
X95028001Y-108679999D01*
X94912276Y-108585026D01*
X94780247Y-108514454D01*
X94636986Y-108470997D01*
X94525333Y-108460000D01*
X94488000Y-108456323D01*
X94450667Y-108460000D01*
X91985323Y-108460000D01*
X91948000Y-108456324D01*
X91910677Y-108460000D01*
X91910667Y-108460000D01*
X91799014Y-108470997D01*
X91655753Y-108514454D01*
X91523724Y-108585026D01*
X91407999Y-108679999D01*
X91384201Y-108708997D01*
X90451198Y-109642001D01*
X89048587Y-109642001D01*
X89199990Y-109415411D01*
X89311932Y-109145158D01*
X89369000Y-108858260D01*
X89369000Y-108565740D01*
X89311932Y-108278842D01*
X89199990Y-108008589D01*
X89037475Y-107765368D01*
X88830632Y-107558525D01*
X88587411Y-107396010D01*
X88317158Y-107284068D01*
X88030260Y-107227000D01*
X87737740Y-107227000D01*
X87450842Y-107284068D01*
X87180589Y-107396010D01*
X86937368Y-107558525D01*
X86730525Y-107765368D01*
X86568010Y-108008589D01*
X86456068Y-108278842D01*
X86399000Y-108565740D01*
X86399000Y-108858260D01*
X86456068Y-109145158D01*
X86568010Y-109415411D01*
X86730525Y-109658632D01*
X86937368Y-109865475D01*
X87111760Y-109982000D01*
X86937368Y-110098525D01*
X86730525Y-110305368D01*
X86568010Y-110548589D01*
X86456068Y-110818842D01*
X86399000Y-111105740D01*
X86399000Y-111398260D01*
X86456068Y-111685158D01*
X86568010Y-111955411D01*
X86730525Y-112198632D01*
X86862380Y-112330487D01*
X86789820Y-112352498D01*
X86679506Y-112411463D01*
X86582815Y-112490815D01*
X86503463Y-112587506D01*
X86444498Y-112697820D01*
X86408188Y-112817518D01*
X86395928Y-112942000D01*
X86399000Y-113506250D01*
X86557750Y-113665000D01*
X87757000Y-113665000D01*
X87757000Y-113645000D01*
X88011000Y-113645000D01*
X88011000Y-113665000D01*
X89210250Y-113665000D01*
X89369000Y-113506250D01*
X89372072Y-112942000D01*
X89359812Y-112817518D01*
X89323502Y-112697820D01*
X89264537Y-112587506D01*
X89185185Y-112490815D01*
X89088494Y-112411463D01*
X88978180Y-112352498D01*
X88905620Y-112330487D01*
X89037475Y-112198632D01*
X89199990Y-111955411D01*
X89311932Y-111685158D01*
X89369000Y-111398260D01*
X89369000Y-111162001D01*
X90728677Y-111162001D01*
X90765999Y-111165677D01*
X90803321Y-111162001D01*
X90803332Y-111162001D01*
X90914985Y-111151004D01*
X91058246Y-111107547D01*
X91190275Y-111036975D01*
X91306000Y-110942002D01*
X91329803Y-110912998D01*
X92262802Y-109980000D01*
X93728000Y-109980000D01*
X93728001Y-110518471D01*
X93628613Y-110571595D01*
X93494038Y-110682038D01*
X93472000Y-110708891D01*
X93449962Y-110682038D01*
X93315387Y-110571595D01*
X93161852Y-110489528D01*
X92995256Y-110438992D01*
X92822002Y-110421928D01*
X92296998Y-110421928D01*
X92123744Y-110438992D01*
X91957148Y-110489528D01*
X91803613Y-110571595D01*
X91669038Y-110682038D01*
X91558595Y-110816613D01*
X91476528Y-110970148D01*
X91425992Y-111136744D01*
X91408928Y-111309998D01*
X91408928Y-111835770D01*
X90421003Y-112823696D01*
X90391999Y-112847499D01*
X90359255Y-112887398D01*
X90297026Y-112963224D01*
X90237014Y-113075498D01*
X90226454Y-113095254D01*
X90182997Y-113238515D01*
X90172000Y-113350168D01*
X90172000Y-113350178D01*
X90168324Y-113387500D01*
X90172000Y-113424823D01*
X90172001Y-116802668D01*
X90168324Y-116840000D01*
X90182998Y-116988985D01*
X90226454Y-117132246D01*
X90297026Y-117264276D01*
X90365737Y-117348000D01*
X90392000Y-117380001D01*
X90420998Y-117403799D01*
X91892205Y-118875008D01*
X91915999Y-118904001D01*
X91944992Y-118927795D01*
X91944996Y-118927799D01*
X92015685Y-118985811D01*
X92031724Y-118998974D01*
X92163753Y-119069546D01*
X92307014Y-119113003D01*
X92418667Y-119124000D01*
X92418676Y-119124000D01*
X92455999Y-119127676D01*
X92493322Y-119124000D01*
X93157199Y-119124000D01*
X93367194Y-119333995D01*
X93321606Y-119358363D01*
X93224915Y-119437715D01*
X93145563Y-119534406D01*
X93086598Y-119644720D01*
X93050288Y-119764418D01*
X93038028Y-119888900D01*
X93038028Y-121588900D01*
X93050288Y-121713382D01*
X93086598Y-121833080D01*
X93145563Y-121943394D01*
X93224915Y-122040085D01*
X93321606Y-122119437D01*
X93431920Y-122178402D01*
X93551618Y-122214712D01*
X93676100Y-122226972D01*
X95376100Y-122226972D01*
X95500582Y-122214712D01*
X95620280Y-122178402D01*
X95730594Y-122119437D01*
X95827285Y-122040085D01*
X95906637Y-121943394D01*
X95965602Y-121833080D01*
X95987613Y-121760520D01*
X96119468Y-121892375D01*
X96362689Y-122054890D01*
X96632942Y-122166832D01*
X96919840Y-122223900D01*
X97212360Y-122223900D01*
X97499258Y-122166832D01*
X97769511Y-122054890D01*
X98012732Y-121892375D01*
X98219575Y-121685532D01*
X98336100Y-121511140D01*
X98452625Y-121685532D01*
X98659468Y-121892375D01*
X98902689Y-122054890D01*
X99172942Y-122166832D01*
X99459840Y-122223900D01*
X99752360Y-122223900D01*
X100039258Y-122166832D01*
X100309511Y-122054890D01*
X100552732Y-121892375D01*
X100759575Y-121685532D01*
X100876100Y-121511140D01*
X100992625Y-121685532D01*
X101199468Y-121892375D01*
X101386101Y-122017079D01*
X101386101Y-122936768D01*
X101382424Y-122974100D01*
X101386101Y-123011433D01*
X101392893Y-123080387D01*
X101397098Y-123123085D01*
X101440554Y-123266346D01*
X101511126Y-123398376D01*
X101582301Y-123485102D01*
X101606100Y-123514101D01*
X101635098Y-123537899D01*
X102560205Y-124463008D01*
X102583999Y-124492001D01*
X102612992Y-124515795D01*
X102612996Y-124515799D01*
X102683685Y-124573811D01*
X102699724Y-124586974D01*
X102831753Y-124657546D01*
X102975014Y-124701003D01*
X103086667Y-124712000D01*
X103086676Y-124712000D01*
X103123999Y-124715676D01*
X103161322Y-124712000D01*
X114262678Y-124712000D01*
X114300000Y-124715676D01*
X114337322Y-124712000D01*
X114337333Y-124712000D01*
X114448986Y-124701003D01*
X114592247Y-124657546D01*
X114724276Y-124586974D01*
X114840001Y-124492001D01*
X114863803Y-124462998D01*
X115851730Y-123475072D01*
X116265002Y-123475072D01*
X116438256Y-123458008D01*
X116604852Y-123407472D01*
X116758387Y-123325405D01*
X116892962Y-123214962D01*
X117003405Y-123080387D01*
X117085472Y-122926852D01*
X117136008Y-122760256D01*
X117153072Y-122587002D01*
X117153072Y-122061998D01*
X117136008Y-121888744D01*
X117095147Y-121754042D01*
X132935000Y-121754042D01*
X132935000Y-122085958D01*
X132999754Y-122411496D01*
X133126772Y-122718147D01*
X133311175Y-122994125D01*
X133545875Y-123228825D01*
X133821853Y-123413228D01*
X134128504Y-123540246D01*
X134454042Y-123605000D01*
X134785958Y-123605000D01*
X135111496Y-123540246D01*
X135418147Y-123413228D01*
X135694125Y-123228825D01*
X135928825Y-122994125D01*
X136113228Y-122718147D01*
X136240246Y-122411496D01*
X136305000Y-122085958D01*
X136305000Y-121754042D01*
X136240246Y-121428504D01*
X136113228Y-121121853D01*
X135928825Y-120845875D01*
X135694125Y-120611175D01*
X135418147Y-120426772D01*
X135111496Y-120299754D01*
X134785958Y-120235000D01*
X134454042Y-120235000D01*
X134128504Y-120299754D01*
X133821853Y-120426772D01*
X133545875Y-120611175D01*
X133311175Y-120845875D01*
X133126772Y-121121853D01*
X132999754Y-121428504D01*
X132935000Y-121754042D01*
X117095147Y-121754042D01*
X117085472Y-121722148D01*
X117003405Y-121568613D01*
X116892962Y-121434038D01*
X116866109Y-121412000D01*
X116892962Y-121389962D01*
X117003405Y-121255387D01*
X117085472Y-121101852D01*
X117136008Y-120935256D01*
X117153072Y-120762002D01*
X117153072Y-120236998D01*
X117136008Y-120063744D01*
X117085472Y-119897148D01*
X117003405Y-119743613D01*
X116892962Y-119609038D01*
X116758387Y-119498595D01*
X116604852Y-119416528D01*
X116575000Y-119407473D01*
X116575000Y-116297163D01*
X116635000Y-116303072D01*
X117535000Y-116303072D01*
X117659482Y-116290812D01*
X117779180Y-116254502D01*
X117889494Y-116195537D01*
X117986185Y-116116185D01*
X118065537Y-116019494D01*
X118124502Y-115909180D01*
X118160812Y-115789482D01*
X118173072Y-115665000D01*
X118173072Y-113665000D01*
X118160812Y-113540518D01*
X118124502Y-113420820D01*
X118065537Y-113310506D01*
X117986185Y-113213815D01*
X117916956Y-113157000D01*
X118110000Y-113157000D01*
X118134776Y-113154560D01*
X118158601Y-113147333D01*
X118180557Y-113135597D01*
X118199803Y-113119803D01*
X118215597Y-113100557D01*
X118227333Y-113078601D01*
X118234560Y-113054776D01*
X118237000Y-113030000D01*
X118237000Y-112896499D01*
X118244188Y-112969482D01*
X118262546Y-113030000D01*
X118244188Y-113090518D01*
X118231928Y-113215000D01*
X118231928Y-114115000D01*
X118244188Y-114239482D01*
X118280498Y-114359180D01*
X118339463Y-114469494D01*
X118418815Y-114566185D01*
X118515506Y-114645537D01*
X118625820Y-114704502D01*
X118745518Y-114740812D01*
X118870000Y-114753072D01*
X120870000Y-114753072D01*
X120994482Y-114740812D01*
X121114180Y-114704502D01*
X121224494Y-114645537D01*
X121321185Y-114566185D01*
X121400537Y-114469494D01*
X121424320Y-114425000D01*
X125721822Y-114425000D01*
X125846525Y-114611632D01*
X126053368Y-114818475D01*
X126240001Y-114943179D01*
X126240000Y-117891928D01*
X126150000Y-117891928D01*
X126025518Y-117904188D01*
X125905820Y-117940498D01*
X125795506Y-117999463D01*
X125698815Y-118078815D01*
X125619463Y-118175506D01*
X125560498Y-118285820D01*
X125538487Y-118358380D01*
X125406632Y-118226525D01*
X125163411Y-118064010D01*
X124893158Y-117952068D01*
X124606260Y-117895000D01*
X124313740Y-117895000D01*
X124026842Y-117952068D01*
X123756589Y-118064010D01*
X123513368Y-118226525D01*
X123306525Y-118433368D01*
X123144010Y-118676589D01*
X123032068Y-118946842D01*
X122975000Y-119233740D01*
X122975000Y-119526260D01*
X123032068Y-119813158D01*
X123144010Y-120083411D01*
X123306525Y-120326632D01*
X123513368Y-120533475D01*
X123756589Y-120695990D01*
X124026842Y-120807932D01*
X124313740Y-120865000D01*
X124606260Y-120865000D01*
X124893158Y-120807932D01*
X125163411Y-120695990D01*
X125406632Y-120533475D01*
X125538487Y-120401620D01*
X125560498Y-120474180D01*
X125619463Y-120584494D01*
X125698815Y-120681185D01*
X125795506Y-120760537D01*
X125905820Y-120819502D01*
X126025518Y-120855812D01*
X126150000Y-120868072D01*
X127850000Y-120868072D01*
X127974482Y-120855812D01*
X128094180Y-120819502D01*
X128204494Y-120760537D01*
X128301185Y-120681185D01*
X128380537Y-120584494D01*
X128439502Y-120474180D01*
X128475812Y-120354482D01*
X128488072Y-120230000D01*
X128488072Y-118530000D01*
X128475812Y-118405518D01*
X128439502Y-118285820D01*
X128380537Y-118175506D01*
X128301185Y-118078815D01*
X128204494Y-117999463D01*
X128094180Y-117940498D01*
X127974482Y-117904188D01*
X127850000Y-117891928D01*
X127760000Y-117891928D01*
X127760000Y-114943178D01*
X127946632Y-114818475D01*
X128153475Y-114611632D01*
X128315990Y-114368411D01*
X128427932Y-114098158D01*
X128485000Y-113811260D01*
X128485000Y-113518740D01*
X128427932Y-113231842D01*
X128315990Y-112961589D01*
X128153475Y-112718368D01*
X127946632Y-112511525D01*
X127772240Y-112395000D01*
X127946632Y-112278475D01*
X128153475Y-112071632D01*
X128315990Y-111828411D01*
X128427932Y-111558158D01*
X128485000Y-111271260D01*
X128485000Y-110978740D01*
X128427932Y-110691842D01*
X128315990Y-110421589D01*
X128153475Y-110178368D01*
X127946632Y-109971525D01*
X127772240Y-109855000D01*
X127946632Y-109738475D01*
X128153475Y-109531632D01*
X128315990Y-109288411D01*
X128427932Y-109018158D01*
X128485000Y-108731260D01*
X128485000Y-108438740D01*
X128427932Y-108151842D01*
X128315990Y-107881589D01*
X128153475Y-107638368D01*
X127946632Y-107431525D01*
X127772240Y-107315000D01*
X127946632Y-107198475D01*
X128153475Y-106991632D01*
X128315990Y-106748411D01*
X128427932Y-106478158D01*
X128485000Y-106191260D01*
X128485000Y-105898740D01*
X128427932Y-105611842D01*
X128315990Y-105341589D01*
X128153475Y-105098368D01*
X127946632Y-104891525D01*
X127772240Y-104775000D01*
X127946632Y-104658475D01*
X128153475Y-104451632D01*
X128278178Y-104265000D01*
X129772501Y-104265000D01*
X129772500Y-106129970D01*
X129642038Y-106237038D01*
X129531595Y-106371613D01*
X129449528Y-106525148D01*
X129398992Y-106691744D01*
X129381928Y-106864998D01*
X129381928Y-107765002D01*
X129398992Y-107938256D01*
X129449528Y-108104852D01*
X129531595Y-108258387D01*
X129642038Y-108392962D01*
X129776613Y-108503405D01*
X129930148Y-108585472D01*
X130096744Y-108636008D01*
X130269998Y-108653072D01*
X130795002Y-108653072D01*
X130968256Y-108636008D01*
X131134852Y-108585472D01*
X131288387Y-108503405D01*
X131369637Y-108436724D01*
X131393815Y-108466185D01*
X131490506Y-108545537D01*
X131600820Y-108604502D01*
X131720518Y-108640812D01*
X131845000Y-108653072D01*
X132071750Y-108650000D01*
X132230500Y-108491250D01*
X132230500Y-107442000D01*
X132484500Y-107442000D01*
X132484500Y-108491250D01*
X132643250Y-108650000D01*
X132870000Y-108653072D01*
X132994482Y-108640812D01*
X133114180Y-108604502D01*
X133224494Y-108545537D01*
X133321185Y-108466185D01*
X133400537Y-108369494D01*
X133459502Y-108259180D01*
X133495812Y-108139482D01*
X133508072Y-108015000D01*
X133505000Y-107600750D01*
X133346250Y-107442000D01*
X132484500Y-107442000D01*
X132230500Y-107442000D01*
X132210500Y-107442000D01*
X132210500Y-107188000D01*
X132230500Y-107188000D01*
X132230500Y-106138750D01*
X132484500Y-106138750D01*
X132484500Y-107188000D01*
X133346250Y-107188000D01*
X133505000Y-107029250D01*
X133508072Y-106615000D01*
X133495812Y-106490518D01*
X133459502Y-106370820D01*
X133400537Y-106260506D01*
X133321185Y-106163815D01*
X133224494Y-106084463D01*
X133114180Y-106025498D01*
X132994482Y-105989188D01*
X132870000Y-105976928D01*
X132643250Y-105980000D01*
X132484500Y-106138750D01*
X132230500Y-106138750D01*
X132071750Y-105980000D01*
X131845000Y-105976928D01*
X131720518Y-105989188D01*
X131600820Y-106025498D01*
X131490506Y-106084463D01*
X131393815Y-106163815D01*
X131369637Y-106193276D01*
X131292500Y-106129970D01*
X131292500Y-104038995D01*
X131372962Y-103972962D01*
X131445000Y-103885183D01*
X131517038Y-103972962D01*
X131651614Y-104083405D01*
X131805150Y-104165472D01*
X131971746Y-104216008D01*
X132145000Y-104233072D01*
X132645000Y-104233072D01*
X132818254Y-104216008D01*
X132984850Y-104165472D01*
X133138386Y-104083405D01*
X133272962Y-103972962D01*
X133383405Y-103838386D01*
X133465472Y-103684850D01*
X133516008Y-103518254D01*
X133533072Y-103345000D01*
X133533072Y-102395000D01*
X133516008Y-102221746D01*
X133465472Y-102055150D01*
X133383405Y-101901614D01*
X133272962Y-101767038D01*
X133138386Y-101656595D01*
X132984850Y-101574528D01*
X132818254Y-101523992D01*
X132645000Y-101506928D01*
X132145000Y-101506928D01*
X132110162Y-101510359D01*
X130469693Y-99869892D01*
X130457205Y-99839744D01*
X130343937Y-99670226D01*
X130199774Y-99526063D01*
X130030256Y-99412795D01*
X129841898Y-99334774D01*
X129641939Y-99295000D01*
X129438061Y-99295000D01*
X129238102Y-99334774D01*
X129049744Y-99412795D01*
X128880226Y-99526063D01*
X128736063Y-99670226D01*
X128622795Y-99839744D01*
X128544774Y-100028102D01*
X128505000Y-100228061D01*
X128505000Y-100431939D01*
X128544774Y-100631898D01*
X128622795Y-100820256D01*
X128736063Y-100989774D01*
X128880226Y-101133937D01*
X129049744Y-101247205D01*
X129238102Y-101325226D01*
X129438061Y-101365000D01*
X129641939Y-101365000D01*
X129786453Y-101336255D01*
X129996896Y-101546697D01*
X129905150Y-101574528D01*
X129751614Y-101656595D01*
X129617038Y-101767038D01*
X129506595Y-101901614D01*
X129424528Y-102055150D01*
X129373992Y-102221746D01*
X129356928Y-102395000D01*
X129356928Y-102745000D01*
X128278178Y-102745000D01*
X128153475Y-102558368D01*
X128021620Y-102426513D01*
X128094180Y-102404502D01*
X128204494Y-102345537D01*
X128301185Y-102266185D01*
X128380537Y-102169494D01*
X128439502Y-102059180D01*
X128475812Y-101939482D01*
X128488072Y-101815000D01*
X128488072Y-100115000D01*
X128475812Y-99990518D01*
X128439502Y-99870820D01*
X128380537Y-99760506D01*
X128301185Y-99663815D01*
X128204494Y-99584463D01*
X128094180Y-99525498D01*
X127974482Y-99489188D01*
X127850000Y-99476928D01*
X126150000Y-99476928D01*
X126025518Y-99489188D01*
X125905820Y-99525498D01*
X125795506Y-99584463D01*
X125698815Y-99663815D01*
X125619463Y-99760506D01*
X125560498Y-99870820D01*
X125524188Y-99990518D01*
X125511928Y-100115000D01*
X125511928Y-101815000D01*
X125524188Y-101939482D01*
X125560498Y-102059180D01*
X125619463Y-102169494D01*
X125698815Y-102266185D01*
X125795506Y-102345537D01*
X125905820Y-102404502D01*
X125978380Y-102426513D01*
X125846525Y-102558368D01*
X125684010Y-102801589D01*
X125572068Y-103071842D01*
X125515000Y-103358740D01*
X125515000Y-103651260D01*
X125572068Y-103938158D01*
X125684010Y-104208411D01*
X125846525Y-104451632D01*
X126053368Y-104658475D01*
X126227760Y-104775000D01*
X126053368Y-104891525D01*
X125846525Y-105098368D01*
X125684010Y-105341589D01*
X125572068Y-105611842D01*
X125515000Y-105898740D01*
X125515000Y-106025199D01*
X125220000Y-105730199D01*
X125220000Y-105612322D01*
X125223676Y-105574999D01*
X125220000Y-105537676D01*
X125220000Y-105537667D01*
X125209003Y-105426014D01*
X125165546Y-105282753D01*
X125094974Y-105150724D01*
X125000001Y-105034999D01*
X124971004Y-105011202D01*
X124355270Y-104395468D01*
X124484774Y-104308937D01*
X124628937Y-104164774D01*
X124742205Y-103995256D01*
X124820226Y-103806898D01*
X124860000Y-103606939D01*
X124860000Y-103403061D01*
X124820226Y-103203102D01*
X124742205Y-103014744D01*
X124628937Y-102845226D01*
X124484774Y-102701063D01*
X124315256Y-102587795D01*
X124126898Y-102509774D01*
X123926939Y-102470000D01*
X123864803Y-102470000D01*
X121848804Y-100454003D01*
X121825001Y-100424999D01*
X121709276Y-100330026D01*
X121577247Y-100259454D01*
X121499133Y-100235759D01*
X121508072Y-100145000D01*
X121508072Y-99245000D01*
X121495812Y-99120518D01*
X121477454Y-99060000D01*
X121495812Y-98999482D01*
X121508072Y-98875000D01*
X121508072Y-97975000D01*
X121495812Y-97850518D01*
X121477454Y-97790000D01*
X121495812Y-97729482D01*
X121508072Y-97605000D01*
X121508072Y-97205000D01*
X137745000Y-97205000D01*
X137745001Y-126315000D01*
X80695000Y-126315000D01*
X80695000Y-121754042D01*
X82135000Y-121754042D01*
X82135000Y-122085958D01*
X82199754Y-122411496D01*
X82326772Y-122718147D01*
X82511175Y-122994125D01*
X82745875Y-123228825D01*
X83021853Y-123413228D01*
X83328504Y-123540246D01*
X83654042Y-123605000D01*
X83985958Y-123605000D01*
X84311496Y-123540246D01*
X84618147Y-123413228D01*
X84894125Y-123228825D01*
X85128825Y-122994125D01*
X85313228Y-122718147D01*
X85440246Y-122411496D01*
X85505000Y-122085958D01*
X85505000Y-121754042D01*
X85440246Y-121428504D01*
X85313228Y-121121853D01*
X85128825Y-120845875D01*
X84894125Y-120611175D01*
X84618147Y-120426772D01*
X84311496Y-120299754D01*
X83985958Y-120235000D01*
X83654042Y-120235000D01*
X83328504Y-120299754D01*
X83021853Y-120426772D01*
X82745875Y-120611175D01*
X82511175Y-120845875D01*
X82326772Y-121121853D01*
X82199754Y-121428504D01*
X82135000Y-121754042D01*
X80695000Y-121754042D01*
X80695000Y-114642000D01*
X86395928Y-114642000D01*
X86408188Y-114766482D01*
X86444498Y-114886180D01*
X86503463Y-114996494D01*
X86582815Y-115093185D01*
X86679506Y-115172537D01*
X86789820Y-115231502D01*
X86909518Y-115267812D01*
X87034000Y-115280072D01*
X87598250Y-115277000D01*
X87757000Y-115118250D01*
X87757000Y-113919000D01*
X88011000Y-113919000D01*
X88011000Y-115118250D01*
X88169750Y-115277000D01*
X88734000Y-115280072D01*
X88858482Y-115267812D01*
X88978180Y-115231502D01*
X89088494Y-115172537D01*
X89185185Y-115093185D01*
X89264537Y-114996494D01*
X89323502Y-114886180D01*
X89359812Y-114766482D01*
X89372072Y-114642000D01*
X89369000Y-114077750D01*
X89210250Y-113919000D01*
X88011000Y-113919000D01*
X87757000Y-113919000D01*
X86557750Y-113919000D01*
X86399000Y-114077750D01*
X86395928Y-114642000D01*
X80695000Y-114642000D01*
X80695000Y-103720000D01*
X89316928Y-103720000D01*
X89329188Y-103844482D01*
X89365498Y-103964180D01*
X89424463Y-104074494D01*
X89503815Y-104171185D01*
X89600506Y-104250537D01*
X89710820Y-104309502D01*
X89830518Y-104345812D01*
X89955000Y-104358072D01*
X90519250Y-104355000D01*
X90678000Y-104196250D01*
X90678000Y-102997000D01*
X90932000Y-102997000D01*
X90932000Y-104196250D01*
X91090750Y-104355000D01*
X91655000Y-104358072D01*
X91779482Y-104345812D01*
X91899180Y-104309502D01*
X92009494Y-104250537D01*
X92106185Y-104171185D01*
X92185537Y-104074494D01*
X92244502Y-103964180D01*
X92280812Y-103844482D01*
X92293072Y-103720000D01*
X92290000Y-103155750D01*
X92131250Y-102997000D01*
X90932000Y-102997000D01*
X90678000Y-102997000D01*
X89478750Y-102997000D01*
X89320000Y-103155750D01*
X89316928Y-103720000D01*
X80695000Y-103720000D01*
X80695000Y-102020000D01*
X89316928Y-102020000D01*
X89320000Y-102584250D01*
X89478750Y-102743000D01*
X90678000Y-102743000D01*
X90678000Y-102723000D01*
X90932000Y-102723000D01*
X90932000Y-102743000D01*
X92131250Y-102743000D01*
X92205250Y-102669000D01*
X94560596Y-102669000D01*
X94572856Y-102793482D01*
X94609166Y-102913180D01*
X94668131Y-103023494D01*
X94747483Y-103120185D01*
X94844174Y-103199537D01*
X94954488Y-103258502D01*
X95074186Y-103294812D01*
X95198668Y-103307072D01*
X95637918Y-103304000D01*
X95796668Y-103145250D01*
X95796668Y-102296000D01*
X96050668Y-102296000D01*
X96050668Y-103145250D01*
X96209418Y-103304000D01*
X96648668Y-103307072D01*
X96773150Y-103294812D01*
X96892848Y-103258502D01*
X97003162Y-103199537D01*
X97099853Y-103120185D01*
X97179205Y-103023494D01*
X97238170Y-102913180D01*
X97274480Y-102793482D01*
X97286740Y-102669000D01*
X97283668Y-102454750D01*
X97124918Y-102296000D01*
X96050668Y-102296000D01*
X95796668Y-102296000D01*
X94722418Y-102296000D01*
X94563668Y-102454750D01*
X94560596Y-102669000D01*
X92205250Y-102669000D01*
X92290000Y-102584250D01*
X92293072Y-102020000D01*
X92280812Y-101895518D01*
X92244502Y-101775820D01*
X92185537Y-101665506D01*
X92106185Y-101568815D01*
X92009494Y-101489463D01*
X91899180Y-101430498D01*
X91826620Y-101408487D01*
X91958475Y-101276632D01*
X92120990Y-101033411D01*
X92232932Y-100763158D01*
X92290000Y-100476260D01*
X92290000Y-100183740D01*
X92257231Y-100019000D01*
X94560596Y-100019000D01*
X94560596Y-100519000D01*
X94577660Y-100692254D01*
X94628196Y-100858850D01*
X94710263Y-101012386D01*
X94820706Y-101146962D01*
X94827262Y-101152342D01*
X94747483Y-101217815D01*
X94668131Y-101314506D01*
X94609166Y-101424820D01*
X94572856Y-101544518D01*
X94560596Y-101669000D01*
X94563668Y-101883250D01*
X94722418Y-102042000D01*
X95796668Y-102042000D01*
X95796668Y-102022000D01*
X96050668Y-102022000D01*
X96050668Y-102042000D01*
X97124918Y-102042000D01*
X97283668Y-101883250D01*
X97286740Y-101669000D01*
X97274480Y-101544518D01*
X97238170Y-101424820D01*
X97179205Y-101314506D01*
X97099853Y-101217815D01*
X97020074Y-101152342D01*
X97026630Y-101146962D01*
X97137073Y-101012386D01*
X97219140Y-100858850D01*
X97269676Y-100692254D01*
X97286740Y-100519000D01*
X97286740Y-100019000D01*
X97269676Y-99845746D01*
X97219140Y-99679150D01*
X97137073Y-99525614D01*
X97113940Y-99497427D01*
X97268674Y-99394037D01*
X97412837Y-99249874D01*
X97526105Y-99080356D01*
X97604126Y-98891998D01*
X97643900Y-98692039D01*
X97643900Y-98488161D01*
X97604126Y-98288202D01*
X97526105Y-98099844D01*
X97412837Y-97930326D01*
X97268674Y-97786163D01*
X97099156Y-97672895D01*
X96910798Y-97594874D01*
X96710839Y-97555100D01*
X96506961Y-97555100D01*
X96307002Y-97594874D01*
X96118644Y-97672895D01*
X95949126Y-97786163D01*
X95804963Y-97930326D01*
X95691695Y-98099844D01*
X95613674Y-98288202D01*
X95573900Y-98488161D01*
X95573900Y-98550298D01*
X95412665Y-98711533D01*
X95383668Y-98735331D01*
X95359870Y-98764329D01*
X95359869Y-98764330D01*
X95288694Y-98851056D01*
X95218122Y-98983086D01*
X95174666Y-99126347D01*
X95169366Y-99180161D01*
X95108818Y-99198528D01*
X94955282Y-99280595D01*
X94820706Y-99391038D01*
X94710263Y-99525614D01*
X94628196Y-99679150D01*
X94577660Y-99845746D01*
X94560596Y-100019000D01*
X92257231Y-100019000D01*
X92232932Y-99896842D01*
X92120990Y-99626589D01*
X91958475Y-99383368D01*
X91751632Y-99176525D01*
X91508411Y-99014010D01*
X91238158Y-98902068D01*
X90951260Y-98845000D01*
X90658740Y-98845000D01*
X90371842Y-98902068D01*
X90101589Y-99014010D01*
X89858368Y-99176525D01*
X89651525Y-99383368D01*
X89489010Y-99626589D01*
X89377068Y-99896842D01*
X89320000Y-100183740D01*
X89320000Y-100476260D01*
X89377068Y-100763158D01*
X89489010Y-101033411D01*
X89651525Y-101276632D01*
X89783380Y-101408487D01*
X89710820Y-101430498D01*
X89600506Y-101489463D01*
X89503815Y-101568815D01*
X89424463Y-101665506D01*
X89365498Y-101775820D01*
X89329188Y-101895518D01*
X89316928Y-102020000D01*
X80695000Y-102020000D01*
X80695000Y-97205000D01*
X101231928Y-97205000D01*
X101231928Y-97605000D01*
G04 #@! TA.AperFunction,Conductor*
D18*
G36*
X101231928Y-97605000D02*
G01*
X101244188Y-97729482D01*
X101262546Y-97790000D01*
X101244188Y-97850518D01*
X101231928Y-97975000D01*
X101235000Y-98139250D01*
X101393750Y-98298000D01*
X102743000Y-98298000D01*
X102743000Y-98278000D01*
X102997000Y-98278000D01*
X102997000Y-98298000D01*
X103017000Y-98298000D01*
X103017000Y-98552000D01*
X102997000Y-98552000D01*
X102997000Y-98572000D01*
X102743000Y-98572000D01*
X102743000Y-98552000D01*
X101393750Y-98552000D01*
X101235000Y-98710750D01*
X101231928Y-98875000D01*
X101244188Y-98999482D01*
X101262546Y-99060000D01*
X101244188Y-99120518D01*
X101231928Y-99245000D01*
X101231928Y-100145000D01*
X101244188Y-100269482D01*
X101262546Y-100330000D01*
X101244188Y-100390518D01*
X101231928Y-100515000D01*
X101231928Y-101415000D01*
X101244188Y-101539482D01*
X101262546Y-101600000D01*
X101244188Y-101660518D01*
X101231928Y-101785000D01*
X101231928Y-102685000D01*
X101244188Y-102809482D01*
X101262546Y-102869999D01*
X101244188Y-102930518D01*
X101231928Y-103055000D01*
X101231928Y-103955000D01*
X101244188Y-104079482D01*
X101262546Y-104140000D01*
X101244188Y-104200518D01*
X101231928Y-104325000D01*
X101231928Y-105225000D01*
X101244188Y-105349482D01*
X101262546Y-105410000D01*
X101244188Y-105470518D01*
X101231928Y-105595000D01*
X101231928Y-106495000D01*
X101237837Y-106555000D01*
X100937202Y-106555000D01*
X100865905Y-106421614D01*
X100755462Y-106287038D01*
X100620886Y-106176595D01*
X100467350Y-106094528D01*
X100300754Y-106043992D01*
X100127500Y-106026928D01*
X99302500Y-106026928D01*
X99129246Y-106043992D01*
X98962650Y-106094528D01*
X98809114Y-106176595D01*
X98752500Y-106223057D01*
X98695886Y-106176595D01*
X98542350Y-106094528D01*
X98375754Y-106043992D01*
X98202500Y-106026928D01*
X97377500Y-106026928D01*
X97204246Y-106043992D01*
X97037650Y-106094528D01*
X96884114Y-106176595D01*
X96749538Y-106287038D01*
X96639095Y-106421614D01*
X96575083Y-106541372D01*
X96544774Y-106511063D01*
X96375256Y-106397795D01*
X96186898Y-106319774D01*
X95986939Y-106280000D01*
X95783061Y-106280000D01*
X95583102Y-106319774D01*
X95394744Y-106397795D01*
X95225226Y-106511063D01*
X95081063Y-106655226D01*
X94967795Y-106824744D01*
X94889774Y-107013102D01*
X94850000Y-107213061D01*
X94850000Y-107416939D01*
X94889774Y-107616898D01*
X94967795Y-107805256D01*
X95081063Y-107974774D01*
X95225226Y-108118937D01*
X95394744Y-108232205D01*
X95583102Y-108310226D01*
X95783061Y-108350000D01*
X95986939Y-108350000D01*
X96186898Y-108310226D01*
X96375256Y-108232205D01*
X96544774Y-108118937D01*
X96575083Y-108088628D01*
X96639095Y-108208386D01*
X96749538Y-108342962D01*
X96884114Y-108453405D01*
X97037650Y-108535472D01*
X97204246Y-108586008D01*
X97377500Y-108603072D01*
X98202500Y-108603072D01*
X98375754Y-108586008D01*
X98542350Y-108535472D01*
X98695886Y-108453405D01*
X98752500Y-108406943D01*
X98809114Y-108453405D01*
X98962650Y-108535472D01*
X99129246Y-108586008D01*
X99302500Y-108603072D01*
X100127500Y-108603072D01*
X100300754Y-108586008D01*
X100467350Y-108535472D01*
X100620886Y-108453405D01*
X100755462Y-108342962D01*
X100865905Y-108208386D01*
X100937202Y-108075000D01*
X101237837Y-108075000D01*
X101231928Y-108135000D01*
X101231928Y-109035000D01*
X101244188Y-109159482D01*
X101262546Y-109220000D01*
X101244188Y-109280518D01*
X101231928Y-109405000D01*
X101231928Y-110305000D01*
X101244188Y-110429482D01*
X101262546Y-110490000D01*
X101244188Y-110550518D01*
X101231928Y-110675000D01*
X101231928Y-111575000D01*
X101240339Y-111660400D01*
X100980082Y-111660400D01*
X100568683Y-111249002D01*
X100544881Y-111219999D01*
X100429156Y-111125026D01*
X100297127Y-111054454D01*
X100153866Y-111010997D01*
X100042213Y-111000000D01*
X100042202Y-111000000D01*
X100004880Y-110996324D01*
X99967558Y-111000000D01*
X95476527Y-111000000D01*
X95467472Y-110970148D01*
X95385405Y-110816613D01*
X95274962Y-110682038D01*
X95248000Y-110659911D01*
X95248000Y-109257333D01*
X95251677Y-109220000D01*
X95237003Y-109071014D01*
X95193546Y-108927753D01*
X95122974Y-108795724D01*
X95028001Y-108679999D01*
X94912276Y-108585026D01*
X94780247Y-108514454D01*
X94636986Y-108470997D01*
X94525333Y-108460000D01*
X94488000Y-108456323D01*
X94450667Y-108460000D01*
X91985323Y-108460000D01*
X91948000Y-108456324D01*
X91910677Y-108460000D01*
X91910667Y-108460000D01*
X91799014Y-108470997D01*
X91655753Y-108514454D01*
X91523724Y-108585026D01*
X91407999Y-108679999D01*
X91384201Y-108708997D01*
X90451198Y-109642001D01*
X89048587Y-109642001D01*
X89199990Y-109415411D01*
X89311932Y-109145158D01*
X89369000Y-108858260D01*
X89369000Y-108565740D01*
X89311932Y-108278842D01*
X89199990Y-108008589D01*
X89037475Y-107765368D01*
X88830632Y-107558525D01*
X88587411Y-107396010D01*
X88317158Y-107284068D01*
X88030260Y-107227000D01*
X87737740Y-107227000D01*
X87450842Y-107284068D01*
X87180589Y-107396010D01*
X86937368Y-107558525D01*
X86730525Y-107765368D01*
X86568010Y-108008589D01*
X86456068Y-108278842D01*
X86399000Y-108565740D01*
X86399000Y-108858260D01*
X86456068Y-109145158D01*
X86568010Y-109415411D01*
X86730525Y-109658632D01*
X86937368Y-109865475D01*
X87111760Y-109982000D01*
X86937368Y-110098525D01*
X86730525Y-110305368D01*
X86568010Y-110548589D01*
X86456068Y-110818842D01*
X86399000Y-111105740D01*
X86399000Y-111398260D01*
X86456068Y-111685158D01*
X86568010Y-111955411D01*
X86730525Y-112198632D01*
X86862380Y-112330487D01*
X86789820Y-112352498D01*
X86679506Y-112411463D01*
X86582815Y-112490815D01*
X86503463Y-112587506D01*
X86444498Y-112697820D01*
X86408188Y-112817518D01*
X86395928Y-112942000D01*
X86399000Y-113506250D01*
X86557750Y-113665000D01*
X87757000Y-113665000D01*
X87757000Y-113645000D01*
X88011000Y-113645000D01*
X88011000Y-113665000D01*
X89210250Y-113665000D01*
X89369000Y-113506250D01*
X89372072Y-112942000D01*
X89359812Y-112817518D01*
X89323502Y-112697820D01*
X89264537Y-112587506D01*
X89185185Y-112490815D01*
X89088494Y-112411463D01*
X88978180Y-112352498D01*
X88905620Y-112330487D01*
X89037475Y-112198632D01*
X89199990Y-111955411D01*
X89311932Y-111685158D01*
X89369000Y-111398260D01*
X89369000Y-111162001D01*
X90728677Y-111162001D01*
X90765999Y-111165677D01*
X90803321Y-111162001D01*
X90803332Y-111162001D01*
X90914985Y-111151004D01*
X91058246Y-111107547D01*
X91190275Y-111036975D01*
X91306000Y-110942002D01*
X91329803Y-110912998D01*
X92262802Y-109980000D01*
X93728000Y-109980000D01*
X93728001Y-110518471D01*
X93628613Y-110571595D01*
X93494038Y-110682038D01*
X93472000Y-110708891D01*
X93449962Y-110682038D01*
X93315387Y-110571595D01*
X93161852Y-110489528D01*
X92995256Y-110438992D01*
X92822002Y-110421928D01*
X92296998Y-110421928D01*
X92123744Y-110438992D01*
X91957148Y-110489528D01*
X91803613Y-110571595D01*
X91669038Y-110682038D01*
X91558595Y-110816613D01*
X91476528Y-110970148D01*
X91425992Y-111136744D01*
X91408928Y-111309998D01*
X91408928Y-111835770D01*
X90421003Y-112823696D01*
X90391999Y-112847499D01*
X90359255Y-112887398D01*
X90297026Y-112963224D01*
X90237014Y-113075498D01*
X90226454Y-113095254D01*
X90182997Y-113238515D01*
X90172000Y-113350168D01*
X90172000Y-113350178D01*
X90168324Y-113387500D01*
X90172000Y-113424823D01*
X90172001Y-116802668D01*
X90168324Y-116840000D01*
X90182998Y-116988985D01*
X90226454Y-117132246D01*
X90297026Y-117264276D01*
X90365737Y-117348000D01*
X90392000Y-117380001D01*
X90420998Y-117403799D01*
X91892205Y-118875008D01*
X91915999Y-118904001D01*
X91944992Y-118927795D01*
X91944996Y-118927799D01*
X92015685Y-118985811D01*
X92031724Y-118998974D01*
X92163753Y-119069546D01*
X92307014Y-119113003D01*
X92418667Y-119124000D01*
X92418676Y-119124000D01*
X92455999Y-119127676D01*
X92493322Y-119124000D01*
X93157199Y-119124000D01*
X93367194Y-119333995D01*
X93321606Y-119358363D01*
X93224915Y-119437715D01*
X93145563Y-119534406D01*
X93086598Y-119644720D01*
X93050288Y-119764418D01*
X93038028Y-119888900D01*
X93038028Y-121588900D01*
X93050288Y-121713382D01*
X93086598Y-121833080D01*
X93145563Y-121943394D01*
X93224915Y-122040085D01*
X93321606Y-122119437D01*
X93431920Y-122178402D01*
X93551618Y-122214712D01*
X93676100Y-122226972D01*
X95376100Y-122226972D01*
X95500582Y-122214712D01*
X95620280Y-122178402D01*
X95730594Y-122119437D01*
X95827285Y-122040085D01*
X95906637Y-121943394D01*
X95965602Y-121833080D01*
X95987613Y-121760520D01*
X96119468Y-121892375D01*
X96362689Y-122054890D01*
X96632942Y-122166832D01*
X96919840Y-122223900D01*
X97212360Y-122223900D01*
X97499258Y-122166832D01*
X97769511Y-122054890D01*
X98012732Y-121892375D01*
X98219575Y-121685532D01*
X98336100Y-121511140D01*
X98452625Y-121685532D01*
X98659468Y-121892375D01*
X98902689Y-122054890D01*
X99172942Y-122166832D01*
X99459840Y-122223900D01*
X99752360Y-122223900D01*
X100039258Y-122166832D01*
X100309511Y-122054890D01*
X100552732Y-121892375D01*
X100759575Y-121685532D01*
X100876100Y-121511140D01*
X100992625Y-121685532D01*
X101199468Y-121892375D01*
X101386101Y-122017079D01*
X101386101Y-122936768D01*
X101382424Y-122974100D01*
X101386101Y-123011433D01*
X101392893Y-123080387D01*
X101397098Y-123123085D01*
X101440554Y-123266346D01*
X101511126Y-123398376D01*
X101582301Y-123485102D01*
X101606100Y-123514101D01*
X101635098Y-123537899D01*
X102560205Y-124463008D01*
X102583999Y-124492001D01*
X102612992Y-124515795D01*
X102612996Y-124515799D01*
X102683685Y-124573811D01*
X102699724Y-124586974D01*
X102831753Y-124657546D01*
X102975014Y-124701003D01*
X103086667Y-124712000D01*
X103086676Y-124712000D01*
X103123999Y-124715676D01*
X103161322Y-124712000D01*
X114262678Y-124712000D01*
X114300000Y-124715676D01*
X114337322Y-124712000D01*
X114337333Y-124712000D01*
X114448986Y-124701003D01*
X114592247Y-124657546D01*
X114724276Y-124586974D01*
X114840001Y-124492001D01*
X114863803Y-124462998D01*
X115851730Y-123475072D01*
X116265002Y-123475072D01*
X116438256Y-123458008D01*
X116604852Y-123407472D01*
X116758387Y-123325405D01*
X116892962Y-123214962D01*
X117003405Y-123080387D01*
X117085472Y-122926852D01*
X117136008Y-122760256D01*
X117153072Y-122587002D01*
X117153072Y-122061998D01*
X117136008Y-121888744D01*
X117095147Y-121754042D01*
X132935000Y-121754042D01*
X132935000Y-122085958D01*
X132999754Y-122411496D01*
X133126772Y-122718147D01*
X133311175Y-122994125D01*
X133545875Y-123228825D01*
X133821853Y-123413228D01*
X134128504Y-123540246D01*
X134454042Y-123605000D01*
X134785958Y-123605000D01*
X135111496Y-123540246D01*
X135418147Y-123413228D01*
X135694125Y-123228825D01*
X135928825Y-122994125D01*
X136113228Y-122718147D01*
X136240246Y-122411496D01*
X136305000Y-122085958D01*
X136305000Y-121754042D01*
X136240246Y-121428504D01*
X136113228Y-121121853D01*
X135928825Y-120845875D01*
X135694125Y-120611175D01*
X135418147Y-120426772D01*
X135111496Y-120299754D01*
X134785958Y-120235000D01*
X134454042Y-120235000D01*
X134128504Y-120299754D01*
X133821853Y-120426772D01*
X133545875Y-120611175D01*
X133311175Y-120845875D01*
X133126772Y-121121853D01*
X132999754Y-121428504D01*
X132935000Y-121754042D01*
X117095147Y-121754042D01*
X117085472Y-121722148D01*
X117003405Y-121568613D01*
X116892962Y-121434038D01*
X116866109Y-121412000D01*
X116892962Y-121389962D01*
X117003405Y-121255387D01*
X117085472Y-121101852D01*
X117136008Y-120935256D01*
X117153072Y-120762002D01*
X117153072Y-120236998D01*
X117136008Y-120063744D01*
X117085472Y-119897148D01*
X117003405Y-119743613D01*
X116892962Y-119609038D01*
X116758387Y-119498595D01*
X116604852Y-119416528D01*
X116575000Y-119407473D01*
X116575000Y-116297163D01*
X116635000Y-116303072D01*
X117535000Y-116303072D01*
X117659482Y-116290812D01*
X117779180Y-116254502D01*
X117889494Y-116195537D01*
X117986185Y-116116185D01*
X118065537Y-116019494D01*
X118124502Y-115909180D01*
X118160812Y-115789482D01*
X118173072Y-115665000D01*
X118173072Y-113665000D01*
X118160812Y-113540518D01*
X118124502Y-113420820D01*
X118065537Y-113310506D01*
X117986185Y-113213815D01*
X117916956Y-113157000D01*
X118110000Y-113157000D01*
X118134776Y-113154560D01*
X118158601Y-113147333D01*
X118180557Y-113135597D01*
X118199803Y-113119803D01*
X118215597Y-113100557D01*
X118227333Y-113078601D01*
X118234560Y-113054776D01*
X118237000Y-113030000D01*
X118237000Y-112896499D01*
X118244188Y-112969482D01*
X118262546Y-113030000D01*
X118244188Y-113090518D01*
X118231928Y-113215000D01*
X118231928Y-114115000D01*
X118244188Y-114239482D01*
X118280498Y-114359180D01*
X118339463Y-114469494D01*
X118418815Y-114566185D01*
X118515506Y-114645537D01*
X118625820Y-114704502D01*
X118745518Y-114740812D01*
X118870000Y-114753072D01*
X120870000Y-114753072D01*
X120994482Y-114740812D01*
X121114180Y-114704502D01*
X121224494Y-114645537D01*
X121321185Y-114566185D01*
X121400537Y-114469494D01*
X121424320Y-114425000D01*
X125721822Y-114425000D01*
X125846525Y-114611632D01*
X126053368Y-114818475D01*
X126240001Y-114943179D01*
X126240000Y-117891928D01*
X126150000Y-117891928D01*
X126025518Y-117904188D01*
X125905820Y-117940498D01*
X125795506Y-117999463D01*
X125698815Y-118078815D01*
X125619463Y-118175506D01*
X125560498Y-118285820D01*
X125538487Y-118358380D01*
X125406632Y-118226525D01*
X125163411Y-118064010D01*
X124893158Y-117952068D01*
X124606260Y-117895000D01*
X124313740Y-117895000D01*
X124026842Y-117952068D01*
X123756589Y-118064010D01*
X123513368Y-118226525D01*
X123306525Y-118433368D01*
X123144010Y-118676589D01*
X123032068Y-118946842D01*
X122975000Y-119233740D01*
X122975000Y-119526260D01*
X123032068Y-119813158D01*
X123144010Y-120083411D01*
X123306525Y-120326632D01*
X123513368Y-120533475D01*
X123756589Y-120695990D01*
X124026842Y-120807932D01*
X124313740Y-120865000D01*
X124606260Y-120865000D01*
X124893158Y-120807932D01*
X125163411Y-120695990D01*
X125406632Y-120533475D01*
X125538487Y-120401620D01*
X125560498Y-120474180D01*
X125619463Y-120584494D01*
X125698815Y-120681185D01*
X125795506Y-120760537D01*
X125905820Y-120819502D01*
X126025518Y-120855812D01*
X126150000Y-120868072D01*
X127850000Y-120868072D01*
X127974482Y-120855812D01*
X128094180Y-120819502D01*
X128204494Y-120760537D01*
X128301185Y-120681185D01*
X128380537Y-120584494D01*
X128439502Y-120474180D01*
X128475812Y-120354482D01*
X128488072Y-120230000D01*
X128488072Y-118530000D01*
X128475812Y-118405518D01*
X128439502Y-118285820D01*
X128380537Y-118175506D01*
X128301185Y-118078815D01*
X128204494Y-117999463D01*
X128094180Y-117940498D01*
X127974482Y-117904188D01*
X127850000Y-117891928D01*
X127760000Y-117891928D01*
X127760000Y-114943178D01*
X127946632Y-114818475D01*
X128153475Y-114611632D01*
X128315990Y-114368411D01*
X128427932Y-114098158D01*
X128485000Y-113811260D01*
X128485000Y-113518740D01*
X128427932Y-113231842D01*
X128315990Y-112961589D01*
X128153475Y-112718368D01*
X127946632Y-112511525D01*
X127772240Y-112395000D01*
X127946632Y-112278475D01*
X128153475Y-112071632D01*
X128315990Y-111828411D01*
X128427932Y-111558158D01*
X128485000Y-111271260D01*
X128485000Y-110978740D01*
X128427932Y-110691842D01*
X128315990Y-110421589D01*
X128153475Y-110178368D01*
X127946632Y-109971525D01*
X127772240Y-109855000D01*
X127946632Y-109738475D01*
X128153475Y-109531632D01*
X128315990Y-109288411D01*
X128427932Y-109018158D01*
X128485000Y-108731260D01*
X128485000Y-108438740D01*
X128427932Y-108151842D01*
X128315990Y-107881589D01*
X128153475Y-107638368D01*
X127946632Y-107431525D01*
X127772240Y-107315000D01*
X127946632Y-107198475D01*
X128153475Y-106991632D01*
X128315990Y-106748411D01*
X128427932Y-106478158D01*
X128485000Y-106191260D01*
X128485000Y-105898740D01*
X128427932Y-105611842D01*
X128315990Y-105341589D01*
X128153475Y-105098368D01*
X127946632Y-104891525D01*
X127772240Y-104775000D01*
X127946632Y-104658475D01*
X128153475Y-104451632D01*
X128278178Y-104265000D01*
X129772501Y-104265000D01*
X129772500Y-106129970D01*
X129642038Y-106237038D01*
X129531595Y-106371613D01*
X129449528Y-106525148D01*
X129398992Y-106691744D01*
X129381928Y-106864998D01*
X129381928Y-107765002D01*
X129398992Y-107938256D01*
X129449528Y-108104852D01*
X129531595Y-108258387D01*
X129642038Y-108392962D01*
X129776613Y-108503405D01*
X129930148Y-108585472D01*
X130096744Y-108636008D01*
X130269998Y-108653072D01*
X130795002Y-108653072D01*
X130968256Y-108636008D01*
X131134852Y-108585472D01*
X131288387Y-108503405D01*
X131369637Y-108436724D01*
X131393815Y-108466185D01*
X131490506Y-108545537D01*
X131600820Y-108604502D01*
X131720518Y-108640812D01*
X131845000Y-108653072D01*
X132071750Y-108650000D01*
X132230500Y-108491250D01*
X132230500Y-107442000D01*
X132484500Y-107442000D01*
X132484500Y-108491250D01*
X132643250Y-108650000D01*
X132870000Y-108653072D01*
X132994482Y-108640812D01*
X133114180Y-108604502D01*
X133224494Y-108545537D01*
X133321185Y-108466185D01*
X133400537Y-108369494D01*
X133459502Y-108259180D01*
X133495812Y-108139482D01*
X133508072Y-108015000D01*
X133505000Y-107600750D01*
X133346250Y-107442000D01*
X132484500Y-107442000D01*
X132230500Y-107442000D01*
X132210500Y-107442000D01*
X132210500Y-107188000D01*
X132230500Y-107188000D01*
X132230500Y-106138750D01*
X132484500Y-106138750D01*
X132484500Y-107188000D01*
X133346250Y-107188000D01*
X133505000Y-107029250D01*
X133508072Y-106615000D01*
X133495812Y-106490518D01*
X133459502Y-106370820D01*
X133400537Y-106260506D01*
X133321185Y-106163815D01*
X133224494Y-106084463D01*
X133114180Y-106025498D01*
X132994482Y-105989188D01*
X132870000Y-105976928D01*
X132643250Y-105980000D01*
X132484500Y-106138750D01*
X132230500Y-106138750D01*
X132071750Y-105980000D01*
X131845000Y-105976928D01*
X131720518Y-105989188D01*
X131600820Y-106025498D01*
X131490506Y-106084463D01*
X131393815Y-106163815D01*
X131369637Y-106193276D01*
X131292500Y-106129970D01*
X131292500Y-104038995D01*
X131372962Y-103972962D01*
X131445000Y-103885183D01*
X131517038Y-103972962D01*
X131651614Y-104083405D01*
X131805150Y-104165472D01*
X131971746Y-104216008D01*
X132145000Y-104233072D01*
X132645000Y-104233072D01*
X132818254Y-104216008D01*
X132984850Y-104165472D01*
X133138386Y-104083405D01*
X133272962Y-103972962D01*
X133383405Y-103838386D01*
X133465472Y-103684850D01*
X133516008Y-103518254D01*
X133533072Y-103345000D01*
X133533072Y-102395000D01*
X133516008Y-102221746D01*
X133465472Y-102055150D01*
X133383405Y-101901614D01*
X133272962Y-101767038D01*
X133138386Y-101656595D01*
X132984850Y-101574528D01*
X132818254Y-101523992D01*
X132645000Y-101506928D01*
X132145000Y-101506928D01*
X132110162Y-101510359D01*
X130469693Y-99869892D01*
X130457205Y-99839744D01*
X130343937Y-99670226D01*
X130199774Y-99526063D01*
X130030256Y-99412795D01*
X129841898Y-99334774D01*
X129641939Y-99295000D01*
X129438061Y-99295000D01*
X129238102Y-99334774D01*
X129049744Y-99412795D01*
X128880226Y-99526063D01*
X128736063Y-99670226D01*
X128622795Y-99839744D01*
X128544774Y-100028102D01*
X128505000Y-100228061D01*
X128505000Y-100431939D01*
X128544774Y-100631898D01*
X128622795Y-100820256D01*
X128736063Y-100989774D01*
X128880226Y-101133937D01*
X129049744Y-101247205D01*
X129238102Y-101325226D01*
X129438061Y-101365000D01*
X129641939Y-101365000D01*
X129786453Y-101336255D01*
X129996896Y-101546697D01*
X129905150Y-101574528D01*
X129751614Y-101656595D01*
X129617038Y-101767038D01*
X129506595Y-101901614D01*
X129424528Y-102055150D01*
X129373992Y-102221746D01*
X129356928Y-102395000D01*
X129356928Y-102745000D01*
X128278178Y-102745000D01*
X128153475Y-102558368D01*
X128021620Y-102426513D01*
X128094180Y-102404502D01*
X128204494Y-102345537D01*
X128301185Y-102266185D01*
X128380537Y-102169494D01*
X128439502Y-102059180D01*
X128475812Y-101939482D01*
X128488072Y-101815000D01*
X128488072Y-100115000D01*
X128475812Y-99990518D01*
X128439502Y-99870820D01*
X128380537Y-99760506D01*
X128301185Y-99663815D01*
X128204494Y-99584463D01*
X128094180Y-99525498D01*
X127974482Y-99489188D01*
X127850000Y-99476928D01*
X126150000Y-99476928D01*
X126025518Y-99489188D01*
X125905820Y-99525498D01*
X125795506Y-99584463D01*
X125698815Y-99663815D01*
X125619463Y-99760506D01*
X125560498Y-99870820D01*
X125524188Y-99990518D01*
X125511928Y-100115000D01*
X125511928Y-101815000D01*
X125524188Y-101939482D01*
X125560498Y-102059180D01*
X125619463Y-102169494D01*
X125698815Y-102266185D01*
X125795506Y-102345537D01*
X125905820Y-102404502D01*
X125978380Y-102426513D01*
X125846525Y-102558368D01*
X125684010Y-102801589D01*
X125572068Y-103071842D01*
X125515000Y-103358740D01*
X125515000Y-103651260D01*
X125572068Y-103938158D01*
X125684010Y-104208411D01*
X125846525Y-104451632D01*
X126053368Y-104658475D01*
X126227760Y-104775000D01*
X126053368Y-104891525D01*
X125846525Y-105098368D01*
X125684010Y-105341589D01*
X125572068Y-105611842D01*
X125515000Y-105898740D01*
X125515000Y-106025199D01*
X125220000Y-105730199D01*
X125220000Y-105612322D01*
X125223676Y-105574999D01*
X125220000Y-105537676D01*
X125220000Y-105537667D01*
X125209003Y-105426014D01*
X125165546Y-105282753D01*
X125094974Y-105150724D01*
X125000001Y-105034999D01*
X124971004Y-105011202D01*
X124355270Y-104395468D01*
X124484774Y-104308937D01*
X124628937Y-104164774D01*
X124742205Y-103995256D01*
X124820226Y-103806898D01*
X124860000Y-103606939D01*
X124860000Y-103403061D01*
X124820226Y-103203102D01*
X124742205Y-103014744D01*
X124628937Y-102845226D01*
X124484774Y-102701063D01*
X124315256Y-102587795D01*
X124126898Y-102509774D01*
X123926939Y-102470000D01*
X123864803Y-102470000D01*
X121848804Y-100454003D01*
X121825001Y-100424999D01*
X121709276Y-100330026D01*
X121577247Y-100259454D01*
X121499133Y-100235759D01*
X121508072Y-100145000D01*
X121508072Y-99245000D01*
X121495812Y-99120518D01*
X121477454Y-99060000D01*
X121495812Y-98999482D01*
X121508072Y-98875000D01*
X121508072Y-97975000D01*
X121495812Y-97850518D01*
X121477454Y-97790000D01*
X121495812Y-97729482D01*
X121508072Y-97605000D01*
X121508072Y-97205000D01*
X137745000Y-97205000D01*
X137745001Y-126315000D01*
X80695000Y-126315000D01*
X80695000Y-121754042D01*
X82135000Y-121754042D01*
X82135000Y-122085958D01*
X82199754Y-122411496D01*
X82326772Y-122718147D01*
X82511175Y-122994125D01*
X82745875Y-123228825D01*
X83021853Y-123413228D01*
X83328504Y-123540246D01*
X83654042Y-123605000D01*
X83985958Y-123605000D01*
X84311496Y-123540246D01*
X84618147Y-123413228D01*
X84894125Y-123228825D01*
X85128825Y-122994125D01*
X85313228Y-122718147D01*
X85440246Y-122411496D01*
X85505000Y-122085958D01*
X85505000Y-121754042D01*
X85440246Y-121428504D01*
X85313228Y-121121853D01*
X85128825Y-120845875D01*
X84894125Y-120611175D01*
X84618147Y-120426772D01*
X84311496Y-120299754D01*
X83985958Y-120235000D01*
X83654042Y-120235000D01*
X83328504Y-120299754D01*
X83021853Y-120426772D01*
X82745875Y-120611175D01*
X82511175Y-120845875D01*
X82326772Y-121121853D01*
X82199754Y-121428504D01*
X82135000Y-121754042D01*
X80695000Y-121754042D01*
X80695000Y-114642000D01*
X86395928Y-114642000D01*
X86408188Y-114766482D01*
X86444498Y-114886180D01*
X86503463Y-114996494D01*
X86582815Y-115093185D01*
X86679506Y-115172537D01*
X86789820Y-115231502D01*
X86909518Y-115267812D01*
X87034000Y-115280072D01*
X87598250Y-115277000D01*
X87757000Y-115118250D01*
X87757000Y-113919000D01*
X88011000Y-113919000D01*
X88011000Y-115118250D01*
X88169750Y-115277000D01*
X88734000Y-115280072D01*
X88858482Y-115267812D01*
X88978180Y-115231502D01*
X89088494Y-115172537D01*
X89185185Y-115093185D01*
X89264537Y-114996494D01*
X89323502Y-114886180D01*
X89359812Y-114766482D01*
X89372072Y-114642000D01*
X89369000Y-114077750D01*
X89210250Y-113919000D01*
X88011000Y-113919000D01*
X87757000Y-113919000D01*
X86557750Y-113919000D01*
X86399000Y-114077750D01*
X86395928Y-114642000D01*
X80695000Y-114642000D01*
X80695000Y-103720000D01*
X89316928Y-103720000D01*
X89329188Y-103844482D01*
X89365498Y-103964180D01*
X89424463Y-104074494D01*
X89503815Y-104171185D01*
X89600506Y-104250537D01*
X89710820Y-104309502D01*
X89830518Y-104345812D01*
X89955000Y-104358072D01*
X90519250Y-104355000D01*
X90678000Y-104196250D01*
X90678000Y-102997000D01*
X90932000Y-102997000D01*
X90932000Y-104196250D01*
X91090750Y-104355000D01*
X91655000Y-104358072D01*
X91779482Y-104345812D01*
X91899180Y-104309502D01*
X92009494Y-104250537D01*
X92106185Y-104171185D01*
X92185537Y-104074494D01*
X92244502Y-103964180D01*
X92280812Y-103844482D01*
X92293072Y-103720000D01*
X92290000Y-103155750D01*
X92131250Y-102997000D01*
X90932000Y-102997000D01*
X90678000Y-102997000D01*
X89478750Y-102997000D01*
X89320000Y-103155750D01*
X89316928Y-103720000D01*
X80695000Y-103720000D01*
X80695000Y-102020000D01*
X89316928Y-102020000D01*
X89320000Y-102584250D01*
X89478750Y-102743000D01*
X90678000Y-102743000D01*
X90678000Y-102723000D01*
X90932000Y-102723000D01*
X90932000Y-102743000D01*
X92131250Y-102743000D01*
X92205250Y-102669000D01*
X94560596Y-102669000D01*
X94572856Y-102793482D01*
X94609166Y-102913180D01*
X94668131Y-103023494D01*
X94747483Y-103120185D01*
X94844174Y-103199537D01*
X94954488Y-103258502D01*
X95074186Y-103294812D01*
X95198668Y-103307072D01*
X95637918Y-103304000D01*
X95796668Y-103145250D01*
X95796668Y-102296000D01*
X96050668Y-102296000D01*
X96050668Y-103145250D01*
X96209418Y-103304000D01*
X96648668Y-103307072D01*
X96773150Y-103294812D01*
X96892848Y-103258502D01*
X97003162Y-103199537D01*
X97099853Y-103120185D01*
X97179205Y-103023494D01*
X97238170Y-102913180D01*
X97274480Y-102793482D01*
X97286740Y-102669000D01*
X97283668Y-102454750D01*
X97124918Y-102296000D01*
X96050668Y-102296000D01*
X95796668Y-102296000D01*
X94722418Y-102296000D01*
X94563668Y-102454750D01*
X94560596Y-102669000D01*
X92205250Y-102669000D01*
X92290000Y-102584250D01*
X92293072Y-102020000D01*
X92280812Y-101895518D01*
X92244502Y-101775820D01*
X92185537Y-101665506D01*
X92106185Y-101568815D01*
X92009494Y-101489463D01*
X91899180Y-101430498D01*
X91826620Y-101408487D01*
X91958475Y-101276632D01*
X92120990Y-101033411D01*
X92232932Y-100763158D01*
X92290000Y-100476260D01*
X92290000Y-100183740D01*
X92257231Y-100019000D01*
X94560596Y-100019000D01*
X94560596Y-100519000D01*
X94577660Y-100692254D01*
X94628196Y-100858850D01*
X94710263Y-101012386D01*
X94820706Y-101146962D01*
X94827262Y-101152342D01*
X94747483Y-101217815D01*
X94668131Y-101314506D01*
X94609166Y-101424820D01*
X94572856Y-101544518D01*
X94560596Y-101669000D01*
X94563668Y-101883250D01*
X94722418Y-102042000D01*
X95796668Y-102042000D01*
X95796668Y-102022000D01*
X96050668Y-102022000D01*
X96050668Y-102042000D01*
X97124918Y-102042000D01*
X97283668Y-101883250D01*
X97286740Y-101669000D01*
X97274480Y-101544518D01*
X97238170Y-101424820D01*
X97179205Y-101314506D01*
X97099853Y-101217815D01*
X97020074Y-101152342D01*
X97026630Y-101146962D01*
X97137073Y-101012386D01*
X97219140Y-100858850D01*
X97269676Y-100692254D01*
X97286740Y-100519000D01*
X97286740Y-100019000D01*
X97269676Y-99845746D01*
X97219140Y-99679150D01*
X97137073Y-99525614D01*
X97113940Y-99497427D01*
X97268674Y-99394037D01*
X97412837Y-99249874D01*
X97526105Y-99080356D01*
X97604126Y-98891998D01*
X97643900Y-98692039D01*
X97643900Y-98488161D01*
X97604126Y-98288202D01*
X97526105Y-98099844D01*
X97412837Y-97930326D01*
X97268674Y-97786163D01*
X97099156Y-97672895D01*
X96910798Y-97594874D01*
X96710839Y-97555100D01*
X96506961Y-97555100D01*
X96307002Y-97594874D01*
X96118644Y-97672895D01*
X95949126Y-97786163D01*
X95804963Y-97930326D01*
X95691695Y-98099844D01*
X95613674Y-98288202D01*
X95573900Y-98488161D01*
X95573900Y-98550298D01*
X95412665Y-98711533D01*
X95383668Y-98735331D01*
X95359870Y-98764329D01*
X95359869Y-98764330D01*
X95288694Y-98851056D01*
X95218122Y-98983086D01*
X95174666Y-99126347D01*
X95169366Y-99180161D01*
X95108818Y-99198528D01*
X94955282Y-99280595D01*
X94820706Y-99391038D01*
X94710263Y-99525614D01*
X94628196Y-99679150D01*
X94577660Y-99845746D01*
X94560596Y-100019000D01*
X92257231Y-100019000D01*
X92232932Y-99896842D01*
X92120990Y-99626589D01*
X91958475Y-99383368D01*
X91751632Y-99176525D01*
X91508411Y-99014010D01*
X91238158Y-98902068D01*
X90951260Y-98845000D01*
X90658740Y-98845000D01*
X90371842Y-98902068D01*
X90101589Y-99014010D01*
X89858368Y-99176525D01*
X89651525Y-99383368D01*
X89489010Y-99626589D01*
X89377068Y-99896842D01*
X89320000Y-100183740D01*
X89320000Y-100476260D01*
X89377068Y-100763158D01*
X89489010Y-101033411D01*
X89651525Y-101276632D01*
X89783380Y-101408487D01*
X89710820Y-101430498D01*
X89600506Y-101489463D01*
X89503815Y-101568815D01*
X89424463Y-101665506D01*
X89365498Y-101775820D01*
X89329188Y-101895518D01*
X89316928Y-102020000D01*
X80695000Y-102020000D01*
X80695000Y-97205000D01*
X101231928Y-97205000D01*
X101231928Y-97605000D01*
G37*
G04 #@! TD.AperFunction*
G04 #@! TD*
M02*
