%FSLAX45Y45*%
G04 Gerber Fmt 4.5, Leading zero omitted, Abs format (unit mm)*
G04 Created by KiCad (PCBNEW (5.1.10)-1) date 2022-04-16 18:43:20*
%MOMM*%
%LPD*%
G01*
G04 APERTURE LIST*
%TA.AperFunction,Profile*%
%ADD10C,0.100000*%
%TD*%
%ADD11C,0.200000*%
%ADD12C,0.300000*%
G04 APERTURE END LIST*
D10*
X14351000Y-7874000D02*
X14351000Y-13589000D01*
X7747000Y-7874000D02*
X14351000Y-7874000D01*
X7747000Y-13589000D02*
X7747000Y-7874000D01*
X14351000Y-13589000D02*
X7747000Y-13589000D01*
D11*
X8806500Y-11410000D02*
X8846500Y-11450000D01*
X8846500Y-11410000D02*
X8806500Y-11450000D01*
X8997000Y-11029000D02*
X9037000Y-11069000D01*
X9037000Y-11029000D02*
X8997000Y-11069000D01*
X9124000Y-11867200D02*
X9164000Y-11907200D01*
X9164000Y-11867200D02*
X9124000Y-11907200D01*
X9314500Y-10902000D02*
X9354500Y-10942000D01*
X9354500Y-10902000D02*
X9314500Y-10942000D01*
X9378000Y-9568500D02*
X9418000Y-9608500D01*
X9418000Y-9568500D02*
X9378000Y-9608500D01*
X9378000Y-10584500D02*
X9418000Y-10624500D01*
X9418000Y-10584500D02*
X9378000Y-10624500D01*
X9505000Y-10775000D02*
X9545000Y-10815000D01*
X9545000Y-10775000D02*
X9505000Y-10815000D01*
X9568500Y-10330500D02*
X9608500Y-10370500D01*
X9608500Y-10330500D02*
X9568500Y-10370500D01*
X9568500Y-12108500D02*
X9608500Y-12148500D01*
X9608500Y-12108500D02*
X9568500Y-12148500D01*
X9759000Y-10584500D02*
X9799000Y-10624500D01*
X9799000Y-10584500D02*
X9759000Y-10624500D01*
X9759000Y-12362500D02*
X9799000Y-12402500D01*
X9799000Y-12362500D02*
X9759000Y-12402500D01*
X9886000Y-12629200D02*
X9926000Y-12669200D01*
X9926000Y-12629200D02*
X9886000Y-12669200D01*
X10013000Y-10330500D02*
X10053000Y-10370500D01*
X10053000Y-10330500D02*
X10013000Y-10370500D01*
X10013000Y-10965500D02*
X10053000Y-11005500D01*
X10053000Y-10965500D02*
X10013000Y-11005500D01*
X10648000Y-10838500D02*
X10688000Y-10878500D01*
X10688000Y-10838500D02*
X10648000Y-10878500D01*
X10648000Y-11156000D02*
X10688000Y-11196000D01*
X10688000Y-11156000D02*
X10648000Y-11196000D01*
X10711500Y-12362500D02*
X10751500Y-12402500D01*
X10751500Y-12362500D02*
X10711500Y-12402500D01*
X10965500Y-9822500D02*
X11005500Y-9862500D01*
X11005500Y-9822500D02*
X10965500Y-9862500D01*
X10965500Y-10267000D02*
X11005500Y-10307000D01*
X11005500Y-10267000D02*
X10965500Y-10307000D01*
X10965500Y-10521000D02*
X11005500Y-10561000D01*
X11005500Y-10521000D02*
X10965500Y-10561000D01*
X11283000Y-11219500D02*
X11323000Y-11259500D01*
X11323000Y-11219500D02*
X11283000Y-11259500D01*
X11283000Y-12235500D02*
X11323000Y-12275500D01*
X11323000Y-12235500D02*
X11283000Y-12275500D01*
X11283000Y-12489500D02*
X11323000Y-12529500D01*
X11323000Y-12489500D02*
X11283000Y-12529500D01*
X11435400Y-11232200D02*
X11475400Y-11272200D01*
X11475400Y-11232200D02*
X11435400Y-11272200D01*
X11537000Y-10521000D02*
X11577000Y-10561000D01*
X11577000Y-10521000D02*
X11537000Y-10561000D01*
X11689400Y-9682800D02*
X11729400Y-9722800D01*
X11729400Y-9682800D02*
X11689400Y-9722800D01*
X11791000Y-9822500D02*
X11831000Y-9862500D01*
X11831000Y-9822500D02*
X11791000Y-9862500D01*
X11791000Y-12172000D02*
X11831000Y-12212000D01*
X11831000Y-12172000D02*
X11791000Y-12212000D01*
X11791000Y-12172000D02*
X11831000Y-12212000D01*
X11831000Y-12172000D02*
X11791000Y-12212000D01*
X12959400Y-9682800D02*
X12999400Y-9722800D01*
X12999400Y-9682800D02*
X12959400Y-9722800D01*
X13378500Y-8552500D02*
X13418500Y-8592500D01*
X13418500Y-8552500D02*
X13378500Y-8592500D01*
X13442000Y-8870000D02*
X13482000Y-8910000D01*
X13482000Y-8870000D02*
X13442000Y-8910000D01*
X8559000Y-8636000D02*
G75*
G03*
X8559000Y-8636000I-50000J0D01*
G01*
X8559000Y-8890000D02*
G75*
G03*
X8559000Y-8890000I-50000J0D01*
G01*
X8559000Y-9652000D02*
G75*
G03*
X8559000Y-9652000I-50000J0D01*
G01*
X8559000Y-9906000D02*
G75*
G03*
X8559000Y-9906000I-50000J0D01*
G01*
X8559000Y-10160000D02*
G75*
G03*
X8559000Y-10160000I-50000J0D01*
G01*
X8559000Y-10414000D02*
G75*
G03*
X8559000Y-10414000I-50000J0D01*
G01*
X8559000Y-10668000D02*
G75*
G03*
X8559000Y-10668000I-50000J0D01*
G01*
X8559000Y-10922000D02*
G75*
G03*
X8559000Y-10922000I-50000J0D01*
G01*
X8559000Y-11176000D02*
G75*
G03*
X8559000Y-11176000I-50000J0D01*
G01*
X8559000Y-11430000D02*
G75*
G03*
X8559000Y-11430000I-50000J0D01*
G01*
X8559000Y-12192000D02*
G75*
G03*
X8559000Y-12192000I-50000J0D01*
G01*
X8813000Y-12192000D02*
G75*
G03*
X8813000Y-12192000I-50000J0D01*
G01*
X8814000Y-12954000D02*
G75*
G03*
X8814000Y-12954000I-50000J0D01*
G01*
X9067000Y-12192000D02*
G75*
G03*
X9067000Y-12192000I-50000J0D01*
G01*
X9068000Y-12954000D02*
G75*
G03*
X9068000Y-12954000I-50000J0D01*
G01*
X9321000Y-12192000D02*
G75*
G03*
X9321000Y-12192000I-50000J0D01*
G01*
X9322000Y-12954000D02*
G75*
G03*
X9322000Y-12954000I-50000J0D01*
G01*
X10337000Y-12954000D02*
G75*
G03*
X10337000Y-12954000I-50000J0D01*
G01*
X10591000Y-12954000D02*
G75*
G03*
X10591000Y-12954000I-50000J0D01*
G01*
X10845000Y-12954000D02*
G75*
G03*
X10845000Y-12954000I-50000J0D01*
G01*
X11099000Y-12954000D02*
G75*
G03*
X11099000Y-12954000I-50000J0D01*
G01*
X11353000Y-12954000D02*
G75*
G03*
X11353000Y-12954000I-50000J0D01*
G01*
X11607000Y-12954000D02*
G75*
G03*
X11607000Y-12954000I-50000J0D01*
G01*
X13512000Y-11176000D02*
G75*
G03*
X13512000Y-11176000I-50000J0D01*
G01*
X13512000Y-11430000D02*
G75*
G03*
X13512000Y-11430000I-50000J0D01*
G01*
X13512000Y-11684000D02*
G75*
G03*
X13512000Y-11684000I-50000J0D01*
G01*
X13512000Y-12446000D02*
G75*
G03*
X13512000Y-12446000I-50000J0D01*
G01*
X13512000Y-12700000D02*
G75*
G03*
X13512000Y-12700000I-50000J0D01*
G01*
D12*
X8028428Y-14059714D02*
X8028428Y-13759714D01*
X8099857Y-13759714D01*
X8142714Y-13774000D01*
X8171286Y-13802571D01*
X8185571Y-13831143D01*
X8199857Y-13888286D01*
X8199857Y-13931143D01*
X8185571Y-13988286D01*
X8171286Y-14016857D01*
X8142714Y-14045429D01*
X8099857Y-14059714D01*
X8028428Y-14059714D01*
X8328428Y-14059714D02*
X8328428Y-13859714D01*
X8328428Y-13916857D02*
X8342714Y-13888286D01*
X8357000Y-13874000D01*
X8385571Y-13859714D01*
X8414143Y-13859714D01*
X8514143Y-14059714D02*
X8514143Y-13859714D01*
X8514143Y-13759714D02*
X8499857Y-13774000D01*
X8514143Y-13788286D01*
X8528428Y-13774000D01*
X8514143Y-13759714D01*
X8514143Y-13788286D01*
X8699857Y-14059714D02*
X8671286Y-14045429D01*
X8657000Y-14016857D01*
X8657000Y-13759714D01*
X8857000Y-14059714D02*
X8828428Y-14045429D01*
X8814143Y-14016857D01*
X8814143Y-13759714D01*
X9199857Y-14059714D02*
X9199857Y-13759714D01*
X9299857Y-13974000D01*
X9399857Y-13759714D01*
X9399857Y-14059714D01*
X9671286Y-14059714D02*
X9671286Y-13902571D01*
X9657000Y-13874000D01*
X9628428Y-13859714D01*
X9571286Y-13859714D01*
X9542714Y-13874000D01*
X9671286Y-14045429D02*
X9642714Y-14059714D01*
X9571286Y-14059714D01*
X9542714Y-14045429D01*
X9528428Y-14016857D01*
X9528428Y-13988286D01*
X9542714Y-13959714D01*
X9571286Y-13945429D01*
X9642714Y-13945429D01*
X9671286Y-13931143D01*
X9814143Y-13859714D02*
X9814143Y-14159714D01*
X9814143Y-13874000D02*
X9842714Y-13859714D01*
X9899857Y-13859714D01*
X9928428Y-13874000D01*
X9942714Y-13888286D01*
X9957000Y-13916857D01*
X9957000Y-14002571D01*
X9942714Y-14031143D01*
X9928428Y-14045429D01*
X9899857Y-14059714D01*
X9842714Y-14059714D01*
X9814143Y-14045429D01*
X10085571Y-14031143D02*
X10099857Y-14045429D01*
X10085571Y-14059714D01*
X10071286Y-14045429D01*
X10085571Y-14031143D01*
X10085571Y-14059714D01*
X10085571Y-13874000D02*
X10099857Y-13888286D01*
X10085571Y-13902571D01*
X10071286Y-13888286D01*
X10085571Y-13874000D01*
X10085571Y-13902571D01*
X7702000Y-14534000D02*
X7742000Y-14574000D01*
X7742000Y-14534000D02*
X7702000Y-14574000D01*
X8085571Y-14389714D02*
X8114143Y-14389714D01*
X8142714Y-14404000D01*
X8157000Y-14418286D01*
X8171286Y-14446857D01*
X8185571Y-14504000D01*
X8185571Y-14575429D01*
X8171286Y-14632571D01*
X8157000Y-14661143D01*
X8142714Y-14675429D01*
X8114143Y-14689714D01*
X8085571Y-14689714D01*
X8057000Y-14675429D01*
X8042714Y-14661143D01*
X8028428Y-14632571D01*
X8014143Y-14575429D01*
X8014143Y-14504000D01*
X8028428Y-14446857D01*
X8042714Y-14418286D01*
X8057000Y-14404000D01*
X8085571Y-14389714D01*
X8314143Y-14661143D02*
X8328428Y-14675429D01*
X8314143Y-14689714D01*
X8299857Y-14675429D01*
X8314143Y-14661143D01*
X8314143Y-14689714D01*
X8585571Y-14489714D02*
X8585571Y-14689714D01*
X8514143Y-14375429D02*
X8442714Y-14589714D01*
X8628428Y-14589714D01*
X8799857Y-14389714D02*
X8828428Y-14389714D01*
X8857000Y-14404000D01*
X8871286Y-14418286D01*
X8885571Y-14446857D01*
X8899857Y-14504000D01*
X8899857Y-14575429D01*
X8885571Y-14632571D01*
X8871286Y-14661143D01*
X8857000Y-14675429D01*
X8828428Y-14689714D01*
X8799857Y-14689714D01*
X8771286Y-14675429D01*
X8757000Y-14661143D01*
X8742714Y-14632571D01*
X8728428Y-14575429D01*
X8728428Y-14504000D01*
X8742714Y-14446857D01*
X8757000Y-14418286D01*
X8771286Y-14404000D01*
X8799857Y-14389714D01*
X9085571Y-14389714D02*
X9114143Y-14389714D01*
X9142714Y-14404000D01*
X9157000Y-14418286D01*
X9171286Y-14446857D01*
X9185571Y-14504000D01*
X9185571Y-14575429D01*
X9171286Y-14632571D01*
X9157000Y-14661143D01*
X9142714Y-14675429D01*
X9114143Y-14689714D01*
X9085571Y-14689714D01*
X9057000Y-14675429D01*
X9042714Y-14661143D01*
X9028428Y-14632571D01*
X9014143Y-14575429D01*
X9014143Y-14504000D01*
X9028428Y-14446857D01*
X9042714Y-14418286D01*
X9057000Y-14404000D01*
X9085571Y-14389714D01*
X9314143Y-14689714D02*
X9314143Y-14489714D01*
X9314143Y-14518286D02*
X9328428Y-14504000D01*
X9357000Y-14489714D01*
X9399857Y-14489714D01*
X9428428Y-14504000D01*
X9442714Y-14532571D01*
X9442714Y-14689714D01*
X9442714Y-14532571D02*
X9457000Y-14504000D01*
X9485571Y-14489714D01*
X9528428Y-14489714D01*
X9557000Y-14504000D01*
X9571286Y-14532571D01*
X9571286Y-14689714D01*
X9714143Y-14689714D02*
X9714143Y-14489714D01*
X9714143Y-14518286D02*
X9728428Y-14504000D01*
X9757000Y-14489714D01*
X9799857Y-14489714D01*
X9828428Y-14504000D01*
X9842714Y-14532571D01*
X9842714Y-14689714D01*
X9842714Y-14532571D02*
X9857000Y-14504000D01*
X9885571Y-14489714D01*
X9928428Y-14489714D01*
X9957000Y-14504000D01*
X9971286Y-14532571D01*
X9971286Y-14689714D01*
X10557000Y-14375429D02*
X10299857Y-14761143D01*
X10942714Y-14389714D02*
X10971286Y-14389714D01*
X10999857Y-14404000D01*
X11014143Y-14418286D01*
X11028428Y-14446857D01*
X11042714Y-14504000D01*
X11042714Y-14575429D01*
X11028428Y-14632571D01*
X11014143Y-14661143D01*
X10999857Y-14675429D01*
X10971286Y-14689714D01*
X10942714Y-14689714D01*
X10914143Y-14675429D01*
X10899857Y-14661143D01*
X10885571Y-14632571D01*
X10871286Y-14575429D01*
X10871286Y-14504000D01*
X10885571Y-14446857D01*
X10899857Y-14418286D01*
X10914143Y-14404000D01*
X10942714Y-14389714D01*
X11171286Y-14661143D02*
X11185571Y-14675429D01*
X11171286Y-14689714D01*
X11157000Y-14675429D01*
X11171286Y-14661143D01*
X11171286Y-14689714D01*
X11371286Y-14389714D02*
X11399857Y-14389714D01*
X11428428Y-14404000D01*
X11442714Y-14418286D01*
X11457000Y-14446857D01*
X11471286Y-14504000D01*
X11471286Y-14575429D01*
X11457000Y-14632571D01*
X11442714Y-14661143D01*
X11428428Y-14675429D01*
X11399857Y-14689714D01*
X11371286Y-14689714D01*
X11342714Y-14675429D01*
X11328428Y-14661143D01*
X11314143Y-14632571D01*
X11299857Y-14575429D01*
X11299857Y-14504000D01*
X11314143Y-14446857D01*
X11328428Y-14418286D01*
X11342714Y-14404000D01*
X11371286Y-14389714D01*
X11757000Y-14689714D02*
X11585571Y-14689714D01*
X11671286Y-14689714D02*
X11671286Y-14389714D01*
X11642714Y-14432571D01*
X11614143Y-14461143D01*
X11585571Y-14475429D01*
X12028428Y-14389714D02*
X11885571Y-14389714D01*
X11871286Y-14532571D01*
X11885571Y-14518286D01*
X11914143Y-14504000D01*
X11985571Y-14504000D01*
X12014143Y-14518286D01*
X12028428Y-14532571D01*
X12042714Y-14561143D01*
X12042714Y-14632571D01*
X12028428Y-14661143D01*
X12014143Y-14675429D01*
X11985571Y-14689714D01*
X11914143Y-14689714D01*
X11885571Y-14675429D01*
X11871286Y-14661143D01*
X12142714Y-14389714D02*
X12342714Y-14389714D01*
X12214143Y-14689714D01*
X12442714Y-14389714D02*
X12442714Y-14446857D01*
X12557000Y-14389714D02*
X12557000Y-14446857D01*
X12999857Y-14804000D02*
X12985571Y-14789714D01*
X12957000Y-14746857D01*
X12942714Y-14718286D01*
X12928428Y-14675429D01*
X12914143Y-14604000D01*
X12914143Y-14546857D01*
X12928428Y-14475429D01*
X12942714Y-14432571D01*
X12957000Y-14404000D01*
X12985571Y-14361143D01*
X12999857Y-14346857D01*
X13085571Y-14389714D02*
X13271286Y-14389714D01*
X13171286Y-14504000D01*
X13214143Y-14504000D01*
X13242714Y-14518286D01*
X13257000Y-14532571D01*
X13271286Y-14561143D01*
X13271286Y-14632571D01*
X13257000Y-14661143D01*
X13242714Y-14675429D01*
X13214143Y-14689714D01*
X13128428Y-14689714D01*
X13099857Y-14675429D01*
X13085571Y-14661143D01*
X13385571Y-14418286D02*
X13399857Y-14404000D01*
X13428428Y-14389714D01*
X13499857Y-14389714D01*
X13528428Y-14404000D01*
X13542714Y-14418286D01*
X13557000Y-14446857D01*
X13557000Y-14475429D01*
X13542714Y-14518286D01*
X13371286Y-14689714D01*
X13557000Y-14689714D01*
X13914143Y-14689714D02*
X13914143Y-14389714D01*
X14042714Y-14689714D02*
X14042714Y-14532571D01*
X14028428Y-14504000D01*
X13999857Y-14489714D01*
X13957000Y-14489714D01*
X13928428Y-14504000D01*
X13914143Y-14518286D01*
X14228428Y-14689714D02*
X14199857Y-14675429D01*
X14185571Y-14661143D01*
X14171286Y-14632571D01*
X14171286Y-14546857D01*
X14185571Y-14518286D01*
X14199857Y-14504000D01*
X14228428Y-14489714D01*
X14271286Y-14489714D01*
X14299857Y-14504000D01*
X14314143Y-14518286D01*
X14328428Y-14546857D01*
X14328428Y-14632571D01*
X14314143Y-14661143D01*
X14299857Y-14675429D01*
X14271286Y-14689714D01*
X14228428Y-14689714D01*
X14499857Y-14689714D02*
X14471286Y-14675429D01*
X14457000Y-14646857D01*
X14457000Y-14389714D01*
X14728428Y-14675429D02*
X14699857Y-14689714D01*
X14642714Y-14689714D01*
X14614143Y-14675429D01*
X14599857Y-14646857D01*
X14599857Y-14532571D01*
X14614143Y-14504000D01*
X14642714Y-14489714D01*
X14699857Y-14489714D01*
X14728428Y-14504000D01*
X14742714Y-14532571D01*
X14742714Y-14561143D01*
X14599857Y-14589714D01*
X14857000Y-14675429D02*
X14885571Y-14689714D01*
X14942714Y-14689714D01*
X14971286Y-14675429D01*
X14985571Y-14646857D01*
X14985571Y-14632571D01*
X14971286Y-14604000D01*
X14942714Y-14589714D01*
X14899857Y-14589714D01*
X14871286Y-14575429D01*
X14857000Y-14546857D01*
X14857000Y-14532571D01*
X14871286Y-14504000D01*
X14899857Y-14489714D01*
X14942714Y-14489714D01*
X14971286Y-14504000D01*
X15085571Y-14804000D02*
X15099857Y-14789714D01*
X15128428Y-14746857D01*
X15142714Y-14718286D01*
X15157000Y-14675429D01*
X15171286Y-14604000D01*
X15171286Y-14546857D01*
X15157000Y-14475429D01*
X15142714Y-14432571D01*
X15128428Y-14404000D01*
X15099857Y-14361143D01*
X15085571Y-14346857D01*
X7742000Y-14950000D02*
G75*
G03*
X7742000Y-14950000I-50000J0D01*
G01*
X8185571Y-15085714D02*
X8014143Y-15085714D01*
X8099857Y-15085714D02*
X8099857Y-14785714D01*
X8071286Y-14828571D01*
X8042714Y-14857143D01*
X8014143Y-14871429D01*
X8314143Y-15057143D02*
X8328428Y-15071429D01*
X8314143Y-15085714D01*
X8299857Y-15071429D01*
X8314143Y-15057143D01*
X8314143Y-15085714D01*
X8514143Y-14785714D02*
X8542714Y-14785714D01*
X8571286Y-14800000D01*
X8585571Y-14814286D01*
X8599857Y-14842857D01*
X8614143Y-14900000D01*
X8614143Y-14971429D01*
X8599857Y-15028571D01*
X8585571Y-15057143D01*
X8571286Y-15071429D01*
X8542714Y-15085714D01*
X8514143Y-15085714D01*
X8485571Y-15071429D01*
X8471286Y-15057143D01*
X8457000Y-15028571D01*
X8442714Y-14971429D01*
X8442714Y-14900000D01*
X8457000Y-14842857D01*
X8471286Y-14814286D01*
X8485571Y-14800000D01*
X8514143Y-14785714D01*
X8799857Y-14785714D02*
X8828428Y-14785714D01*
X8857000Y-14800000D01*
X8871286Y-14814286D01*
X8885571Y-14842857D01*
X8899857Y-14900000D01*
X8899857Y-14971429D01*
X8885571Y-15028571D01*
X8871286Y-15057143D01*
X8857000Y-15071429D01*
X8828428Y-15085714D01*
X8799857Y-15085714D01*
X8771286Y-15071429D01*
X8757000Y-15057143D01*
X8742714Y-15028571D01*
X8728428Y-14971429D01*
X8728428Y-14900000D01*
X8742714Y-14842857D01*
X8757000Y-14814286D01*
X8771286Y-14800000D01*
X8799857Y-14785714D01*
X9085571Y-14785714D02*
X9114143Y-14785714D01*
X9142714Y-14800000D01*
X9157000Y-14814286D01*
X9171286Y-14842857D01*
X9185571Y-14900000D01*
X9185571Y-14971429D01*
X9171286Y-15028571D01*
X9157000Y-15057143D01*
X9142714Y-15071429D01*
X9114143Y-15085714D01*
X9085571Y-15085714D01*
X9057000Y-15071429D01*
X9042714Y-15057143D01*
X9028428Y-15028571D01*
X9014143Y-14971429D01*
X9014143Y-14900000D01*
X9028428Y-14842857D01*
X9042714Y-14814286D01*
X9057000Y-14800000D01*
X9085571Y-14785714D01*
X9314143Y-15085714D02*
X9314143Y-14885714D01*
X9314143Y-14914286D02*
X9328428Y-14900000D01*
X9357000Y-14885714D01*
X9399857Y-14885714D01*
X9428428Y-14900000D01*
X9442714Y-14928571D01*
X9442714Y-15085714D01*
X9442714Y-14928571D02*
X9457000Y-14900000D01*
X9485571Y-14885714D01*
X9528428Y-14885714D01*
X9557000Y-14900000D01*
X9571286Y-14928571D01*
X9571286Y-15085714D01*
X9714143Y-15085714D02*
X9714143Y-14885714D01*
X9714143Y-14914286D02*
X9728428Y-14900000D01*
X9757000Y-14885714D01*
X9799857Y-14885714D01*
X9828428Y-14900000D01*
X9842714Y-14928571D01*
X9842714Y-15085714D01*
X9842714Y-14928571D02*
X9857000Y-14900000D01*
X9885571Y-14885714D01*
X9928428Y-14885714D01*
X9957000Y-14900000D01*
X9971286Y-14928571D01*
X9971286Y-15085714D01*
X10557000Y-14771429D02*
X10299857Y-15157143D01*
X10942714Y-14785714D02*
X10971286Y-14785714D01*
X10999857Y-14800000D01*
X11014143Y-14814286D01*
X11028428Y-14842857D01*
X11042714Y-14900000D01*
X11042714Y-14971429D01*
X11028428Y-15028571D01*
X11014143Y-15057143D01*
X10999857Y-15071429D01*
X10971286Y-15085714D01*
X10942714Y-15085714D01*
X10914143Y-15071429D01*
X10899857Y-15057143D01*
X10885571Y-15028571D01*
X10871286Y-14971429D01*
X10871286Y-14900000D01*
X10885571Y-14842857D01*
X10899857Y-14814286D01*
X10914143Y-14800000D01*
X10942714Y-14785714D01*
X11171286Y-15057143D02*
X11185571Y-15071429D01*
X11171286Y-15085714D01*
X11157000Y-15071429D01*
X11171286Y-15057143D01*
X11171286Y-15085714D01*
X11371286Y-14785714D02*
X11399857Y-14785714D01*
X11428428Y-14800000D01*
X11442714Y-14814286D01*
X11457000Y-14842857D01*
X11471286Y-14900000D01*
X11471286Y-14971429D01*
X11457000Y-15028571D01*
X11442714Y-15057143D01*
X11428428Y-15071429D01*
X11399857Y-15085714D01*
X11371286Y-15085714D01*
X11342714Y-15071429D01*
X11328428Y-15057143D01*
X11314143Y-15028571D01*
X11299857Y-14971429D01*
X11299857Y-14900000D01*
X11314143Y-14842857D01*
X11328428Y-14814286D01*
X11342714Y-14800000D01*
X11371286Y-14785714D01*
X11571286Y-14785714D02*
X11757000Y-14785714D01*
X11657000Y-14900000D01*
X11699857Y-14900000D01*
X11728428Y-14914286D01*
X11742714Y-14928571D01*
X11757000Y-14957143D01*
X11757000Y-15028571D01*
X11742714Y-15057143D01*
X11728428Y-15071429D01*
X11699857Y-15085714D01*
X11614143Y-15085714D01*
X11585571Y-15071429D01*
X11571286Y-15057143D01*
X11899857Y-15085714D02*
X11957000Y-15085714D01*
X11985571Y-15071429D01*
X11999857Y-15057143D01*
X12028428Y-15014286D01*
X12042714Y-14957143D01*
X12042714Y-14842857D01*
X12028428Y-14814286D01*
X12014143Y-14800000D01*
X11985571Y-14785714D01*
X11928428Y-14785714D01*
X11899857Y-14800000D01*
X11885571Y-14814286D01*
X11871286Y-14842857D01*
X11871286Y-14914286D01*
X11885571Y-14942857D01*
X11899857Y-14957143D01*
X11928428Y-14971429D01*
X11985571Y-14971429D01*
X12014143Y-14957143D01*
X12028428Y-14942857D01*
X12042714Y-14914286D01*
X12299857Y-14885714D02*
X12299857Y-15085714D01*
X12228428Y-14771429D02*
X12157000Y-14985714D01*
X12342714Y-14985714D01*
X12442714Y-14785714D02*
X12442714Y-14842857D01*
X12557000Y-14785714D02*
X12557000Y-14842857D01*
X12999857Y-15200000D02*
X12985571Y-15185714D01*
X12957000Y-15142857D01*
X12942714Y-15114286D01*
X12928428Y-15071429D01*
X12914143Y-15000000D01*
X12914143Y-14942857D01*
X12928428Y-14871429D01*
X12942714Y-14828571D01*
X12957000Y-14800000D01*
X12985571Y-14757143D01*
X12999857Y-14742857D01*
X13099857Y-14814286D02*
X13114143Y-14800000D01*
X13142714Y-14785714D01*
X13214143Y-14785714D01*
X13242714Y-14800000D01*
X13257000Y-14814286D01*
X13271286Y-14842857D01*
X13271286Y-14871429D01*
X13257000Y-14914286D01*
X13085571Y-15085714D01*
X13271286Y-15085714D01*
X13442714Y-14914286D02*
X13414143Y-14900000D01*
X13399857Y-14885714D01*
X13385571Y-14857143D01*
X13385571Y-14842857D01*
X13399857Y-14814286D01*
X13414143Y-14800000D01*
X13442714Y-14785714D01*
X13499857Y-14785714D01*
X13528428Y-14800000D01*
X13542714Y-14814286D01*
X13557000Y-14842857D01*
X13557000Y-14857143D01*
X13542714Y-14885714D01*
X13528428Y-14900000D01*
X13499857Y-14914286D01*
X13442714Y-14914286D01*
X13414143Y-14928571D01*
X13399857Y-14942857D01*
X13385571Y-14971429D01*
X13385571Y-15028571D01*
X13399857Y-15057143D01*
X13414143Y-15071429D01*
X13442714Y-15085714D01*
X13499857Y-15085714D01*
X13528428Y-15071429D01*
X13542714Y-15057143D01*
X13557000Y-15028571D01*
X13557000Y-14971429D01*
X13542714Y-14942857D01*
X13528428Y-14928571D01*
X13499857Y-14914286D01*
X13914143Y-15085714D02*
X13914143Y-14785714D01*
X14042714Y-15085714D02*
X14042714Y-14928571D01*
X14028428Y-14900000D01*
X13999857Y-14885714D01*
X13957000Y-14885714D01*
X13928428Y-14900000D01*
X13914143Y-14914286D01*
X14228428Y-15085714D02*
X14199857Y-15071429D01*
X14185571Y-15057143D01*
X14171286Y-15028571D01*
X14171286Y-14942857D01*
X14185571Y-14914286D01*
X14199857Y-14900000D01*
X14228428Y-14885714D01*
X14271286Y-14885714D01*
X14299857Y-14900000D01*
X14314143Y-14914286D01*
X14328428Y-14942857D01*
X14328428Y-15028571D01*
X14314143Y-15057143D01*
X14299857Y-15071429D01*
X14271286Y-15085714D01*
X14228428Y-15085714D01*
X14499857Y-15085714D02*
X14471286Y-15071429D01*
X14457000Y-15042857D01*
X14457000Y-14785714D01*
X14728428Y-15071429D02*
X14699857Y-15085714D01*
X14642714Y-15085714D01*
X14614143Y-15071429D01*
X14599857Y-15042857D01*
X14599857Y-14928571D01*
X14614143Y-14900000D01*
X14642714Y-14885714D01*
X14699857Y-14885714D01*
X14728428Y-14900000D01*
X14742714Y-14928571D01*
X14742714Y-14957143D01*
X14599857Y-14985714D01*
X14857000Y-15071429D02*
X14885571Y-15085714D01*
X14942714Y-15085714D01*
X14971286Y-15071429D01*
X14985571Y-15042857D01*
X14985571Y-15028571D01*
X14971286Y-15000000D01*
X14942714Y-14985714D01*
X14899857Y-14985714D01*
X14871286Y-14971429D01*
X14857000Y-14942857D01*
X14857000Y-14928571D01*
X14871286Y-14900000D01*
X14899857Y-14885714D01*
X14942714Y-14885714D01*
X14971286Y-14900000D01*
X15085571Y-15200000D02*
X15099857Y-15185714D01*
X15128428Y-15142857D01*
X15142714Y-15114286D01*
X15157000Y-15071429D01*
X15171286Y-15000000D01*
X15171286Y-14942857D01*
X15157000Y-14871429D01*
X15142714Y-14828571D01*
X15128428Y-14800000D01*
X15099857Y-14757143D01*
X15085571Y-14742857D01*
M02*
