M48
; DRILL file {KiCad (5.1.10)-1} date 05/01/22 16:47:09
; FORMAT={-:-/ absolute / metric / decimal}
; #@! TF.CreationDate,2022-05-01T16:47:09-04:00
; #@! TF.GenerationSoftware,Kicad,Pcbnew,(5.1.10)-1
; #@! TF.FileFunction,Plated,1,2,PTH
FMAT,2
METRIC
T1C0.400
T2C1.000
%
G90
G05
T1
X95.885Y-107.315
X96.609Y-98.59
X105.194Y-97.79
X105.41Y-101.6
X105.689Y-112.585
X109.855Y-105.41
X117.894Y-97.384
X123.825Y-103.505
X123.825Y-107.315
X129.54Y-100.33
T2
X87.884Y-108.712
X87.884Y-111.252
X87.884Y-113.792
X90.805Y-100.33
X90.805Y-102.87
X94.526Y-120.739
X97.066Y-120.739
X99.606Y-120.739
X102.146Y-120.739
X124.46Y-119.38
X127.0Y-100.965
X127.0Y-103.505
X127.0Y-106.045
X127.0Y-108.585
X127.0Y-111.125
X127.0Y-113.665
X127.0Y-119.38
T0
M30
